<svg width="40" height="40" viewBox="0 0 40 40" fill="none" xmlns="http://www.w3.org/2000/svg">
<g clip-path="url(#clip0_501_961)">
<path d="M19.9731 5.99988C27.6389 5.96753 33.9785 12.2856 34.0001 19.9729C34.0216 27.6603 27.7143 33.9783 20.027 33.9999C12.3397 34.0215 6.02162 27.7142 6.00006 20.0268C5.97849 12.3395 12.2642 6.03222 19.9731 5.99988ZM19.9731 24.2425C20.8572 24.2425 21.7305 24.2317 22.6146 24.2533C22.9704 24.264 23.1537 24.167 23.2723 23.8004C23.7898 22.1185 24.3397 20.4581 24.9003 18.7869C25.0189 18.4311 24.9435 18.2479 24.6523 18.0322C23.2184 17.008 21.7952 15.9837 20.3828 14.9271C20.1025 14.7223 19.9084 14.7223 19.6389 14.9271C18.2265 15.9729 16.8033 17.008 15.3693 18.0214C15.0351 18.2586 15.0135 18.4635 15.1321 18.8301C15.6928 20.4797 16.2319 22.1293 16.7386 23.7896C16.8572 24.1562 17.0405 24.2533 17.3963 24.2425C18.248 24.2317 19.1106 24.2425 19.9731 24.2425ZM20.0486 25.4824C19.0782 25.4824 18.1079 25.4608 17.1375 25.4931C16.9327 25.5039 16.6631 25.6333 16.5337 25.8058C15.9408 26.5713 15.3693 27.3584 14.8195 28.1562C14.7224 28.2964 14.6901 28.5659 14.744 28.7276C15.1429 29.7627 15.5526 30.7977 15.9947 31.822C16.0701 32.0053 16.2858 32.1993 16.4691 32.2533C18.7979 32.9325 21.1483 32.9325 23.4771 32.264C23.6712 32.2101 23.8869 32.0268 23.9623 31.8436C24.3936 30.8409 24.8141 29.8274 25.1914 28.8031C25.2669 28.609 25.2238 28.3072 25.1052 28.1347C24.5877 27.3584 24.0162 26.6144 23.4987 25.8382C23.3154 25.5686 23.1106 25.4716 22.7871 25.4824C21.8815 25.4931 20.965 25.4824 20.0486 25.4824ZM13.0297 27.671C13.4933 27.8543 13.7952 27.5201 14.0863 27.0781C14.5499 26.388 15.0674 25.7519 15.5203 25.0619C15.6281 24.9002 15.7036 24.609 15.6389 24.4258C15.0567 22.5821 14.4637 20.7384 13.8383 18.9055C13.7844 18.733 13.6011 18.5497 13.4286 18.4851C12.5014 18.1616 11.5634 17.8597 10.6146 17.5794C10.4421 17.5255 10.1833 17.5794 10.0432 17.6872C9.18065 18.3772 8.3289 19.0996 7.48793 19.8328C7.34776 19.9514 7.23995 20.1886 7.23995 20.3719C7.30464 22.8409 8.03779 25.0942 9.42863 27.1212C9.52566 27.2721 9.76286 27.3907 9.94615 27.4123C10.9488 27.5201 11.93 27.5848 13.0297 27.671ZM26.992 27.6926C28.1133 27.6064 29.0836 27.5417 30.0432 27.4446C30.2265 27.4231 30.4529 27.2937 30.5499 27.1427C31.9192 25.1374 32.6523 22.9163 32.7278 20.4797C32.7386 20.264 32.6092 19.9945 32.4475 19.8543C31.6389 19.1427 30.8195 18.4419 29.9677 17.7735C29.806 17.6441 29.5041 17.5902 29.31 17.6441C28.4152 17.8921 27.5203 18.1724 26.647 18.4851C26.4313 18.5605 26.1941 18.7762 26.1187 18.9918C25.5149 20.7708 24.9327 22.5605 24.372 24.3611C24.3073 24.5767 24.3612 24.9002 24.4906 25.0942C24.9111 25.7627 25.4178 26.3772 25.8491 27.0349C26.1726 27.5309 26.496 27.8975 26.992 27.6926ZM20.5877 11.5524C20.5877 11.822 20.6092 12.0915 20.6308 12.3611C20.6955 12.9433 20.7709 13.6441 21.2885 14.0107C22.647 15.0026 24.0054 15.9945 25.3639 16.9864C25.5472 17.1158 25.7413 17.2559 25.9677 17.2991C26.2157 17.3422 26.4637 17.2667 26.7116 17.1913C27.3478 16.9972 27.9947 16.7923 28.6308 16.5983C28.8895 16.5228 29.1591 16.4258 29.3316 16.2209C29.4718 16.0592 29.5364 15.8328 29.5904 15.6279C29.7952 14.8301 30.0001 14.043 30.1941 13.2452C30.2588 12.9756 30.3343 12.6845 30.2696 12.415C30.2049 12.1562 30.0324 11.9406 29.8491 11.7465C28.5877 10.3341 27.0567 9.13735 25.3208 8.35028C24.9435 8.17778 24.5122 7.9298 24.0917 8.00527C23.6497 8.08074 23.2615 8.41497 22.8842 8.63061C22.1941 9.01875 21.1591 9.35298 20.8356 10.1508C20.6523 10.6037 20.5877 11.078 20.5877 11.5524ZM19.4556 12.07C19.4664 11.822 19.4664 11.5632 19.4664 11.3152C19.4771 10.9055 19.4987 10.4743 19.2831 10.1077C19.1106 9.82737 18.8302 9.64409 18.5499 9.47158C17.9677 9.105 17.3855 8.73842 16.8033 8.36107C16.5877 8.2209 16.3505 8.08074 16.0917 8.03762C15.8006 7.98371 15.5095 8.06996 15.2399 8.167C14.5176 8.41497 13.8491 8.79233 13.2022 9.20204C12.178 9.88128 11.2292 10.6791 10.399 11.5848C10.151 11.8543 9.9138 12.1562 9.83833 12.512C9.78442 12.8139 9.85989 13.1158 9.93537 13.4177C10.1079 14.0969 10.2804 14.7869 10.4637 15.4662C10.5391 15.7465 10.6146 16.0376 10.8302 16.2425C10.992 16.3934 11.2076 16.4689 11.4232 16.5444C11.9947 16.7384 12.5769 16.9325 13.1483 17.1266C13.4825 17.2344 13.8275 17.353 14.1726 17.2883C14.5391 17.2236 14.841 16.9648 15.1213 16.7169C15.779 16.1562 16.4691 15.6495 17.2022 15.1859C17.7521 14.8301 18.3343 14.5066 18.7871 14.0322C19.3154 13.4716 19.4232 12.7816 19.4556 12.07ZM14.4852 31.3692C14.1833 30.6252 13.8922 29.8921 13.5796 29.1589C13.5364 29.0619 13.4178 28.9433 13.3208 28.9325C12.5014 28.857 11.6712 28.8031 10.7009 28.7384C11.8545 29.9244 13.0405 30.7869 14.4852 31.3692ZM29.2777 28.7492C28.3505 28.8139 27.585 28.857 26.8195 28.9325C26.6793 28.9433 26.4745 29.0188 26.4313 29.1266C26.1079 29.8705 25.806 30.6252 25.4502 31.5201C26.9488 30.8085 28.1348 29.9352 29.2777 28.7492ZM31.1968 13.8705C30.9596 14.8301 30.7548 15.6387 30.5715 16.4473C30.5607 16.512 30.5715 16.609 30.6146 16.6414C31.2507 17.1913 31.8976 17.7411 32.5338 18.2802C32.4259 16.7276 31.9839 15.3368 31.1968 13.8705ZM8.8572 14.043C8.04857 15.3476 7.55262 16.7169 7.38011 18.3449C8.10248 17.7411 8.71704 17.2236 9.32081 16.7061C9.39628 16.6414 9.45019 16.4797 9.42863 16.3826C9.24534 15.5848 9.04049 14.8193 8.8572 14.043ZM22.3559 7.46619C20.7278 7.1643 19.2723 7.1643 17.6443 7.46619C18.4637 7.98371 19.1537 8.41497 19.8545 8.83546C19.93 8.87859 20.0701 8.87859 20.1456 8.83546C20.8464 8.41497 21.5364 7.98371 22.3559 7.46619Z" fill="#3C388D"/>
</g>
<defs>
<clipPath id="clip0_501_961">
<rect width="28" height="28" fill="white" transform="translate(6 6)"/>
</clipPath>
</defs>
</svg>
