<svg xmlns="http://www.w3.org/2000/svg" width="40" height="40" viewBox="0 0 40 40" fill="none">
<g clip-path="url(#clip0_501_774)">
<path d="M33.1168 11.7439C32.5959 11.7439 32.075 11.7439 31.5654 11.7439C31.4522 10.5549 31.6107 10.6342 30.3877 10.3737C29.6177 10.2152 28.8251 10.0907 28.0324 10.0567C24.9071 9.88683 21.9856 10.4643 19.6076 12.7064C19.5736 12.7404 19.5057 12.7404 19.5849 12.7178C18.7017 12.1402 17.9543 11.5288 17.0937 11.1211C14.1382 9.71697 11.0695 9.77359 7.96681 10.5323C7.76298 10.5889 7.60445 10.9286 7.47989 11.1777C7.41195 11.3136 7.44592 11.5061 7.4346 11.7326C6.86841 11.7326 6.32487 11.7213 5.78134 11.7326C5.18118 11.7552 5 11.9251 5 12.5252C5 18.357 5 24.1887 5 30.0204C5 30.7451 5.35103 30.9489 6.01913 30.6545C9.62007 29.0465 13.3682 28.6615 17.2522 29.2051C18.2827 29.3523 19.2792 29.8392 20.3663 29.4768C20.8305 29.3296 21.3288 29.273 21.8044 29.1937C25.6205 28.6389 29.3233 29.0012 32.879 30.5979C33.7056 30.9716 34 30.8017 34 29.9185C34 24.166 34 18.4022 34 12.6498C34 11.9024 33.8528 11.7552 33.1168 11.7439ZM6.16634 29.3409V12.8989H7.47989V13.601C7.47989 17.9267 7.47989 22.241 7.47989 26.5666C7.47989 27.4499 7.63842 27.5744 8.52167 27.4612C10.7638 27.1781 12.9945 27.0988 15.214 27.6311C15.3385 27.665 15.4631 27.699 15.599 27.733C15.6669 27.7556 15.7349 27.7783 15.8028 27.8462C12.4963 27.6311 9.29168 28.0953 6.16634 29.3409ZM18.9734 15.4921C18.8376 19.3874 18.9395 23.3054 18.9395 27.2008V27.9028C17.2975 26.929 15.633 26.3855 13.8665 26.2835C12.1453 26.193 10.4127 26.2609 8.61226 26.2609C8.60094 26.0797 8.58961 25.8759 8.58961 25.6834C8.58961 21.1766 8.58961 16.6697 8.57829 12.1629C8.57829 11.6646 8.71417 11.4835 9.21242 11.4042C11.6244 11.0192 13.9797 11.0418 16.2671 12.0044C16.6068 12.1516 16.9465 12.3327 17.2749 12.5252C18.4073 13.182 19.0187 13.9973 18.9734 15.4921ZM20.0605 27.8915V27.2461C20.0605 22.9997 20.0718 18.7533 20.0492 14.5069C20.0492 14.0539 20.1851 13.7369 20.5248 13.4311C21.9516 12.1289 23.6615 11.4948 25.5299 11.257C27.0133 11.0645 28.508 11.1664 29.9801 11.4382C30.2632 11.4948 30.4104 11.5741 30.4104 11.8911C30.3991 16.6244 30.3991 21.3691 30.3991 26.1024C30.3991 26.1363 30.3877 26.1703 30.3538 26.2835C26.8434 25.9665 23.367 26.0005 20.0605 27.8915ZM32.845 29.3523C29.7083 28.1067 26.4924 27.6311 23.1745 27.9142C23.1745 27.8575 23.1632 27.8122 23.1632 27.7556C23.9672 27.6197 24.7712 27.3706 25.5865 27.3593C27.2624 27.3366 28.9383 27.4046 30.6029 27.4952C31.3616 27.5292 31.5428 27.4272 31.5428 26.6459C31.5428 22.4222 31.5428 18.1984 31.5428 13.9747C31.5428 12.7517 31.5428 12.7517 32.845 12.9329V29.3523V29.3523Z" fill="#ffffff"/>
</g>
<defs fill="#000000">
<clipPath id="clip0_501_774" fill="#000000">
<rect width="29" height="20.7903" fill="white" transform="translate(5 10)"/>
</clipPath>
</defs>
</svg>