<svg width="40" height="40" viewBox="0 0 40 40" fill="none" xmlns="http://www.w3.org/2000/svg">
<g clip-path="url(#clip0_501_835)">
<path d="M21.9303 33.0003H22.2809C26.0719 33.0003 29.8629 33.0003 33.654 33.0003C33.769 33.0003 33.8841 33.0332 33.9936 33.0496V33.9261C33.8841 33.9426 33.78 33.97 33.6759 33.97C24.5654 33.97 15.4548 33.97 6.34428 33.97H6.04845V33.0003H18.057C18.0187 32.5511 17.7503 32.2771 17.4489 32.0306C16.8244 31.5102 16.0848 31.1979 15.3233 30.9349C13.3676 30.2556 11.3406 29.9269 9.28069 29.7735C8.28362 29.6968 7.28108 29.6749 6.27854 29.6311C6.20732 29.6256 6.1361 29.6201 6.04297 29.6146V28.6833C6.47028 28.6833 6.88664 28.6724 7.303 28.6888C9.48887 28.771 11.6638 28.9846 13.7949 29.4996C15.1809 29.8338 16.5395 30.2447 17.7283 31.0555C18.2981 31.4444 18.7966 31.9101 18.9719 32.6223C18.9993 32.7373 19.0158 32.8524 19.0377 32.9838H20.9003C21.0099 32.6825 21.0811 32.3703 21.2345 32.1018C21.6016 31.4389 22.2151 31.039 22.8616 30.6884C24.2805 29.9269 25.8254 29.5379 27.3922 29.2421C29.5123 28.8477 31.6489 28.6778 33.8019 28.6724C33.8676 28.6724 33.9279 28.6778 33.9936 28.6778V29.6092C32.9034 29.664 31.8078 29.6968 30.7176 29.7735C28.6577 29.9269 26.6307 30.2556 24.6749 30.9295C23.9134 31.1924 23.1793 31.5047 22.5493 32.0197C22.248 32.2717 21.985 32.5511 21.9303 33.0003Z" fill="#3C388D"/>
<path d="M23.3611 23.2652C27.6835 21.3423 28.5765 15.4038 25.0156 12.2811C23.2351 10.7143 21.1588 10.1226 18.814 10.4623C15.9215 10.8786 13.374 13.1193 12.859 16.1324C12.3769 18.9757 13.878 21.9723 16.4967 23.194C16.9021 23.3858 17.1486 23.6542 17.3184 24.0377C16.5076 24.8211 16.4364 25.2594 16.9843 26.2619C16.5898 26.8755 16.5296 27.374 16.7925 27.8726C17.0774 28.404 17.5376 28.656 18.1292 28.6614C19.3783 28.6669 20.6274 28.6669 21.871 28.6614C22.3202 28.6614 22.7092 28.5081 23.0105 28.1629C23.4761 27.626 23.4816 26.9905 23.016 26.2564C23.6515 25.358 23.3501 24.5198 22.6653 24.0377C22.868 23.7473 22.9886 23.4296 23.3611 23.2652ZM21.8819 27.6973C21.2519 27.7027 20.6274 27.6973 19.9974 27.6973H18.1073C17.8992 27.6973 17.7074 27.6206 17.6526 27.4179C17.6143 27.2699 17.6307 27.0672 17.7129 26.9412C17.7786 26.8371 17.9704 26.755 18.1019 26.755C19.3674 26.744 20.6329 26.744 21.9039 26.7495C22.2106 26.7495 22.4024 26.9577 22.4024 27.2206C22.4024 27.4946 22.1942 27.6918 21.8819 27.6973ZM17.5978 25.2922C17.5978 25.0293 17.7896 24.843 18.0909 24.8101C18.1621 24.8047 18.2333 24.8047 18.31 24.8047H21.6902C21.7614 24.8047 21.8381 24.7992 21.9093 24.8101C22.2106 24.843 22.4024 25.0293 22.4024 25.2922C22.4024 25.5662 22.1997 25.7689 21.8819 25.7743C21.2574 25.7853 20.6274 25.7743 20.0029 25.7743C19.3783 25.7743 18.7483 25.7798 18.1238 25.7743C17.8005 25.7689 17.5978 25.5662 17.5978 25.2922ZM21.8381 23.5446C21.7724 23.6652 21.6354 23.7473 21.5368 23.8514C21.5039 23.7145 21.4491 23.572 21.4491 23.4351C21.4437 22.4435 21.4382 21.4464 21.4546 20.4548C21.4546 20.3124 21.5258 20.1316 21.6245 20.033C22.2435 19.392 22.879 18.7675 23.5145 18.132C23.5802 18.0663 23.6405 18.0005 23.7008 17.9348C23.4707 17.7102 23.2461 17.4965 23.0214 17.2774C22.2326 18.0608 21.4272 18.8551 20.6383 19.6659C20.5343 19.77 20.4959 19.9782 20.4959 20.1426C20.485 21.2711 20.4904 22.3997 20.4904 23.5337V23.846H19.5208V23.5392C19.5208 22.4271 19.5153 21.3149 19.5262 20.2028C19.5317 19.9125 19.4331 19.7043 19.2304 19.5016C18.4744 18.762 17.7348 18.0115 16.9843 17.2609C16.7542 17.491 16.535 17.7102 16.3049 17.9403C16.3652 18.006 16.4255 18.0717 16.4857 18.132C17.1212 18.7675 17.7677 19.403 18.3922 20.0494C18.4799 20.1426 18.5511 20.296 18.5511 20.4274C18.562 21.4848 18.562 22.5421 18.5566 23.5994C18.5566 23.6871 18.5018 23.7693 18.4744 23.8569C18.3977 23.7966 18.2772 23.7528 18.2388 23.6761C17.9101 22.9804 17.3568 22.5804 16.683 22.2079C14.6779 21.0958 13.7082 19.3263 13.752 17.0308C13.8013 14.3355 15.8283 12.1332 18.3648 11.5525C21.0164 10.9444 23.3118 11.6182 25.0539 13.7493C27.311 16.5104 26.3249 20.8 23.0872 22.3339C22.4955 22.6024 22.1285 23.0078 21.8381 23.5446Z" fill="#3C388D"/>
<path d="M12.9843 23.3147C12.0256 23.7968 11.0724 24.2734 10.0972 24.761C9.94932 24.4706 9.81784 24.1967 9.66992 23.9009C10.6341 23.4188 11.5764 22.9476 12.557 22.4546C12.6995 22.7449 12.8364 23.0134 12.9843 23.3147Z" fill="#3C388D"/>
<path d="M30.3277 23.9008C30.1798 24.1911 30.0483 24.465 29.9004 24.7609C28.9307 24.2788 27.983 23.8022 27.0078 23.3201C27.1557 23.0242 27.2927 22.7558 27.4406 22.46C28.4103 22.9421 29.358 23.4132 30.3277 23.9008Z" fill="#3C388D"/>
<path d="M12.9843 11.8539C12.8364 12.1552 12.6995 12.4291 12.5515 12.714C11.5819 12.2319 10.6341 11.7553 9.66992 11.2732C9.81236 10.9883 9.94932 10.7144 10.0972 10.4131C11.056 10.8897 12.0037 11.3663 12.9843 11.8539Z" fill="#3C388D"/>
<path d="M30.2637 11.5088C29.2393 11.8484 28.2313 12.1881 27.2013 12.5332C27.0972 12.2155 26.9986 11.9361 26.8945 11.6238C27.908 11.2842 28.9106 10.95 29.9569 10.5994C30.061 10.9007 30.1542 11.1856 30.2637 11.5088Z" fill="#3C388D"/>
<path d="M10.8249 16.6365H7.9707V17.5623H10.8249V16.6365Z" fill="#3C388D"/>
<path d="M32.0273 16.6475H29.1621V17.5624H32.0273V16.6475Z" fill="#3C388D"/>
<path d="M20.4626 7H19.5312V9.37762H20.4626V7Z" fill="#3C388D"/>
</g>
<defs>
<clipPath id="clip0_501_835">
<rect width="28" height="26.9701" fill="white" transform="translate(6 7)"/>
</clipPath>
</defs>
</svg>
