<svg width="40" height="40" viewBox="0 0 40 40" fill="none" xmlns="http://www.w3.org/2000/svg">
<path d="M34.9967 33.004C35.0318 32.4535 34.7859 32.2779 34.2705 32.2896C33.5795 32.313 32.8885 32.3013 32.2092 32.3013V29.6895C32.4083 29.6309 32.5723 29.5958 32.7362 29.5489C35.0201 28.811 35.7346 25.965 34.0949 24.2198C33.884 23.9973 33.7318 23.6928 33.6498 23.3883C33.4038 22.4396 32.666 21.8305 31.7056 21.8539C30.7686 21.8657 30.019 22.545 29.8433 23.482C29.7965 23.6928 29.7028 23.927 29.5622 24.0793C27.7 25.9532 28.4261 28.8227 30.9794 29.6075C31.1199 29.6543 31.3308 29.7831 31.3308 29.8886C31.3542 30.685 31.3425 31.4697 31.3425 32.2544H27.0441V14.8149C27.0441 13.0229 27.0441 11.2192 27.0441 9.42724C27.0441 8.50197 27.0441 8.50197 26.0954 8.50197H25.0881C25.0413 8.40827 25.0061 8.37313 25.0061 8.338C24.9944 7.483 24.9944 6.628 24.9827 5.7613C24.971 5.05856 24.9124 5 24.2097 5C21.4573 5 18.7049 5 15.9526 5C15.0507 5 15.0273 5.01171 15.0273 5.91356C15.0273 6.75684 15.0273 7.61183 15.0273 8.50197H13.9381C12.9542 8.50197 12.9542 8.50197 12.9542 9.46237V32.2661H8.65582C8.65582 31.4931 8.66754 30.7904 8.64411 30.0994C8.6324 29.7831 8.74952 29.6777 9.05404 29.5958C11.5605 28.8696 12.2983 25.9532 10.4712 24.1144C10.3307 23.9739 10.2136 23.7748 10.1784 23.5874C9.97931 22.545 9.25315 21.8774 8.26932 21.8657C7.27378 21.8539 6.54762 22.4981 6.32508 23.5522C6.28995 23.7279 6.21967 23.9387 6.10255 24.0559C4.06462 25.9298 5.08358 29.1038 7.51973 29.6309C7.63686 29.6543 7.81254 29.8066 7.81254 29.9003C7.83596 30.6967 7.82425 31.4814 7.82425 32.313C7.06296 32.313 6.38364 32.3247 5.70433 32.3013C5.21242 32.2896 4.97817 32.4653 5.0016 32.9806C5.02502 33.3671 5.0016 33.7653 5.0016 34.1518C5.0016 34.9834 5.01331 34.9951 5.8683 34.9951H34.0949C34.1768 34.9951 34.2471 34.9834 34.3291 34.9951C34.7976 35.042 35.0201 34.8428 34.9967 34.3626C34.9733 33.9059 34.9733 33.4491 34.9967 33.004ZM31.2254 28.811C30.0893 28.5417 29.3514 27.593 29.3514 26.4334C29.3631 25.6604 29.6676 25.028 30.2767 24.5712C30.5578 24.3604 30.6749 24.1496 30.6632 23.7982C30.6397 23.1306 31.1082 22.6738 31.729 22.6621C32.3614 22.6504 32.8651 23.1072 32.8299 23.763C32.8182 24.1847 32.9822 24.3838 33.2867 24.6298C34.1768 25.3442 34.4111 26.5857 33.884 27.593C33.3804 28.5534 32.2677 29.057 31.2254 28.811ZM15.8823 5.855H24.1043V8.46683H15.8823V5.855ZM13.8092 9.35696H26.1891V32.2661H22.1249C22.1249 30.9544 22.1249 29.6777 22.1249 28.3894C22.1249 27.5461 22.0898 27.511 21.2231 27.511C20.3681 27.511 19.5014 27.511 18.6464 27.511C17.9554 27.511 17.8851 27.593 17.8851 28.2957C17.8851 29.5958 17.8851 30.9075 17.8851 32.2427H13.8092V9.35696ZM21.2699 28.3777V32.2661H18.7401V28.3777H21.2699V28.3777ZM6.07913 27.5227C5.58721 26.5154 5.83317 25.3091 6.7233 24.618C7.02782 24.3721 7.16837 24.1496 7.15665 23.7513C7.13323 23.1072 7.64857 22.6504 8.28103 22.6738C8.87836 22.6855 9.34685 23.1423 9.33513 23.7748C9.32342 24.1496 9.44055 24.3721 9.73335 24.6063C10.3424 25.0631 10.6469 25.7073 10.6469 26.4803C10.6469 27.6398 9.89732 28.5768 8.76123 28.8462C7.68371 29.0687 6.55933 28.5182 6.07913 27.5227ZM34.1417 34.1284H5.85659V33.1563H34.1417V34.1284Z" fill="#3C388D"/>
<path d="M25.1678 12.0272C25.1678 11.8164 25.1678 11.6056 25.1678 11.3948C25.1678 11.6056 25.1678 11.8164 25.1678 12.0272C25.1678 12.1092 25.1678 12.1912 25.1678 12.2732C25.1678 12.1912 25.1678 12.1092 25.1678 12.0272ZM21.3965 11.9921C21.3965 11.8984 21.3965 11.793 21.3965 11.6993C21.3965 11.793 21.3965 11.8867 21.3965 11.9921V12.1561C21.3965 12.1092 21.3965 12.0507 21.3965 11.9921ZM21.3965 16.2905C21.3965 16.1851 21.3965 16.0797 21.3965 15.9743C21.3965 16.0797 21.3965 16.1851 21.3965 16.2905V16.4545C21.3965 16.3959 21.3965 16.3374 21.3965 16.2905Z" fill="#3C388D"/>
<mask id="path-3-inside-1_501_783" fill="white">
<rect x="15" y="11" width="10" height="4" rx="0.2"/>
</mask>
<rect x="15" y="11" width="10" height="4" rx="0.2" stroke="#3C388D" stroke-width="1.6" mask="url(#path-3-inside-1_501_783)"/>
<mask id="path-4-inside-2_501_783" fill="white">
<rect x="15" y="16" width="10" height="4" rx="0.2"/>
</mask>
<rect x="15" y="16" width="10" height="4" rx="0.2" stroke="#3C388D" stroke-width="1.6" mask="url(#path-4-inside-2_501_783)"/>
<mask id="path-5-inside-3_501_783" fill="white">
<rect x="15" y="21" width="10" height="4" rx="0.2"/>
</mask>
<rect x="15" y="21" width="10" height="4" rx="0.2" stroke="#3C388D" stroke-width="1.6" mask="url(#path-5-inside-3_501_783)"/>
</svg>
