<svg width="40" height="40" viewBox="0 0 40 40" fill="none" xmlns="http://www.w3.org/2000/svg">
<g clip-path="url(#clip0_497_278)">
<path d="M33.9871 14.3669C33.9871 12.2834 32.5377 10.8341 30.4543 10.8082C29.4837 10.7953 28.5132 10.7823 27.5426 10.8211C27.025 10.847 26.7274 10.6917 26.5074 10.2C25.8474 8.68593 24.6439 8.01301 23.0134 8.02595C20.7747 8.03889 18.5359 8.06477 16.2842 8.01301C14.4596 7.96125 13.1138 8.63416 12.3891 10.3682C12.2338 10.7305 12.0009 10.8082 11.6386 10.8082C10.6939 10.7823 9.73628 10.7953 8.79161 10.7953C6.39759 10.8082 5 12.1928 5 14.561C5 18.922 5 23.27 5 27.631C5 30.1156 6.39759 31.5003 8.89514 31.5003C12.4279 31.5003 15.9607 31.5003 19.5065 31.5003C23.104 31.5003 26.7015 31.5132 30.3119 31.5003C32.5506 31.4874 34 30.038 34 27.8122C34 23.3347 34 18.8443 33.9871 14.3669ZM32.5895 27.9028C32.5895 29.2874 31.7483 30.1027 30.3637 30.1027C26.7403 30.1156 23.1169 30.1027 19.4935 30.1027C15.909 30.1027 12.3373 30.1027 8.75279 30.1027C7.18697 30.1027 6.38465 29.3133 6.38465 27.7734C6.38465 23.3477 6.38465 18.9349 6.38465 14.5222C6.38465 12.9693 7.17403 12.167 8.72691 12.167C9.93039 12.154 11.1468 12.154 12.3503 12.167C12.8162 12.167 13.1526 12.0246 13.3079 11.5717C13.8902 9.81176 15.1066 9.25531 16.9054 9.37178C18.95 9.50119 20.9946 9.42354 23.0522 9.39766C24.1004 9.38472 24.9027 9.78588 25.2521 10.7564C25.6533 11.8952 26.3391 12.3093 27.5426 12.167C28.4743 12.0634 29.4449 12.1281 30.3896 12.154C31.7871 12.1799 32.6024 12.9952 32.6024 14.3798C32.6024 18.8961 32.6024 23.3994 32.5895 27.9028Z" fill="#3C388D"/>
<path d="M19.5446 14.9363C16.0894 14.9234 13.2942 17.6668 13.2813 21.0961C13.2684 24.5254 16.0118 27.3205 19.441 27.3594C22.8444 27.3982 25.6784 24.603 25.7043 21.1867C25.7302 17.7574 22.9738 14.9493 19.5446 14.9363ZM19.5316 25.9747C16.84 25.9876 14.6789 23.8524 14.6789 21.1478C14.6659 18.495 16.8012 16.3339 19.454 16.308C22.1198 16.2692 24.2938 18.4432 24.3067 21.1349C24.3197 23.7877 22.1845 25.9618 19.5316 25.9747Z" fill="#3C388D"/>
</g>
<defs>
<clipPath id="clip0_497_278">
<rect width="29" height="23.5132" fill="white" transform="translate(5 8)"/>
</clipPath>
</defs>
</svg>
