<svg xmlns="http://www.w3.org/2000/svg" width="40" height="40" viewBox="0 0 40 40" fill="none">
<g clip-path="url(#clip0_501_865)">
<path d="M19.4766 32.5903C17.6414 32.5903 15.8176 32.5903 13.9824 32.5903H19.4766C21.5723 32.5903 23.668 32.5903 25.7637 32.5903C23.668 32.6017 21.5723 32.5903 19.4766 32.5903Z" fill="#ffffff"/>
<path d="M34 10.4664C34 8.34805 32.6633 7 30.5449 7C23.1816 7 15.8297 7 8.46641 7C6.34805 7 5 8.34805 5 10.4777C5 16.6855 5 22.8934 5 29.1012C5 31.2648 6.32539 32.5902 8.48906 32.6016C10.3242 32.6016 12.148 32.6016 13.9832 32.6016H19.4773C21.573 32.6016 23.6688 32.6016 25.7645 32.6016C27.3617 32.6016 28.9703 32.6016 30.5676 32.6016C32.652 32.6016 34 31.2535 34 29.1578C34 22.9273 34 16.6969 34 10.4664ZM5.96289 10.4098C5.98555 8.86914 6.85781 8.0082 8.39844 7.97422C8.48906 7.97422 8.59102 7.97422 8.68164 7.97422C15.8977 7.97422 23.1023 7.97422 30.3184 7.97422C30.5789 7.97422 30.8508 7.97422 31.1113 8.0082C32.0402 8.12148 32.9125 8.85781 32.9691 9.78672C33.0484 11.0555 32.9918 12.3469 32.9918 13.6836H6.01953C5.99687 13.5477 5.95156 13.423 5.95156 13.2984C5.95156 12.3355 5.94023 11.3727 5.96289 10.4098ZM33.0484 28.9766C33.0484 30.7891 32.1875 31.6387 30.3637 31.6387C23.1363 31.6387 15.8977 31.6387 8.67031 31.6387C6.8125 31.6387 5.96289 30.8004 5.95156 28.9539C5.95156 24.4227 5.95156 19.8914 5.95156 15.3602V14.7145H33.0371V15.3262C33.0484 19.8687 33.0484 24.4227 33.0484 28.9766Z" fill="#ffffff"/>
<path d="M20.8376 17.8978C20.5997 19.0532 20.3844 20.0841 20.1692 21.1149C19.7614 23.0521 19.3536 24.9892 18.9458 26.9263C18.8665 27.2774 18.7872 27.6626 18.334 27.572C17.9036 27.4927 17.9149 27.1415 17.9942 26.7564C18.5946 23.9356 19.1836 21.1149 19.7727 18.2829C19.8067 18.1356 19.7954 17.9431 19.886 17.8524C20.0446 17.7052 20.2598 17.5239 20.4524 17.5239C20.5883 17.5353 20.7356 17.7958 20.8376 17.8978Z" fill="#ffffff"/>
<path d="M16.735 24.8644C16.8256 25.2043 16.5537 25.5441 16.2139 25.4875C16.1686 25.4761 16.1233 25.4648 16.1006 25.4422C15.5682 25.057 15.0811 24.6039 14.5827 24.1847C14.1295 23.7882 13.6651 23.4031 13.212 23.0066C12.8041 22.6441 12.7815 22.3722 13.1893 22.0324C14.1295 21.2168 15.0811 20.4125 16.0327 19.6082C16.2932 19.3929 16.5764 19.2797 16.8256 19.5855C17.0748 19.8914 16.8936 20.1406 16.6444 20.3558C15.8514 21.0242 15.0698 21.7039 14.2088 22.4289C14.1635 22.4742 14.1635 22.5422 14.2088 22.5761C14.9338 23.1879 15.6022 23.7656 16.2705 24.332C16.4291 24.4679 16.6444 24.5812 16.7237 24.7511C16.7123 24.7851 16.7237 24.8191 16.735 24.8644Z" fill="#ffffff"/>
<path d="M25.8441 22.9726C24.9038 23.7769 23.9523 24.5812 23.012 25.3968C22.7628 25.6121 22.4796 25.7367 22.2191 25.4421C21.9585 25.1363 22.1398 24.8871 22.389 24.6718C23.114 24.0488 23.839 23.4371 24.598 22.7914C24.7679 22.6441 24.7679 22.3835 24.598 22.2476C23.9749 21.7152 23.3745 21.2054 22.7741 20.6957C22.6269 20.571 22.4343 20.4804 22.355 20.3218C22.3097 20.2085 22.2757 20.0953 22.2644 19.9707C22.2304 19.7667 22.3777 19.5742 22.5929 19.5515C22.7288 19.5402 22.8648 19.5402 22.9554 19.6082C23.4198 19.9253 23.8277 20.3218 24.2581 20.6843C24.7905 21.1375 25.323 21.5906 25.8554 22.0437C26.2066 22.3382 26.2179 22.6554 25.8441 22.9726Z" fill="#ffffff"/>
<path d="M17.8693 9.36758C17.031 9.35625 16.3513 10.0133 16.34 10.8516C16.3287 11.6785 16.997 12.3809 17.824 12.3922C18.6396 12.4148 19.3533 11.7238 19.3646 10.9082C19.3759 10.0926 18.6849 9.39023 17.8693 9.36758ZM17.8466 11.4633C17.5181 11.4633 17.2462 11.1914 17.2462 10.8629C17.2462 10.5344 17.5181 10.2625 17.8466 10.2625C18.1751 10.2625 18.447 10.5344 18.447 10.8629C18.447 11.1914 18.1751 11.4633 17.8466 11.4633Z" fill="#ffffff"/>
<path d="M13.2017 9.36758C12.3521 9.35625 11.6837 10.0133 11.6837 10.8516C11.6724 11.6898 12.3408 12.3695 13.1677 12.3695C13.9947 12.3809 14.6857 11.7125 14.697 10.8742C14.7083 10.0473 14.0287 9.36758 13.2017 9.36758ZM13.1904 11.4859C12.8619 11.4859 12.59 11.2141 12.59 10.8855C12.59 10.557 12.8619 10.2852 13.1904 10.2852C13.5189 10.2852 13.7908 10.557 13.7908 10.8855C13.7794 11.2141 13.5189 11.4859 13.1904 11.4859Z" fill="#ffffff"/>
<path d="M8.51094 9.35635C7.66133 9.35635 7.01562 10.0134 7.01562 10.863C7.01562 11.7013 7.68398 12.3583 8.52226 12.3583C9.36055 12.3583 10.0176 11.6899 10.0176 10.8517C10.0289 10.002 9.36055 9.34502 8.51094 9.35635ZM8.46562 11.452C8.13711 11.452 7.86523 11.1802 7.86523 10.8517C7.86523 10.5231 8.13711 10.2513 8.46562 10.2513C8.79414 10.2513 9.06601 10.5231 9.06601 10.8517C9.06601 11.1802 8.80547 11.452 8.46562 11.452Z" fill="#ffffff"/>
</g>
<defs fill="#000000">
<clipPath id="clip0_501_865" fill="#000000">
<rect width="29" height="25.6016" fill="white" transform="translate(5 7)"/>
</clipPath>
</defs>
</svg>