<svg width="40" height="40" viewBox="0 0 40 40" fill="none" xmlns="http://www.w3.org/2000/svg">
<g clip-path="url(#clip0_501_953)">
<path d="M7.53125 26.7059C7.54205 26.7059 7.55285 26.7059 7.56365 26.6951C7.56365 26.6951 7.55285 26.6951 7.53125 26.7059ZM7.53125 26.7059C7.54205 26.7059 7.55285 26.7059 7.56365 26.6951C7.56365 26.6951 7.55285 26.6951 7.53125 26.7059Z" fill="#3C388D"/>
<path d="M34.1079 26.7168C33.6651 26.7059 33.2223 26.7168 32.812 26.7168C32.8768 26.1534 32.9956 25.6334 32.9956 25.1243C33.0064 20.8776 33.0064 16.6418 33.0064 12.3951C32.9956 10.5426 32.0561 9.6001 30.2095 9.6001H10.1885C8.35267 9.6001 7.40238 10.5534 7.40238 12.4059C7.40238 16.2734 7.39158 20.1301 7.40238 23.9976C7.40238 24.8859 7.47797 25.7743 7.52117 26.7059C7.13241 26.7168 6.73285 26.7059 6.34409 26.7168C5.77176 26.7276 5.56658 26.9334 5.59898 27.5293C5.60978 27.7459 5.64217 27.9626 5.69617 28.1684C6.10652 29.5551 7.26199 30.4001 8.78463 30.4001C15.6203 30.4001 22.4559 30.4001 29.2916 30.4001C30.1339 30.4001 30.987 30.4218 31.8293 30.3893C33.4491 30.3459 34.7882 29.0134 34.799 27.4751C34.8098 26.9551 34.6154 26.7384 34.1079 26.7168ZM8.63344 12.3518C8.63344 11.2359 9.0438 10.8243 10.1669 10.8243C16.8405 10.8243 23.525 10.8243 30.1987 10.8243C31.3542 10.8243 31.7537 11.2251 31.7537 12.3843C31.7537 16.6418 31.7537 20.9101 31.7537 25.1676C31.7537 26.3376 31.365 26.7168 30.1879 26.7168C26.8402 26.7168 23.4926 26.7168 20.145 26.7168C16.8189 26.7168 13.4821 26.7168 10.1561 26.7168C9.0222 26.7168 8.62265 26.3268 8.62265 25.1893C8.63344 20.9101 8.63344 16.6309 8.63344 12.3518ZM7.56436 26.6951C7.56436 26.6951 7.54276 26.7059 7.53196 26.7059C7.55356 26.6951 7.56436 26.6951 7.56436 26.6951ZM32.2613 29.0784C31.9913 29.1543 31.6889 29.1759 31.4081 29.1759C23.9246 29.1759 16.4518 29.1868 8.96821 29.1651C8.53625 29.1651 8.07191 29.0568 7.68315 28.8618C7.38078 28.7101 7.1756 28.3634 6.92723 28.1034C6.95963 28.0601 6.99202 28.0276 7.02442 27.9843H33.4491C33.2115 28.6018 32.8012 28.9268 32.2613 29.0784Z" fill="#3C388D"/>
<path d="M21.6569 14.8325C21.6029 15.2009 21.5273 15.5692 21.4409 15.9375C21.1169 17.4325 20.793 18.9384 20.469 20.4334C20.361 20.9209 20.253 21.4084 20.1558 21.8959C20.1018 22.145 20.0478 22.3942 19.9938 22.6434C19.929 22.925 19.9183 23.3259 19.6699 23.5317C19.4755 23.6942 19.2163 23.6617 19.0219 23.5209C18.8276 23.38 18.7196 23.1417 18.7088 22.9034C18.6872 22.4809 18.8708 22.0692 18.9572 21.6575C19.1191 20.91 19.2811 20.1517 19.4431 19.4042C19.7671 17.8984 20.0802 16.4034 20.4042 14.8975C20.415 14.8542 20.4258 14.8109 20.4366 14.7675C20.5014 14.475 20.5878 14.1392 20.8469 13.9875C21.1061 13.825 21.5057 13.9442 21.6353 14.2259C21.7217 14.41 21.7001 14.6267 21.6677 14.8325C21.6569 14.8217 21.6569 14.8325 21.6569 14.8325Z" fill="#3C388D"/>
<path d="M16.3335 20.7151C16.4739 20.9101 16.5818 21.1268 16.5386 21.3543C16.5063 21.5168 16.3875 21.6359 16.2471 21.7226C16.1391 21.7876 16.0095 21.8418 15.8907 21.8309C15.6423 21.8093 15.4588 21.5926 15.3076 21.3868C14.7784 20.6718 14.2493 19.9676 13.7202 19.2526C13.4934 18.9384 13.4178 18.6676 13.6662 18.3426C14.1845 17.6493 14.7136 16.9559 15.232 16.2518C15.3508 16.0893 15.4804 15.9268 15.6531 15.8401C15.9447 15.6884 16.3443 15.7859 16.5278 16.0568C16.7546 16.3818 16.3875 16.7501 16.2039 16.9993C15.8691 17.4651 15.5128 17.9309 15.1564 18.3859C15.0592 18.5159 14.9512 18.6676 14.9728 18.8193C14.9836 18.9059 15.0484 18.9818 15.1024 19.0576C15.4912 19.5776 15.8799 20.0868 16.2687 20.6068C16.2795 20.6501 16.3119 20.6826 16.3335 20.7151Z" fill="#3C388D"/>
<path d="M26.8626 18.9709C26.3658 19.7075 25.8583 20.4334 25.3075 21.1267C25.1564 21.3109 25.0052 21.5059 24.8 21.625C24.5948 21.7442 24.3356 21.7984 24.1089 21.7009C23.9145 21.6034 23.8173 21.3975 23.8389 21.1917C23.8713 20.9425 24.0009 20.8234 24.1413 20.6392C24.2709 20.4659 24.4004 20.2925 24.5192 20.1192C24.7784 19.7725 25.0376 19.415 25.2967 19.0684C25.3615 18.9817 25.4155 18.895 25.4263 18.7975C25.4263 18.6892 25.3615 18.5917 25.2967 18.505C24.8864 17.9417 24.476 17.3784 24.0657 16.8259C23.9577 16.6742 23.8389 16.5117 23.8389 16.3167C23.8497 16.1109 23.9901 15.9375 24.1629 15.84C24.3032 15.7534 24.476 15.6992 24.6272 15.7425C24.8 15.7967 24.9188 15.9484 25.0268 16.0892C25.6531 16.9342 26.2794 17.7792 26.9058 18.6134C26.9382 18.6567 26.9814 18.7109 26.9706 18.7759C26.9706 18.8192 26.9382 18.8517 26.9166 18.8842C26.9166 18.9059 26.8842 18.9384 26.8626 18.9709Z" fill="#3C388D"/>
</g>
<defs>
<clipPath id="clip0_501_953">
<rect width="29.2" height="20.8" fill="white" transform="translate(5.59961 9.6001)"/>
</clipPath>
</defs>
</svg>
