<svg width="40" height="40" viewBox="0 0 40 40" fill="none" xmlns="http://www.w3.org/2000/svg">
<g clip-path="url(#clip0_501_915)">
<path d="M30.7002 17.0499C30.7002 16.2354 30.4934 16.0414 29.653 16.0285C29.097 16.0285 28.554 16.0285 27.9334 16.0285C28.0368 13.8564 28.1144 11.7619 25.7355 10.7534C26.8991 8.76233 26.7698 7.09447 25.4122 5.87913C24.171 4.76723 22.3222 4.70258 21.0163 5.71105C20.357 6.21529 19.9174 6.87467 19.7493 7.68921C19.5166 8.80111 19.7881 9.82251 20.5121 10.7276C18.8443 11.5162 18.1719 12.8221 18.2754 14.5675C18.3012 15.0329 18.2754 15.4984 18.2754 15.9638H14.151C14.2156 14.296 13.595 12.4859 15.6378 11.4774C15.6896 11.5162 15.8188 11.5938 15.9481 11.6584C16.7627 12.0722 17.7065 11.93 18.34 11.3094C18.9735 10.7017 19.1416 9.70615 18.7537 8.91747C18.3788 8.14173 17.4996 7.66335 16.6851 7.76678C15.7542 7.88315 14.9914 8.51667 14.9009 9.44757C14.8362 10.0682 14.5389 10.469 14.1381 10.8698C13.8278 11.1671 13.5562 11.5162 13.2459 11.8007C12.8581 12.1498 12.7288 12.5635 12.7417 13.0677C12.7676 14.0245 12.7546 14.9942 12.7546 16.0285C12.147 16.0285 11.6169 16.0285 11.0868 16.0285C10.2076 16.0285 10.0137 16.2224 10.0137 17.0757C10.0137 17.6317 10.0137 18.2006 10.0137 18.7565C10.0137 20.0882 10.0137 20.0882 11.3066 20.1917C11.3454 20.1917 11.3842 20.2305 11.4747 20.2951C11.8755 24.329 12.2892 28.3887 12.7029 32.5131C12.4443 32.5519 12.147 32.5131 11.966 32.6424C11.7332 32.7976 11.4747 33.0949 11.4747 33.3406C11.4747 33.5474 11.785 33.7931 12.0048 33.9482C12.1211 34.0258 12.3409 33.9741 12.509 33.9741H28.2179C28.373 33.9741 28.5669 34.0258 28.6574 33.9612C28.9031 33.7802 29.2651 33.5345 29.278 33.3018C29.278 33.0691 28.9419 32.7976 28.6962 32.6165C28.554 32.5131 28.2954 32.5519 28.0498 32.526C28.4635 28.3887 28.8772 24.3031 29.278 20.2046C29.4461 20.1787 29.5496 20.1658 29.653 20.1658C30.5968 20.127 30.7132 19.9977 30.7132 19.041C30.7002 18.3816 30.7002 17.7222 30.7002 17.0499ZM16.9437 9.09848C17.3315 9.09848 17.6548 9.42171 17.6548 9.80958C17.6548 10.1975 17.3315 10.5207 16.9437 10.5207C16.5429 10.5207 16.2326 10.1975 16.2326 9.80958C16.2326 9.42171 16.5429 9.09848 16.9437 9.09848ZM23.1367 6.3963C24.2745 6.40923 25.1666 7.31426 25.1666 8.46496C25.1537 9.60272 24.2357 10.5207 23.1109 10.5207C21.9731 10.5207 21.0034 9.53807 21.0422 8.40031C21.0681 7.27548 21.999 6.38337 23.1367 6.3963ZM19.7234 13.5332C19.8269 12.6152 20.6802 11.9429 21.7016 11.9041C22.6325 11.8653 23.5504 11.8653 24.4813 11.9041C25.7096 11.9558 26.5241 12.8091 26.55 14.0245C26.5629 14.6709 26.55 15.3045 26.55 15.9897H19.7105C19.7105 15.1493 19.6459 14.3348 19.7234 13.5332ZM27.5585 23.2429C27.2611 26.1778 26.9637 29.1128 26.6793 32.0477C26.6405 32.4485 26.5112 32.5907 26.0975 32.5907C22.2705 32.5778 18.4305 32.5778 14.6035 32.5907C14.2544 32.5907 14.0605 32.539 14.0217 32.1252C13.6468 28.2724 13.2589 24.4195 12.871 20.5666C12.8581 20.4632 12.8839 20.3597 12.8839 20.2175H27.8558C27.7524 21.2389 27.6619 22.2474 27.5585 23.2429ZM29.2651 18.7695H11.4229V17.4636H29.2651V18.7695Z" fill="#3C388D"/>
</g>
<defs>
<clipPath id="clip0_501_915">
<rect width="20.6995" height="29" fill="white" transform="translate(10 5)"/>
</clipPath>
</defs>
</svg>
