<svg xmlns="http://www.w3.org/2000/svg" width="40" height="40" viewBox="0 0 40 40" fill="none">
<g clip-path="url(#clip0_501_883)">
<path d="M33.5073 27.1537C33.519 26.5568 33.2615 26.2057 32.6763 26.0653C32.255 25.9717 32.0678 25.5035 32.3019 25.1407C32.6295 24.6258 32.5593 24.1694 32.1146 23.7949C31.7986 23.5257 31.7167 23.2215 31.7284 22.8235C31.7518 21.3022 31.7401 19.7808 31.7401 18.2594C31.7401 17.3817 31.2837 16.9369 30.406 16.9135C30.1836 16.9135 29.9496 16.9135 29.7389 16.9135C29.7155 16.8082 29.6921 16.7731 29.6921 16.738C29.8091 15.439 29.9144 14.1399 30.0315 12.8292C30.1368 11.6472 30.2538 10.4652 30.3475 9.27149C30.4177 8.40547 28.6622 6.35744 27.7845 6.26382C26.8366 6.1702 25.8769 6.09998 24.929 6.01806C21.2425 5.69037 17.5795 5.3861 13.9048 5.03501C12.3015 4.88287 11.8567 5.21055 11.728 6.80216C11.7163 6.89578 11.7163 7.00111 11.7046 7.09473C11.4237 10.2428 11.1429 13.3792 10.8503 16.6327C9.91404 16.6327 9.02462 16.621 8.12349 16.6327C7.36279 16.6444 7.0117 17.0072 7.0117 17.7562C7 21.782 7 25.7961 7 29.8102C7 30.8869 7.51493 31.5306 8.5682 31.7646C9.11824 31.8817 9.69169 31.9402 10.2534 31.9402C14.1154 31.9519 17.9774 31.9636 21.8394 31.9285C22.4362 31.9285 22.8692 32.0689 23.2671 32.5253C23.747 33.0754 24.0864 33.0871 24.7066 32.736C24.9875 32.5838 25.5024 32.7711 25.6077 33.052C25.9354 33.9531 25.9939 33.9882 26.9419 33.9882C27.2579 33.9882 27.5621 33.9765 27.8781 33.9882C28.4633 33.9999 28.8378 33.7541 28.9782 33.1573C29.0835 32.7243 29.5634 32.537 29.9379 32.7711C30.406 33.052 30.8273 33.0169 31.2135 32.6424C31.5529 32.3147 31.8805 31.987 32.2082 31.6476C32.5593 31.2731 32.6178 30.8752 32.337 30.4188C32.0678 29.9741 32.255 29.5528 32.7817 29.4123C33.2264 29.2953 33.4956 29.0144 33.5073 28.5463C33.519 28.0782 33.4956 27.6218 33.5073 27.1537ZM27.6324 7.24687C28.2409 7.80861 28.8027 8.32355 29.3644 8.83848C29.3527 8.88529 29.341 8.9321 29.3176 8.96721C28.7324 8.9204 28.159 8.87359 27.4919 8.81507C27.5387 8.28844 27.5856 7.7735 27.6324 7.24687ZM11.7514 17.1125C12.0557 13.7537 12.36 10.395 12.6642 7.03622C12.6759 6.83727 12.7111 6.65002 12.7228 6.45107C12.7345 6.02976 12.9451 5.87762 13.3664 5.91273C17.755 6.31063 22.1437 6.70853 26.5323 7.10643C26.5674 7.10643 26.6025 7.14154 26.6961 7.18836C26.661 7.64477 26.6025 8.08949 26.5791 8.5342C26.5323 9.42363 26.778 9.7045 27.6558 9.76301C28.159 9.79812 28.6622 9.85664 29.1655 9.90345C29.2006 9.90345 29.2357 9.93856 29.3293 9.99707C29.1303 12.2675 28.9197 14.5612 28.7207 16.8901C26.8015 16.8901 24.9524 16.9252 23.1033 16.8784C22.2958 16.855 21.7809 17.1359 21.4298 17.8615C21.1021 18.5403 20.7159 19.2073 20.318 19.851C20.2127 20.0148 19.9786 20.2021 19.7914 20.2021C17.0763 20.2255 14.3729 20.2138 11.6578 20.2021C11.6227 20.2021 11.5876 20.1787 11.4822 20.1436C11.5759 19.1488 11.6578 18.1306 11.7514 17.1125ZM9.22357 21.7703V30.8869C8.33414 30.8869 7.93624 30.5709 7.93624 29.8102C7.93624 25.8312 7.93624 21.8639 7.94794 17.8966C7.94794 17.8264 7.97135 17.7445 7.98305 17.6274H10.7684C10.6864 18.5168 10.6045 19.3478 10.5226 20.167C9.3523 20.401 9.22357 20.5532 9.22357 21.7703ZM22.2607 30.4539C22.0851 31.0039 21.7341 31.0039 21.2893 31.0039C17.837 30.9922 14.3846 31.0039 10.9322 31.0039H10.2066V21.1968C10.429 21.1851 10.6513 21.1734 10.8737 21.1734C13.9165 21.1734 16.9592 21.1617 20.002 21.1851C20.4935 21.1851 20.7978 21.0447 21.0202 20.6C21.4181 19.8159 21.8862 19.0786 22.2841 18.2945C22.4479 17.9785 22.6469 17.8498 23.0097 17.8498C25.4088 17.8732 27.8079 17.8732 30.207 17.8498C30.6751 17.8498 30.8156 17.9902 30.8039 18.4583C30.7805 19.8042 30.7922 21.15 30.7922 22.4608C30.4528 22.5778 30.1719 22.6597 29.9144 22.7767C29.5282 22.964 29.0601 22.8001 28.9782 22.3905C28.8495 21.782 28.4867 21.5479 27.9015 21.5479C27.4685 21.5596 27.0472 21.5479 26.6142 21.5479C26.0759 21.5479 25.7365 21.7937 25.6195 22.3437C25.5258 22.7884 25.046 22.9991 24.6715 22.7533C24.18 22.4373 23.7587 22.4959 23.3608 22.8938C23.0331 23.2214 22.6937 23.5491 22.3777 23.8885C22.0383 24.2396 22.0266 24.6492 22.2607 25.0705C22.5299 25.5386 22.366 25.9365 21.8394 26.0887C21.3479 26.2291 21.0904 26.5451 21.0904 27.06C21.0904 27.5281 21.0904 27.9963 21.0904 28.4644C21.0904 28.9793 21.3479 29.2953 21.8511 29.424C22.3309 29.5645 22.4245 29.9624 22.2607 30.4539ZM32.5125 28.441C31.389 28.6633 30.8039 30.0794 31.5061 31.0039C31.1667 31.3082 30.8273 31.6242 30.4411 31.9753C30.0549 31.3199 29.5517 31.6125 29.0016 31.87C28.4984 32.104 27.8313 32.1391 28.0771 33.0169H26.778C26.5089 32.6307 26.345 32.1508 26.0876 32.104C25.4439 31.9636 24.7885 30.9454 24.1098 32.0338C23.747 31.6593 23.431 31.3199 23.0682 30.9337C23.747 30.5475 23.4427 30.0326 23.1852 29.4825C22.9512 28.9793 22.9044 28.3122 22.0383 28.5463V27.0249C22.8224 27.2239 22.9863 26.6504 23.1852 26.077C23.3608 25.562 23.8874 25.0471 22.9629 24.6141C23.3959 24.2396 23.7587 23.9353 24.1332 23.6076C24.9992 24.2396 26.4036 23.6896 26.6142 22.5193H27.9717C28.2058 23.6896 29.5985 24.2513 30.5347 23.5374C30.8507 23.8651 31.1667 24.2045 31.5412 24.5907C30.8975 24.9886 31.073 25.4801 31.3656 26.0185C31.6231 26.4866 31.5997 27.2122 32.5125 26.9781V28.441V28.441Z" fill="#ffffff"/>
<path d="M27.2928 24.7312C25.6076 24.7312 24.2384 26.1005 24.2501 27.774C24.2618 29.4124 25.6193 30.7934 27.2694 30.8051C28.943 30.8285 30.3239 29.4475 30.3356 27.774C30.3239 26.0887 28.9781 24.7312 27.2928 24.7312ZM27.2577 29.8688C26.1226 29.8454 25.1746 28.8975 25.1746 27.7623C25.1746 26.592 26.1226 25.6557 27.3046 25.6674C28.4631 25.6791 29.376 26.6037 29.376 27.7506C29.3877 28.9326 28.4163 29.8922 27.2577 29.8688Z" fill="#ffffff"/>
</g>
<defs fill="#000000">
<clipPath id="clip0_501_883" fill="#000000">
<rect width="26.5073" height="29" fill="white" transform="translate(7 5)"/>
</clipPath>
</defs>
</svg>