<svg xmlns="http://www.w3.org/2000/svg" width="40" height="40" viewBox="0 0 40 40" fill="none">
<g clip-path="url(#clip0_172_145)">
<path d="M31.1884 7.45808C31.1884 6.51868 31.0693 6.3999 30.1274 6.3999C23.5122 6.3999 16.8862 6.3999 10.2711 6.3999C9.30749 6.3999 9.19922 6.50788 9.19922 7.50127C9.19922 11.6044 9.19922 15.7076 9.19922 19.8107C9.19922 23.9462 9.19922 28.0818 9.19922 32.2281C9.19922 33.0595 9.33997 33.1999 10.1845 33.1999C15.2406 33.1999 20.2858 33.1999 25.3419 33.2107C25.775 33.2107 26.089 33.0919 26.3921 32.7788C27.8213 31.3319 29.2612 29.885 30.7228 28.4705C31.0801 28.125 31.21 27.7578 31.21 27.2827C31.1884 20.6637 31.1884 14.0555 31.1884 7.45808ZM26.2947 30.9864C26.2947 30.1441 26.2839 29.3451 26.3055 28.5461C26.3055 28.4705 26.4896 28.3409 26.5978 28.3301C27.3665 28.3085 28.1352 28.3193 28.9039 28.3193C28.0378 29.2155 27.2041 30.0686 26.2947 30.9864ZM29.9325 27.0992H27.9187C27.2474 27.0992 26.587 27.0884 25.9158 27.0992C25.277 27.11 25.0713 27.3151 25.0713 27.9414C25.0604 29.2587 25.0713 30.5653 25.0713 31.9258H10.4768V7.66324H29.9217V27.0992H29.9325Z" fill="#ffffff"/>
</g>
<defs fill="#000000">
<clipPath id="clip0_172_145" fill="#000000">
<rect width="22" height="26.8" fill="white" transform="translate(9.19922 6.3999)"/>
</clipPath>
</defs>
</svg>