<svg width="40" height="40" viewBox="0 0 40 40" fill="none" xmlns="http://www.w3.org/2000/svg">
<g clip-path="url(#clip0_503_995)">
<path d="M20.5453 12.3044C20.5453 11.835 20.1648 11.4544 19.6953 11.4544C19.2259 11.4544 18.8453 11.835 18.8453 12.3044L20.5453 12.3044ZM19.0943 25.9055C19.4262 26.2374 19.9644 26.2374 20.2964 25.9055L25.7057 20.4961C26.0377 20.1642 26.0377 19.626 25.7057 19.294C25.3738 18.9621 24.8356 18.9621 24.5036 19.294L19.6953 24.1024L14.887 19.294C14.555 18.9621 14.0168 18.9621 13.6849 19.294C13.353 19.626 13.353 20.1642 13.6849 20.4961L19.0943 25.9055ZM18.8453 12.3044L18.8453 25.3044L20.5453 25.3044L20.5453 12.3044L18.8453 12.3044Z" fill="#3C388D"/>
</g>
<defs>
<clipPath id="clip0_503_995">
<rect width="32.3909" height="29" fill="white" transform="translate(34.6953 3.30444) rotate(90)"/>
</clipPath>
</defs>
</svg>
