<svg width="40" height="40" viewBox="0 0 40 40" fill="none" xmlns="http://www.w3.org/2000/svg">
<g clip-path="url(#clip0_172_180)">
<path d="M33.676 12.9931C34.0213 12.6536 34.1508 12.3031 33.7732 11.9088C31.777 9.8826 29.7809 7.85637 27.7847 5.83015C27.4502 5.49062 27.1157 5.53443 26.792 5.86301C26.4791 6.19158 26.1662 6.52016 25.8425 6.83778C24.5153 8.15209 23.1882 9.45545 21.8179 10.8136C21.7639 10.7588 21.6776 10.6931 21.6021 10.6164C20.6202 9.6745 19.6706 9.66355 18.7211 10.6274C15.1712 14.2308 11.6213 17.8123 8.093 21.4376C4.84522 24.7562 5.6113 30.0682 8.80514 32.3901C11.3732 34.2521 14.0491 34.5478 16.8545 33.0801C17.4371 32.7735 17.9766 32.3354 18.4406 31.8753C21.9905 28.3048 25.5188 24.7124 29.0471 21.1199C29.9751 20.178 29.9751 19.1813 29.0795 18.2285C28.9824 18.1299 28.9069 18.0094 28.745 17.8123C28.9285 17.6699 29.1011 17.5713 29.2414 17.4289C30.7304 15.9503 32.1978 14.4608 33.676 12.9931ZM28.1732 20.2437C24.6556 23.8252 21.2676 27.5381 17.6098 30.9663C16.2826 32.2039 14.9554 32.7625 13.0564 32.7954C10.6718 32.653 8.72961 31.4482 7.71535 28.9948C6.71188 26.5634 7.1219 24.2524 8.93462 22.3685C12.4414 18.6994 16.0344 15.107 19.5951 11.5036C20.0375 11.0545 20.2857 11.0545 20.7389 11.5036C23.2206 14.0117 25.7022 16.5308 28.1732 19.0499C28.6479 19.5318 28.6479 19.7618 28.1732 20.2437ZM27.9789 16.9251C26.2525 15.1727 24.5477 13.4531 22.7997 11.6679C24.3103 10.1893 25.8317 8.71067 27.2992 7.27589C28.9608 8.96258 30.6764 10.704 32.2949 12.3579C30.8814 13.8584 29.4032 15.4136 27.9789 16.9251Z" fill="#3C388D"/>
<path d="M13.6287 24.1429C12.4526 24.132 11.4923 25.0958 11.4923 26.2787C11.4815 27.4725 12.431 28.4473 13.6071 28.4582C14.7832 28.4692 15.7327 27.5054 15.7435 26.3115C15.7435 25.1177 14.8048 24.1539 13.6287 24.1429ZM13.5963 27.2096C13.0892 27.1987 12.7115 26.8153 12.7115 26.3006C12.7115 25.7639 13.1108 25.3806 13.6503 25.3915C14.1574 25.4134 14.5135 25.8077 14.5027 26.3225C14.4919 26.8372 14.1035 27.2096 13.5963 27.2096Z" fill="#3C388D"/>
<path d="M27.7952 10.6163C27.4715 10.923 27.0723 11.3063 26.673 11.6897C26.2954 11.2954 25.9177 10.912 25.5293 10.5177C25.8962 10.1453 26.2846 9.77295 26.673 9.37866C27.0291 9.79486 27.4068 10.2001 27.7952 10.6163Z" fill="#3C388D"/>
<path d="M30.2984 13.0479C29.9099 13.4312 29.5215 13.7927 29.1115 14.187C28.7554 13.8146 28.3885 13.4093 27.9785 12.9822C28.3562 12.6317 28.7662 12.2703 29.1978 11.876C29.5107 12.2155 29.8776 12.6098 30.2984 13.0479Z" fill="#3C388D"/>
</g>
<defs>
<clipPath id="clip0_172_180">
<rect width="28" height="28.4" fill="white" transform="translate(6 5.6001)"/>
</clipPath>
</defs>
</svg>
