<svg width="40" height="40" viewBox="0 0 40 40" fill="none" xmlns="http://www.w3.org/2000/svg">
<g clip-path="url(#clip0_501_895)">
<path d="M33.0949 9H5.89287C5.03669 9 5 9.02446 5 9.9051C5 16.0818 5 22.2585 5 28.4353C5 29.3037 5.03669 29.3281 5.89287 29.3281H33.1071C33.9633 29.3281 34 29.2914 34 28.423C34 22.2463 34 16.0696 34 9.89287C33.9878 9.03669 33.9633 9 33.0949 9ZM31.3458 21.0599C31.9085 21.0721 32.4711 21.0599 33.0949 21.0599V24.3134C31.0401 24.5091 29.3155 23.9464 28.0801 22.283C26.7714 20.5217 26.6246 18.5892 27.6765 16.6567C28.814 14.5774 30.6976 13.8068 33.0704 13.9781V17.256C32.4956 17.256 31.9329 17.2438 31.3581 17.256C30.1105 17.2805 29.2666 18.0633 29.2788 19.1763C29.3032 20.2771 30.135 21.0354 31.3458 21.0599ZM33.0949 20.1915C32.41 20.1915 31.7984 20.2159 31.1868 20.1915C30.5508 20.167 30.135 19.7022 30.1472 19.1396C30.1717 18.5892 30.5753 18.1733 31.1746 18.1489C31.7984 18.1244 32.4222 18.1489 33.0827 18.1489V20.1915H33.0949ZM5.86841 24.2644C5.86841 23.3226 5.86841 22.4053 5.86841 21.488C5.86841 21.3657 5.89287 21.2556 5.91733 21.0232C6.63897 21.0232 7.34838 21.0721 8.05778 21.011C8.91396 20.9376 9.54998 20.2893 9.68452 19.4332C9.80683 18.6748 9.41544 17.8309 8.6938 17.5006C8.35133 17.3416 7.9477 17.2927 7.56854 17.2682C7.03037 17.2315 6.47997 17.256 5.89287 17.256V14.0515C7.81316 13.6478 9.92914 14.5652 11.0666 16.2531C12.2408 17.9899 12.2531 20.2649 11.1033 22.0139C9.9903 23.7385 7.89878 24.6558 5.86841 24.2644ZM5.9051 20.167V18.1611C6.62674 18.1611 7.31168 18.1244 7.98439 18.1733C8.4981 18.21 8.87727 18.6993 8.84057 19.1885C8.80388 19.7022 8.5348 20.1059 7.99663 20.1548C7.31168 20.2159 6.62674 20.167 5.9051 20.167ZM19.0291 28.423H5.89287V25.2185C8.20455 25.3408 10.1738 24.6681 11.6048 22.7967C12.4732 21.6592 12.8768 20.3505 12.8157 18.9072C12.7423 17.1215 11.9962 15.6537 10.6385 14.504C9.29312 13.3543 7.69085 13.024 5.89287 13.1097V9.89287H19.0169V15.7883C17.2311 16.2653 16.1181 17.3539 16.1548 19.3108C16.1792 20.9009 17.121 21.9038 19.0291 22.5399V28.423ZM19.0413 21.5491C17.9405 21.4513 17.0844 20.485 17.011 19.3108C16.9376 18.051 17.7448 17.0114 19.0413 16.7545V21.5491V21.5491ZM33.1071 28.4108H19.9709V22.5276C20.1421 22.4787 20.3134 22.4175 20.4724 22.3686C21.9156 21.9161 22.8452 20.6563 22.8574 19.1763C22.8574 17.6963 21.9401 16.3876 20.4968 15.9717C20.0321 15.8372 19.9097 15.6293 19.922 15.1767C19.9464 13.4277 19.9342 11.6786 19.9342 9.89287H33.0949V13.0974C30.8566 12.9751 28.9241 13.6111 27.493 15.3846C26.5879 16.5099 26.1476 17.7942 26.1843 19.2375C26.221 21.0477 26.9304 22.5521 28.2881 23.7385C29.6579 24.9372 31.2847 25.2919 33.1194 25.2062V28.4108H33.1071ZM19.9587 21.5858V16.7912C21.0105 16.8402 21.879 17.7819 21.9768 18.9439C22.0869 20.2282 21.3041 21.2923 19.9587 21.5858Z" fill="#3C388D"/>
</g>
<defs>
<clipPath id="clip0_501_895">
<rect width="29" height="20.3281" fill="white" transform="translate(5 9)"/>
</clipPath>
</defs>
</svg>
