<svg width="40" height="40" viewBox="0 0 40 40" fill="none" xmlns="http://www.w3.org/2000/svg">
<g clip-path="url(#clip0_501_824)">
<path d="M34.0006 24.8316C33.8534 22.498 33.4795 20.2437 32.8338 18.0234C32.3354 16.3355 31.7237 14.7156 30.6588 13.2882C29.3108 11.4984 27.5776 10.6827 25.3459 11.1132C24.0772 11.3624 22.8084 11.657 21.551 11.9628C20.2709 12.28 19.0022 12.3706 17.6994 12.0535C16.4194 11.7363 15.1393 11.4531 13.8479 11.1812C11.6502 10.6941 9.79242 11.2718 8.38773 13.0843C7.96859 13.6394 7.57211 14.2171 7.26625 14.8402C5.75961 17.8874 5.09125 21.1613 5.00062 24.5371C4.96664 25.7038 5.12523 26.916 5.43109 28.0374C5.87289 29.6121 7.15297 30.2578 8.72758 29.8726C9.27133 29.748 9.83773 29.5554 10.2909 29.2496C11.4237 28.4792 12.4998 27.6296 13.61 26.8253C14.2897 26.3382 14.9354 25.6812 15.7057 25.432C19.2174 24.3105 22.5819 24.2992 25.5045 27.0406C26.7506 28.2074 28.1213 29.2609 29.7979 29.782C31.5764 30.3371 32.9244 29.6914 33.4682 27.9128C33.7627 26.9499 33.9553 25.9984 34.0006 24.9222C34.0006 24.8996 34.0006 24.8656 34.0006 24.8316ZM32.5166 25.8285C32.4826 26.3835 32.3694 26.9499 32.2108 27.4824C31.8823 28.5585 31.2592 28.8984 30.183 28.5585C29.6733 28.3999 29.1522 28.1734 28.7104 27.8788C27.9061 27.3351 27.0678 26.7913 26.3768 26.1117C24.7795 24.5257 22.8877 23.6648 20.6674 23.4835C18.2998 23.291 15.9889 23.5288 13.9498 24.8656C12.9756 25.4999 12.1827 26.3835 11.2198 27.0406C10.3815 27.6183 9.4639 28.1281 8.52367 28.5132C7.60609 28.8757 6.98304 28.4792 6.65453 27.5277C6.57523 27.3124 6.49594 27.0972 6.47328 26.882C6.39398 26.2363 6.34867 25.5906 6.30336 25.0808C6.30336 25.0468 6.30336 25.0128 6.30336 24.9675C6.43929 21.5351 7.01703 18.3745 8.46703 15.4179C8.68226 14.9874 8.95414 14.5683 9.23734 14.1718C10.3022 12.7105 11.7295 12.0988 13.5194 12.4499C14.6409 12.6652 15.7623 12.9144 16.8725 13.2089C18.583 13.662 20.2823 13.662 21.9928 13.2089C23.1369 12.9031 24.2924 12.6652 25.4592 12.4499C27.2037 12.1327 28.5971 12.7671 29.628 14.1945C30.6475 15.5878 31.2252 17.1624 31.6557 18.805C32.2674 21.1046 32.6526 23.4382 32.5166 25.8285Z" fill="#3C388D"/>
<path d="M15.332 16.6413C14.9355 16.5167 14.7883 16.3128 14.675 15.9389C14.4031 15.1233 13.6215 14.6135 12.7719 14.6022C11.8203 14.5909 11.0273 15.1573 10.7441 16.0862C10.6535 16.3694 10.5402 16.5053 10.2457 16.5846C9.30547 16.8452 8.70508 17.6608 8.70508 18.5784C8.70508 19.5299 9.32812 20.3229 10.2684 20.6288C10.4383 20.6854 10.6422 20.8667 10.6988 21.0366C11.0273 21.9768 11.7523 22.5659 12.6926 22.5772C13.6328 22.5885 14.3918 22.0221 14.743 21.0932C14.8109 20.912 14.9922 20.6854 15.1734 20.6288C16.0684 20.3342 16.6914 19.5753 16.7141 18.6803C16.748 17.7514 16.2383 16.9358 15.332 16.6413ZM14.641 19.3487C13.5648 19.4393 13.5535 19.4393 13.4855 20.4815C13.4516 20.9573 13.2137 21.2178 12.7605 21.2518C12.3301 21.2858 12.0242 20.946 11.9902 20.4589C11.9223 19.4053 11.8996 19.3827 10.8574 19.3034C10.4043 19.2694 10.0871 19.0882 10.0645 18.601C10.0418 18.1026 10.359 17.91 10.7895 17.8421C11.8883 17.6835 11.8883 17.6835 11.9902 16.63C12.0355 16.1655 12.2961 15.8936 12.7605 15.8936C13.191 15.8936 13.4402 16.1655 13.4855 16.596C13.4969 16.6866 13.4969 16.7885 13.4969 16.8792C13.5309 17.6268 13.7121 17.7967 14.4484 17.8194C15.1168 17.8421 15.434 18.08 15.4453 18.5671C15.434 19.0089 15.1394 19.3034 14.641 19.3487Z" fill="#3C388D"/>
<path d="M26.9549 21.1725C26.9436 21.8522 26.3432 22.4186 25.6749 22.4073C24.9952 22.3959 24.4174 21.7955 24.4401 21.1272C24.4514 20.4362 25.0292 19.8924 25.7315 19.9037C26.4225 19.9151 26.9776 20.4815 26.9549 21.1725Z" fill="#3C388D"/>
<path d="M26.955 16.0637C26.9436 16.7434 26.3546 17.3098 25.6749 17.2985C24.9952 17.2871 24.4174 16.6867 24.4401 16.0184C24.4514 15.3387 25.0518 14.7723 25.7315 14.7836C26.3999 14.7836 26.9776 15.384 26.955 16.0637Z" fill="#3C388D"/>
<path d="M24.3941 18.5784C24.3941 19.2694 23.8391 19.8245 23.1367 19.8245C22.4344 19.8245 21.8906 19.292 21.8906 18.5897C21.8906 17.8874 22.4344 17.3323 23.1367 17.3323C23.8277 17.3323 24.3941 17.8987 24.3941 18.5784Z" fill="#3C388D"/>
<path d="M29.5035 18.601C29.5035 19.3033 28.9598 19.8471 28.2461 19.8358C27.4984 19.8358 26.9207 19.1901 27.0113 18.4311C27.0793 17.8533 27.5551 17.4002 28.1328 17.3436C28.8918 17.2756 29.5035 17.8533 29.5035 18.601Z" fill="#3C388D"/>
</g>
<defs>
<clipPath id="clip0_501_824">
<rect width="29" height="18.9746" fill="white" transform="translate(5 11)"/>
</clipPath>
</defs>
</svg>
