<svg xmlns="http://www.w3.org/2000/svg" width="40" height="40" viewBox="0 0 40 40" fill="none">
<g clip-path="url(#clip0_172_172)">
<path d="M20.2329 6.00001C12.3852 5.98925 6.03287 12.2091 6.00013 19.9462C5.96738 27.6941 12.3088 33.9892 20.1674 34.0108C28.026 34.0323 34.4001 27.7694 34.4001 20.0108C34.411 12.2736 28.0696 6.01077 20.2329 6.00001ZM19.578 7.33437V13.3605C18.0827 13.1991 16.6529 13.0377 15.2339 12.887C15.3104 10.8424 17.7552 7.71101 19.578 7.33437ZM16.5001 7.80785C15.2449 9.21754 14.5027 10.7994 13.8914 12.5642C12.8218 12.1768 11.7849 11.8002 10.7044 11.4128C11.7194 9.98157 14.6446 8.16297 16.5001 7.80785ZM7.45178 17.6649C7.79013 15.8463 8.5105 14.1676 9.60197 12.661C9.7002 12.5319 9.97307 12.3813 10.0822 12.4243C11.2173 12.8547 12.3306 13.3175 13.4003 13.7479C13.2038 15.5127 13.0183 17.2667 12.8 19.0208C12.7781 19.1499 12.5817 19.3651 12.4616 19.3651C10.7589 19.3866 9.04532 19.3759 7.22257 19.3759C7.30989 18.7733 7.34263 18.2137 7.45178 17.6649ZM9.82027 27.651C8.27038 25.6172 7.40812 23.3036 7.2444 20.6672H12.6908C12.9419 22.5504 13.182 24.3905 13.433 26.2521C12.3088 26.6933 11.0973 27.156 9.82027 27.651ZM10.628 28.6088C11.6976 28.2214 12.6472 27.877 13.5967 27.565C13.695 27.5327 13.9351 27.6295 13.9678 27.7156C14.5463 29.319 15.2885 30.8255 16.3909 32.1706C14.1752 31.5465 12.3197 30.3736 10.628 28.6088ZM19.5452 32.6118C17.8207 32.5796 15.7251 29.5127 15.1794 27.113C16.6201 26.9516 18.039 26.7902 19.5452 26.6288V32.6118ZM19.5671 25.402C17.908 25.5849 16.3691 25.7571 14.7646 25.9401C14.3062 24.2506 14.077 22.4966 14.0661 20.6349H16.2818C17.2204 20.6349 18.17 20.6241 19.1087 20.6457C19.2615 20.6457 19.5452 20.8286 19.5452 20.9255C19.578 22.4212 19.5671 23.917 19.5671 25.402ZM19.5562 18.9347C19.5562 19.0853 19.3597 19.3544 19.2615 19.3544C17.5588 19.3866 15.8561 19.3759 14.077 19.3759C14.0552 17.5358 14.3389 15.7925 14.7537 14.06C16.38 14.2429 17.9299 14.4151 19.5671 14.598V15.3836C19.578 16.578 19.5889 17.7617 19.5562 18.9347ZM30.329 12.4028C30.4163 12.3705 30.6237 12.4243 30.6891 12.4996C32.1626 14.5227 33.0467 16.761 33.1231 19.2683C33.1231 19.279 33.1013 19.3005 33.0685 19.3436H27.7203C27.4693 17.4497 27.2183 15.5988 26.9781 13.7694C28.0478 13.3282 29.1829 12.8547 30.329 12.4028ZM29.7832 11.3913C28.7136 11.7786 27.7531 12.123 26.7708 12.4458C26.6835 12.4781 26.4542 12.3597 26.4215 12.2629C25.843 10.6918 25.1336 9.19602 24.0421 7.86166C26.2578 8.46427 28.1024 9.64798 29.7832 11.3913ZM20.8659 7.24828C23.4527 8.28134 24.3695 10.4766 25.33 12.8763C23.7911 13.0484 22.3503 13.2099 20.8659 13.3713V7.24828ZM20.8441 14.6088C22.4704 14.4258 24.0312 14.2537 25.6575 14.0815C26.0941 15.8032 26.356 17.5465 26.3451 19.3866C25.5374 19.3866 24.7843 19.3866 24.0203 19.3866C23.1143 19.3866 22.2084 19.3974 21.3025 19.3759C21.1497 19.3759 20.8768 19.2252 20.8659 19.1391C20.8332 17.6218 20.8441 16.1045 20.8441 14.6088ZM20.8332 21.0761C20.8332 20.8286 20.8332 20.6134 21.1934 20.6241C22.8851 20.6349 24.566 20.6241 26.3342 20.6241C26.356 22.475 26.0941 24.2291 25.6466 25.9401C24.0421 25.7571 22.4922 25.5849 20.8987 25.402C20.8878 25.3374 20.8441 25.2298 20.8441 25.1115C20.8332 23.7663 20.8332 22.4212 20.8332 21.0761ZM20.855 32.6549V26.6503C22.3176 26.8117 23.7474 26.9623 25.1772 27.113C24.8716 29.1576 22.7433 32.4612 20.855 32.6549ZM24.0421 32.2137C24.6097 31.2775 25.1663 30.3843 25.6793 29.4696C25.9194 29.05 26.0722 28.5872 26.2469 28.1353C26.5088 27.4573 26.5088 27.4358 27.1855 27.6618C28.015 27.9524 28.8446 28.2752 29.7614 28.6088C28.1133 30.3736 26.2359 31.5358 24.0421 32.2137ZM30.8529 27.3067C30.6346 27.6188 30.4818 27.6726 30.1107 27.5219C29.1938 27.1345 28.2552 26.8009 27.3274 26.4458C27.1746 26.392 27.0327 26.3382 26.9891 26.3167C27.1964 24.4766 27.382 22.7118 27.6003 20.9362C27.6112 20.8178 27.8186 20.6457 27.9277 20.6457C29.6304 20.6241 31.344 20.6349 33.2213 20.6349C33.0467 21.5926 32.9376 22.4858 32.7193 23.3359C32.3482 24.7671 31.6933 26.0799 30.8529 27.3067Z" fill="#ffffff"/>
</g>
<defs fill="#000000">
<clipPath id="clip0_172_172" fill="#000000">
<rect width="28.4" height="28" fill="white" transform="translate(6 6)"/>
</clipPath>
</defs>
</svg>