<svg width="40" height="40" viewBox="0 0 40 40" fill="none" xmlns="http://www.w3.org/2000/svg">
<g clip-path="url(#clip0_501_739)">
<path d="M35.2039 12.5712C30.6129 10.4775 26.0345 8.3964 21.4435 6.3027C20.5606 5.8991 19.703 5.8991 18.8327 6.3027C14.2543 8.3964 9.67594 10.4775 5.08495 12.5712C4.44171 12.8613 4.01288 13.3153 4.00026 14.0468C3.98765 14.8162 4.42909 15.2829 5.11017 15.573C6.32099 16.1153 7.50657 16.6955 8.73 17.2C9.2345 17.4018 9.41108 17.6667 9.41108 18.2216C9.37324 20.2144 9.44891 22.2198 9.37324 24.2126C9.31018 25.7514 9.91558 26.9117 11.1138 27.7694C11.5804 28.0973 11.5426 28.4757 11.5426 28.9171C11.5426 29.3712 11.5931 29.7622 11.0003 30.0144C10.13 30.3928 9.75162 31.4649 9.99126 32.373C10.2435 33.3315 11.0886 34 12.0723 34C13.0561 34 13.9012 33.3568 14.166 32.3982C14.4183 31.4901 14.0525 30.4306 13.1823 30.027C12.5516 29.7369 12.5516 29.3586 12.6651 28.791C12.7913 28.8288 12.9174 28.8414 13.0309 28.8919C16.6886 30.4054 20.4597 30.5441 24.294 29.8252C26.148 29.4721 27.9138 28.8541 29.4021 27.6432C30.4111 26.8108 30.966 25.7892 30.9282 24.4144C30.8778 22.3586 30.9408 20.2901 30.903 18.2342C30.8904 17.6793 31.0796 17.427 31.5841 17.2126C32.8075 16.6955 33.9931 16.1279 35.2039 15.5856C35.8724 15.2829 36.3138 14.8288 36.3138 14.0595C36.276 13.3153 35.8471 12.8613 35.2039 12.5712ZM11.5426 26.7099C10.8111 26.2054 10.4831 25.5748 10.4705 24.8432C10.4327 22.636 10.4579 20.4288 10.4705 18.2216C10.4705 18.1838 10.5084 18.1586 10.521 18.1207C11.53 18.3351 11.5426 18.3604 11.5426 19.3189V26.7099ZM13.1318 31.8432C13.1318 32.4486 12.6525 32.9027 12.0471 32.8901C11.4417 32.8775 10.9877 32.3982 11.0003 31.7928C11.0255 31.2252 11.4922 30.7586 12.0597 30.7586C12.6399 30.7459 13.1318 31.2504 13.1318 31.8432ZM28.6453 26.8613C27.2958 27.9081 25.7318 28.4252 24.0922 28.7405C20.6489 29.409 17.2309 29.2955 13.9012 28.0847C12.5895 27.6054 12.6021 27.5928 12.6021 26.2432V18.991C13.9012 19.5838 15.0868 20.1135 16.2723 20.6559C17.1174 21.0342 17.9624 21.4126 18.7949 21.8036C19.7156 22.245 20.5985 22.2324 21.5192 21.8036C24.0669 20.6306 26.6399 19.4703 29.2003 18.2973C29.3895 18.209 29.5787 18.1459 29.8435 18.0324V21.3243C29.8435 22.3333 29.8057 23.3423 29.8561 24.3514C29.894 25.436 29.4525 26.2306 28.6453 26.8613ZM34.712 14.5892C30.1336 16.6955 25.5552 18.8018 20.9642 20.845C20.5228 21.0468 19.8543 21.0468 19.4003 20.8703C17.4453 20.0505 15.5282 19.1423 13.5985 18.2595C13.548 18.2342 13.5102 18.1964 13.3967 18.1081C13.9642 17.818 14.4814 17.5532 14.9985 17.2883C15.7678 16.8973 16.5498 16.5315 17.294 16.1027C17.7859 15.8252 18.2021 15.8 18.757 15.9892C19.93 16.4054 21.1156 16.3045 22.2381 15.7117C22.8814 15.3712 23.3606 14.8667 23.3732 14.0847C23.3859 13.3027 22.9318 12.773 22.2886 12.4324C20.8633 11.6883 19.4129 11.6883 18.0003 12.445C17.0039 12.9748 16.7642 13.7315 17.1426 14.9676C16.1841 15.4468 15.2255 15.9514 14.2543 16.4432C13.5228 16.809 12.7913 17.4018 12.0471 17.427C11.3282 17.4523 10.5841 16.8595 9.86513 16.5315C8.45252 15.8883 7.0399 15.2577 5.6399 14.5892C5.42549 14.4883 5.19846 14.2486 5.16062 14.0342C5.1354 13.8955 5.41288 13.6306 5.61468 13.5423C10.1931 11.436 14.7714 9.32973 19.375 7.28649C19.8291 7.08468 20.5354 7.08468 21.0021 7.2991C25.6057 9.34234 30.1841 11.4486 34.7498 13.555C34.939 13.6432 35.1913 13.8955 35.1913 14.0721C35.1534 14.2486 34.9012 14.5009 34.712 14.5892ZM18.3408 13.5423C18.8832 13.2396 19.5264 13.0883 20.1696 12.8486C20.8003 13.0883 21.4057 13.2396 21.9354 13.5423C22.4273 13.8198 22.3895 14.236 21.948 14.6144C21.1156 15.3081 19.1606 15.3081 18.3282 14.6144C17.8868 14.2486 17.8489 13.8198 18.3408 13.5423Z" fill="#3C388D"/>
</g>
<defs>
<clipPath id="clip0_501_739">
<rect width="32.2757" height="28" fill="white" transform="translate(4 6)"/>
</clipPath>
</defs>
</svg>
