<svg width="40" height="40" viewBox="0 0 40 40" fill="none" xmlns="http://www.w3.org/2000/svg">
<g clip-path="url(#clip0_501_877)">
<path d="M34.0002 24.9843C33.9889 22.1399 32.697 20.2133 30.1585 19.1027C31.7677 17.3915 31.915 15.5556 30.5891 14.1391C29.3766 12.8358 27.3934 12.7112 26.0335 13.8558C25.3762 14.411 24.9795 15.125 24.8775 15.9976C24.7302 17.2669 25.2402 18.2641 26.1581 19.0574C25.5122 19.4427 24.9002 19.8167 24.3336 20.1567C23.4723 19.6807 22.6224 19.2161 21.7611 18.7401C24.3109 16.8022 23.9369 13.9691 22.6224 12.4505C21.1378 10.7393 18.486 10.524 16.7634 11.9859C15.9248 12.6998 15.4035 13.6178 15.3015 14.7397C15.1429 16.4396 15.8455 17.7655 17.1714 18.7174C16.2988 19.2047 15.4375 19.6694 14.6216 20.1227C14.0323 19.7713 13.443 19.42 12.8424 19.0687C14.4063 17.0855 14.5082 15.3743 13.137 14.0257C11.9131 12.8472 9.99789 12.7565 8.69465 13.8331C8.02603 14.3884 7.62939 15.1023 7.51606 15.9636C7.34607 17.2442 7.89004 18.2641 8.83064 19.1027C6.21282 20.2813 4.70559 22.6272 5.04557 24.9957H11.9698C11.9698 25.4943 11.9584 25.9249 11.9698 26.3556C12.0264 28.1234 13.273 29.3814 15.0409 29.3927C17.9873 29.4154 20.9338 29.404 23.8803 29.3927C25.6821 29.3814 26.9514 28.0781 26.9741 26.2536C26.9741 25.8456 26.9741 25.4376 26.9741 24.973H34.0002V24.9843ZM25.7955 16.3942C25.7955 15.091 26.8494 14.0031 28.1526 13.9917C29.4559 13.9804 30.5891 15.1023 30.5665 16.4056C30.5551 17.6975 29.4672 18.7628 28.164 18.7628C26.8494 18.7514 25.7955 17.7088 25.7955 16.3942ZM16.1855 15.2157C16.1741 13.3911 17.6134 11.9292 19.4266 11.9292C21.2398 11.9179 22.713 13.3571 22.7243 15.1703C22.747 16.9609 21.2738 18.4568 19.4719 18.4681C17.6814 18.4794 16.1968 17.0062 16.1855 15.2157ZM8.38867 16.4056C8.37734 15.091 9.49926 13.9804 10.8025 13.9917C12.1057 14.0031 13.1597 15.0797 13.1597 16.3942C13.1597 17.7088 12.1057 18.7628 10.7912 18.7628C9.47659 18.7628 8.4 17.6975 8.38867 16.4056ZM12.1397 24.0324H5.92951C6.20149 22.1739 7.15342 20.8366 8.8533 20.1113C10.6438 19.352 12.3437 19.624 13.8963 20.8253C13.545 21.3466 13.171 21.8339 12.8877 22.3552C12.6044 22.8765 12.4004 23.4431 12.1397 24.0324ZM26.0335 26.3556C25.9995 27.6248 25.1155 28.4634 23.8463 28.4748C22.373 28.4861 20.8998 28.4748 19.4266 28.4748C18.01 28.4748 16.5934 28.4861 15.1769 28.4748C13.7603 28.4634 12.9104 27.6248 12.8764 26.2422C12.7857 22.7745 15.2335 19.8733 18.6333 19.4314C21.9764 19.0007 25.0928 21.1993 25.8635 24.565C25.9995 25.143 26.0448 25.7663 26.0335 26.3556ZM26.6454 23.7717C26.1354 22.8198 25.6708 21.8339 25.1495 20.8026C25.8975 19.8393 28.062 19.3974 29.7505 19.964C31.5524 20.576 32.969 22.3552 32.969 24.0664H30.1585C29.1612 24.0664 28.164 24.0777 27.1554 24.0551C26.9741 24.0437 26.7247 23.9191 26.6454 23.7717Z" fill="#3C388D"/>
</g>
<defs>
<clipPath id="clip0_501_877">
<rect width="29" height="18.4154" fill="white" transform="translate(5 11)"/>
</clipPath>
</defs>
</svg>
