<svg width="40" height="40" viewBox="0 0 40 40" fill="none" xmlns="http://www.w3.org/2000/svg">
<g clip-path="url(#clip0_172_152)">
<path d="M31.436 16.1969C30.9141 16.8258 30.307 17.4014 29.7318 17.9771C28.6135 19.0964 27.4951 20.3223 25.9827 20.802C24.7153 21.207 23.32 21.0045 22.0845 20.4928C22.1484 20.0344 22.649 19.7466 23.107 19.704C23.565 19.6613 24.0336 19.7893 24.4916 19.7999C25.3969 19.8212 26.2809 19.4162 26.9946 18.8619C27.7188 18.3075 28.3153 17.6146 28.965 16.9751C29.7638 16.1649 30.6585 15.408 31.1697 14.3847C31.9366 12.8284 31.5957 10.803 30.3709 9.58774C29.146 8.37251 27.1117 8.05272 25.5673 8.84155C24.6088 9.3319 23.8845 10.1634 23.1176 10.9309C22.404 11.6344 21.6372 12.2954 21.0514 13.1162C20.4656 13.9263 20.0608 14.9284 20.1993 15.9304C20.2632 16.3674 20.423 16.8365 20.2312 17.2309C20.0928 17.5187 19.7946 17.6893 19.507 17.8492C19.4644 17.8705 19.1236 16.7405 19.1022 16.6339C19.017 16.2075 18.9851 15.7705 19.0064 15.3334C19.049 14.4593 19.3046 13.5959 19.752 12.8497C19.9011 12.6045 20.0608 12.3273 20.2632 12.1355C20.5401 11.869 20.8064 11.6025 21.062 11.3253C21.5946 10.7603 22.0951 10.174 22.6383 9.63038C23.5011 8.75627 24.4809 7.94612 25.6419 7.51972C27.6869 6.77353 30.1153 7.41312 31.5212 9.03343C32.9271 10.6537 33.204 13.1481 32.2135 15.0456C31.9898 15.4613 31.7235 15.8344 31.436 16.1969Z" fill="#3C388D"/>
<path d="M19.7944 27.8482C19.5281 28.1466 19.2405 28.4451 18.9636 28.7329C17.6855 30.0761 16.3861 31.5365 14.6287 32.1334C13.1482 32.6345 11.4441 32.4319 10.1127 31.6004C8.78135 30.769 7.86538 29.3192 7.65236 27.7629C7.52455 26.8675 7.64171 25.94 7.96123 25.0872C8.121 24.6609 8.33402 24.2451 8.60029 23.872C8.85591 23.5096 9.17544 23.2324 9.48431 22.9233C10.7198 21.7187 11.7743 20.2477 13.276 19.3522C13.4784 19.2243 13.7021 19.1177 13.9151 19.0218C15.321 18.4142 16.9932 18.4781 18.3458 19.1817C18.1541 19.6507 17.6003 19.8639 17.0997 19.8746C16.5991 19.8852 16.0985 19.7573 15.5873 19.768C14.9056 19.7893 14.2666 20.0878 13.7127 20.4715C13.1589 20.8659 12.6796 21.3456 12.2003 21.8253C11.5186 22.4756 10.8157 23.1045 10.2086 23.8294C9.60147 24.5543 9.10088 25.3857 8.90916 26.3131C8.64289 27.6563 9.11153 29.1274 10.1127 30.0654C11.1139 31.0035 12.605 31.3873 13.9364 31.0248C15.4488 30.6197 16.5778 29.4045 17.6855 28.2959C18.3245 27.6563 18.9849 27.038 19.4855 26.2812C19.9861 25.535 20.3269 24.6289 20.2204 23.7334C20.1778 23.3817 20.0713 23.0405 20.1139 22.6994C20.1458 22.4649 20.2524 22.2304 20.4015 22.0598C20.508 21.9426 20.934 21.5162 20.9979 21.8466C21.0512 22.1451 21.1896 22.4329 21.2535 22.7421C21.3281 23.0619 21.3707 23.3923 21.392 23.7228C21.4346 24.3624 21.3813 25.0126 21.179 25.6309C20.9021 26.4837 20.3802 27.1872 19.7944 27.8482Z" fill="#3C388D"/>
<path d="M24.4388 16.165C24.4388 16.3462 24.3217 16.5274 24.1832 16.6766C21.8826 18.9792 19.582 21.2924 17.2814 23.5949C17.0897 23.7868 16.866 24 16.5891 24.0107C16.2909 24.0213 16.0033 23.7442 16.014 23.4457C16.0246 23.1579 16.2376 22.934 16.4293 22.7315C18.6128 20.5568 20.7856 18.3822 22.969 16.2076C23.182 15.9944 23.4057 15.7706 23.7039 15.6959C23.9382 15.632 24.2258 15.7173 24.3643 15.9198C24.4175 16.0051 24.4388 16.0903 24.4388 16.165Z" fill="#3C388D"/>
</g>
<defs>
<clipPath id="clip0_172_152">
<rect width="25.2" height="25.2" fill="white" transform="translate(7.59961 7.19995)"/>
</clipPath>
</defs>
</svg>
