<svg width="40" height="40" viewBox="0 0 40 40" fill="none" xmlns="http://www.w3.org/2000/svg">
<g clip-path="url(#clip0_172_176)">
<path d="M5.6 28V14.9849L19.2761 22.0435C20.0469 22.4413 20.9652 22.4286 21.7246 22.0096L34.4 15.0163V28C34.4 28.7732 33.7732 29.4 33 29.4H7C6.2268 29.4 5.6 28.7732 5.6 28ZM34.4 13.6458L21.1449 20.9589C20.736 21.1845 20.2415 21.1914 19.8265 20.9772L5.6 13.6345V11C5.6 10.2268 6.2268 9.6 7 9.6H33C33.7732 9.6 34.4 10.2268 34.4 11V13.6458Z" stroke="#3C388D" stroke-width="1.2"/>
</g>
<defs>
<clipPath id="clip0_172_176">
<rect width="30.4" height="21.6" fill="white" transform="translate(4.80078 9.19995)"/>
</clipPath>
</defs>
</svg>
