<svg xmlns="http://www.w3.org/2000/svg" width="40" height="40" viewBox="0 0 40 40" fill="none">
<g clip-path="url(#clip0_501_889)">
<path d="M34 31.5887C33.9547 31.0674 33.592 30.9201 33.1161 30.9314C32.0848 30.9427 31.0422 30.9314 29.9203 30.9314V30.1948C29.9203 25.5485 29.9203 20.9021 29.9203 16.2558C29.9203 15.4172 29.739 15.2358 28.8777 15.2358C27.7671 15.2358 26.6452 15.2358 25.5346 15.2358C24.594 15.2358 24.458 15.3832 24.458 16.3238C24.458 20.9701 24.458 25.6165 24.458 30.2628V30.8861H22.2255V30.1608C22.2255 26.6137 22.2255 23.0666 22.2255 19.5082C22.2255 18.7603 22.0328 18.5676 21.2962 18.5676C20.129 18.5676 18.9504 18.5676 17.7831 18.5676C16.9218 18.5676 16.7632 18.7263 16.7632 19.5989C16.7632 23.1686 16.7632 26.7384 16.7632 30.3081V30.8974H14.542V30.2401C14.542 27.7696 14.542 25.2878 14.542 22.8173C14.542 22.0694 14.3494 21.8767 13.6014 21.8767C12.4342 21.8767 11.2556 21.8767 10.0883 21.8767C9.28371 21.8767 9.07972 22.0807 9.07972 22.874C9.07972 25.3445 9.07972 27.8263 9.07972 30.2968V30.9541C7.98046 30.9541 6.9492 30.9541 5.91794 30.9541C5.31731 30.9541 5 31.1921 5 31.634C5 32.076 5.31731 32.314 5.91794 32.314C14.984 32.314 24.0387 32.314 33.1047 32.314C33.694 32.2913 34.034 32.0307 34 31.5887ZM13.1481 30.8974H10.4736V23.2593H13.1481V30.8974ZM20.8316 30.9087H18.1684V19.9615H20.8316V30.9087ZM28.5264 30.8861H25.8632V16.6297H28.5264V30.8861Z" fill="#ffffff"/>
<path d="M29.931 10.6122C29.931 11.0882 29.795 11.4395 29.2624 11.4735C28.8091 11.4962 28.5711 11.1789 28.5711 10.5783C28.5711 9.98896 28.5711 9.411 28.5711 8.67438C28.3558 8.90103 28.2311 9.03702 28.1065 9.17301C23.2561 14.726 17.3292 18.6244 10.3257 20.9022C10.235 20.9362 10.1444 20.9475 10.0537 20.9815C9.61174 21.1402 9.26044 21.0495 9.07911 20.5962C8.92046 20.1883 9.14711 19.8823 9.66841 19.6783C11.2096 19.1003 12.7849 18.579 14.2921 17.8991C19.4257 15.5646 23.7888 12.1988 27.4152 7.8811C27.5285 7.74511 27.6305 7.59779 27.8118 7.37114C26.9279 7.37114 26.1459 7.37114 25.364 7.37114C24.7634 7.37114 24.4461 7.13315 24.4347 6.70252C24.4234 6.26055 24.7407 6.01123 25.3413 6.01123C26.5652 6.01123 27.8005 6.01123 29.0244 6.01123C29.6817 6.01123 29.9197 6.23788 29.931 6.88384C29.931 8.11909 29.9197 9.36567 29.931 10.6122Z" fill="#ffffff"/>
</g>
<defs fill="#000000">
<clipPath id="clip0_501_889" fill="#000000">
<rect width="29" height="26.2915" fill="white" transform="translate(5 6)"/>
</clipPath>
</defs>
</svg>