<svg width="40" height="40" viewBox="0 0 40 40" fill="none" xmlns="http://www.w3.org/2000/svg">
<g clip-path="url(#clip0_501_767)">
<path d="M33.9625 17.3233C33.9258 16.3207 33.18 15.6483 32.1775 15.575C31.9452 15.5627 31.7129 15.5505 31.4439 15.5383C31.4561 15.2326 31.4684 15.0126 31.4806 14.7925C31.5295 13.9 31.5295 13.9 30.6615 13.6922C28.3263 13.1298 25.9911 12.5307 23.9005 11.3081C20.954 9.59646 18.0565 9.58423 15.11 11.3081C13.1416 12.4573 10.9532 13.0564 8.76475 13.6066C7.35876 13.9489 7.48102 13.7044 7.55438 15.2204C7.55438 15.306 7.54215 15.3793 7.54215 15.5383C7.32208 15.5505 7.13869 15.575 6.95531 15.575C5.80606 15.6239 5.06028 16.3085 5.0236 17.4333C4.98692 18.6926 4.98692 19.9641 5.0236 21.2234C5.04805 22.1525 5.586 22.7761 6.49072 23.0206C6.91863 23.1428 7.35876 23.2284 7.78667 23.3629C7.93338 23.4118 8.129 23.5218 8.1779 23.6563C9.26601 26.236 11.1977 27.9721 13.6918 29.0969C16.247 30.2461 18.9612 30.4662 21.712 30.0994C25.3432 29.5981 28.363 27.9843 30.2335 24.7322C30.8204 23.7175 31.4317 23.1673 32.5565 22.9839C33.4123 22.8494 33.938 22.1525 33.9625 21.2845C33.9991 19.9641 34.0114 18.6437 33.9625 17.3233ZM6.53962 22.1036C6.23397 21.9447 5.92832 21.5046 5.90387 21.1745C5.83052 19.9396 5.85497 18.6926 5.89165 17.4578C5.9161 16.6508 6.36846 16.3941 7.65219 16.4308C7.7989 18.4603 7.95783 20.4653 8.11677 22.5438C7.52993 22.397 6.97976 22.3481 6.53962 22.1036ZM30.6126 14.9881C30.3925 17.7267 30.2091 20.4776 29.9768 23.2162C29.9523 23.5096 29.8301 23.803 29.6834 24.072C28.8031 25.6858 27.5561 26.9818 25.93 27.8132C21.6754 29.9894 17.3718 29.9649 13.0805 27.8498C12.4814 27.5564 11.9313 27.1407 11.43 26.7006C9.95067 25.4046 8.89923 23.9253 8.86256 21.798C8.8381 19.4995 8.55691 17.2132 8.38574 14.9148C8.37352 14.8169 8.38574 14.7191 8.38574 14.5602C9.00927 14.4013 9.59611 14.2912 10.1463 14.0956C11.8335 13.4965 13.4962 12.8608 15.1712 12.225C15.5135 12.0906 15.8436 11.9316 16.1615 11.7482C18.3988 10.5134 20.6117 10.5256 22.8613 11.7482C25.172 13.0197 27.6416 13.8878 30.2213 14.4502C30.5636 14.5235 30.637 14.6702 30.6126 14.9881ZM33.1311 20.8566C33.1311 21.7735 32.8988 22.0547 32.0308 22.2626C31.6762 22.3481 31.3217 22.4337 30.906 22.5315C31.0527 20.4776 31.2116 18.4725 31.3583 16.4797C32.6787 16.2596 33.1433 16.6386 33.1433 17.9223C33.1311 18.9004 33.1311 19.8785 33.1311 20.8566Z" fill="#3C388D"/>
<path d="M26.5903 22.727C26.4558 22.8982 26.3336 23.1916 26.1746 23.2161C23.9495 23.5829 21.7244 23.9252 19.4993 24.2675C17.482 23.9496 15.4891 23.644 13.5085 23.3261C13.2885 23.2894 13.044 23.3139 12.8483 23.2161C12.6649 23.1183 12.5427 22.8982 12.4082 22.7393C12.5916 22.617 12.7872 22.3847 12.9461 22.3969C13.9976 22.5314 15.049 22.6781 16.076 22.8982C18.7535 23.4851 21.4065 23.2528 24.0596 22.7026C24.7198 22.5681 25.38 22.4581 26.0402 22.3969C26.2113 22.3969 26.4069 22.617 26.5903 22.727Z" fill="#3C388D"/>
<path d="M26.5903 18.5459C26.3825 18.6559 26.1624 18.876 25.979 18.8515C25.2332 18.7782 24.4875 18.6681 23.7539 18.497C20.5752 17.7267 17.4209 17.9835 14.2666 18.6803C13.8264 18.7782 13.3863 18.8637 12.9461 18.8637C12.775 18.8637 12.5916 18.6437 12.4082 18.5214C12.5549 18.3625 12.6772 18.0813 12.8483 18.0446C15.0735 17.6778 17.2986 17.3355 19.5237 16.9932C21.541 17.311 23.5338 17.6289 25.5144 17.9346C25.6978 17.959 25.9057 17.9346 26.0524 18.0201C26.2602 18.1546 26.4192 18.3625 26.5903 18.5459Z" fill="#3C388D"/>
<path d="M26.6028 20.6486C26.4561 20.7831 26.3216 20.9543 26.1504 21.0398C26.0404 21.101 25.8692 21.0521 25.7225 21.0521C21.5657 21.0521 17.4211 21.0521 13.2642 21.0521C12.9219 21.0521 12.4329 21.1866 12.4084 20.6364C12.3962 20.074 12.8852 20.1963 13.2276 20.1963C14.8536 20.184 16.4797 20.1963 18.1057 20.1963H19.5117C21.5657 20.1963 23.6196 20.1963 25.6736 20.1963C25.8203 20.1963 25.9915 20.1474 26.0893 20.2085C26.2971 20.3307 26.4438 20.5019 26.6028 20.6486Z" fill="#3C388D"/>
</g>
<defs>
<clipPath id="clip0_501_767">
<rect width="29" height="20.2707" fill="white" transform="translate(5 10)"/>
</clipPath>
</defs>
</svg>
