<svg width="40" height="40" viewBox="0 0 40 40" fill="none" xmlns="http://www.w3.org/2000/svg">
<g clip-path="url(#clip0_501_791)">
<path d="M29.9654 19.6029C29.812 19.0221 29.6257 18.4524 29.4285 17.8881C29.2148 17.28 29.2094 16.6774 29.4285 16.0748C29.5983 15.6036 29.7682 15.1325 29.9106 14.6559C30.1516 13.8341 29.9599 13.2425 29.2861 12.7275C28.8971 12.4317 28.4917 12.1468 28.0808 11.8783C27.5275 11.5168 27.1769 11.0237 27.0016 10.3882C26.8646 9.90612 26.7222 9.42402 26.5578 8.95836C26.2894 8.20234 25.7744 7.82981 24.9746 7.8079C24.4651 7.79146 23.9556 7.79694 23.4461 7.81885C22.7887 7.84624 22.2135 7.64902 21.704 7.23814C21.326 6.93683 20.9425 6.641 20.548 6.37256C19.8413 5.89046 19.1949 5.89046 18.4882 6.37256C18.0883 6.64648 17.7048 6.93683 17.3268 7.23814C16.8118 7.64902 16.242 7.85172 15.5846 7.82433C15.0861 7.80242 14.5821 7.79694 14.0836 7.81337C13.2289 7.82433 12.7414 8.17495 12.451 8.98027C12.2867 9.43498 12.1442 9.89516 12.0182 10.3608C11.8429 11.0128 11.4813 11.5222 10.9116 11.8948C10.4952 12.1687 10.0789 12.4536 9.68442 12.7604C9.1585 13.1658 8.87362 13.7026 9.05441 14.382C9.20781 14.9627 9.40503 15.5269 9.59677 16.0967C9.79947 16.6884 9.79947 17.2745 9.59677 17.8607C9.42694 18.3428 9.26259 18.8249 9.1092 19.307C8.86267 20.085 9.07632 20.7259 9.7173 21.219C10.1063 21.5148 10.5117 21.7997 10.9225 22.0681C11.4813 22.4352 11.8429 22.9337 12.0182 23.5747C12.1552 24.0623 12.2976 24.5553 12.4784 25.0319C12.5551 25.2401 12.5606 25.399 12.4784 25.5962C11.7826 27.3548 11.0978 29.1188 10.413 30.8828C10.1884 31.4636 10.4514 31.8251 11.0705 31.7594C11.9415 31.6663 12.8071 31.5676 13.6727 31.4471C13.9521 31.4088 14.1383 31.4636 14.3246 31.6936C14.8505 32.3456 15.4039 32.9756 15.9517 33.6111C16.0777 33.759 16.2475 33.874 16.3954 34.0055H16.7241C16.9652 33.8521 17.0748 33.6111 17.1734 33.3536C17.8417 31.6224 18.521 29.9022 19.1949 28.171C19.2606 28.0067 19.3264 27.9355 19.5236 27.9355C19.7318 27.93 19.7811 28.0286 19.8413 28.182C20.5261 29.946 21.2164 31.7046 21.9012 33.4632C21.9943 33.7042 22.1203 33.896 22.3614 34.0055H22.6353C22.7668 33.896 22.9147 33.8028 23.0243 33.6768C23.5831 33.0304 24.1528 32.3894 24.6842 31.7156C24.8924 31.4526 25.1006 31.4088 25.4074 31.4526C26.2565 31.5731 27.1057 31.6717 27.9548 31.7594C28.5848 31.8251 28.8423 31.469 28.6122 30.8828C27.9165 29.1024 27.2207 27.3274 26.5304 25.5469C26.4866 25.4373 26.4647 25.2949 26.4921 25.1853C26.6345 24.7087 26.8263 24.243 26.9468 23.7555C27.144 22.9721 27.5713 22.3804 28.2561 21.9531C28.6889 21.6846 29.0998 21.3779 29.4888 21.0492C29.9161 20.6766 30.1133 20.1726 29.9654 19.6029ZM18.2143 27.6287C17.5952 29.1955 16.9816 30.7623 16.2859 32.4058C16.253 32.3346 16.2311 32.247 16.1763 32.1867C15.7326 31.6553 15.2669 31.1403 14.8341 30.6035C14.615 30.3295 14.363 30.2419 14.0233 30.2857C13.3495 30.3788 12.6701 30.4555 11.9908 30.5377C11.9141 30.5487 11.8319 30.5377 11.7224 30.5377C12.3086 29.0421 12.8838 27.5629 13.4481 26.1276C14.1877 26.1276 14.8944 26.1331 15.5956 26.1276C16.2366 26.1221 16.8118 26.3029 17.3103 26.7193C17.5678 26.9329 17.8417 27.1356 18.1102 27.3329C18.2252 27.415 18.269 27.4863 18.2143 27.6287ZM27.2919 30.5651C26.8701 30.5158 26.4866 30.4774 26.1031 30.4336C25.7306 30.3898 25.3635 30.3514 24.991 30.2912C24.6568 30.2364 24.3993 30.3241 24.1747 30.598C23.6926 31.1896 23.1886 31.7649 22.6572 32.3839C22.0875 30.9267 21.5342 29.5133 20.9808 28.0998C20.7288 27.4643 20.7288 27.4589 21.2712 27.048C21.704 26.7193 22.1039 26.3248 22.6627 26.2153C22.9202 26.166 23.1831 26.1386 23.4461 26.1386C24.1364 26.1276 24.8212 26.1331 25.5553 26.1331C26.1141 27.5575 26.6948 29.0366 27.2919 30.5651ZM28.6396 20.326C28.3328 20.5506 28.026 20.7862 27.7028 20.9834C26.7277 21.5806 26.1141 22.4297 25.8456 23.5418C25.758 23.9143 25.6265 24.2759 25.506 24.6375C25.4183 24.895 25.243 25.0484 24.9581 25.0429C24.5747 25.0429 24.1912 25.0593 23.8132 25.0319C22.6298 24.9388 21.6109 25.2894 20.7234 26.0728C20.4659 26.3029 20.17 26.4892 19.8906 26.6919C19.6386 26.8727 19.3812 26.8781 19.1291 26.6974C18.8333 26.4837 18.5265 26.281 18.2526 26.0454C17.387 25.2949 16.4009 24.9607 15.2559 25.0374C14.8505 25.0648 14.4397 25.0484 14.0288 25.0484C13.7713 25.0484 13.596 24.9114 13.5193 24.6758C13.3933 24.3033 13.2563 23.9363 13.1687 23.5582C12.9002 22.4352 12.2812 21.5806 11.2951 20.9834C10.9718 20.7862 10.6651 20.5506 10.3583 20.3205C10.1391 20.1562 10.057 19.9425 10.1501 19.6686C10.2761 19.307 10.3802 18.94 10.5226 18.5839C10.9554 17.5211 10.9609 16.4583 10.5281 15.3955C10.3802 15.0339 10.2761 14.6559 10.1501 14.2888C10.057 14.0149 10.1446 13.8067 10.3637 13.6424C10.6651 13.4232 10.9609 13.1877 11.2786 12.9959C12.2812 12.3878 12.9167 11.5222 13.1796 10.3773C13.2618 10.0157 13.3933 9.66507 13.5138 9.30897C13.6069 9.03505 13.8096 8.90357 14.0945 8.90905C14.4287 8.90905 14.7684 8.90905 15.0149 8.90905C15.8366 8.95288 16.5817 8.96384 17.2391 8.58583C17.7212 8.31191 18.165 7.97225 18.6032 7.63807C19.4962 6.96423 19.5236 6.95875 20.4056 7.63807C20.7179 7.87364 21.0247 8.12016 21.3424 8.34478C22.0436 8.83783 22.8435 8.95836 23.6817 8.92549C24.0706 8.90905 24.4651 8.91453 24.8541 8.90357C25.2047 8.89262 25.4238 9.04601 25.5224 9.38019C25.6429 9.76916 25.7799 10.1581 25.8785 10.5526C26.1415 11.5825 26.7331 12.3659 27.6316 12.9302C27.9822 13.1548 28.3219 13.4068 28.656 13.6533C28.8697 13.8122 28.9409 14.0204 28.8533 14.2833C28.7163 14.6778 28.6013 15.0832 28.4479 15.4722C28.0534 16.4747 28.0479 17.4718 28.4424 18.4798C28.5958 18.8688 28.7108 19.2687 28.8533 19.6631C28.9628 19.9425 28.8697 20.1617 28.6396 20.326Z" fill="#3C388D"/>
<path d="M19.5296 9.77459C15.5742 9.7472 12.331 12.9411 12.3146 16.9513C12.2927 20.9669 15.5304 24.1499 19.4912 24.1608C23.4466 24.1772 26.6789 20.9614 26.7063 16.9732C26.7282 13.0507 23.5014 9.80746 19.5296 9.77459ZM19.4474 23.0597C16.0892 23.0158 13.3883 20.2766 13.4212 16.9513C13.4541 13.5766 16.1878 10.8538 19.5186 10.8812C22.8933 10.9086 25.638 13.6807 25.5887 17.0115C25.5394 20.4081 22.8057 23.1035 19.4474 23.0597Z" fill="#3C388D"/>
</g>
<defs>
<clipPath id="clip0_501_791">
<rect width="21.0151" height="28" fill="white" transform="translate(9 6)"/>
</clipPath>
</defs>
</svg>
