<svg xmlns="http://www.w3.org/2000/svg" width="40" height="40" viewBox="0 0 40 40" fill="none">
<g clip-path="url(#clip0_501_743)">
<path d="M33.9994 7.17504C33.9994 6.047 33.9524 6 32.8478 6H6.1274C5.97465 6 5.82189 6 5.65739 6C5.23437 6.01175 5.01111 6.22326 4.99936 6.65802C4.99936 7.69206 4.98761 8.73784 4.99936 9.77188C4.99936 10.2066 5.23437 10.4182 5.66914 10.4064C5.97465 10.4064 6.28016 10.4064 6.65617 10.4064V25.3177C6.65617 25.4704 6.66792 25.6349 6.65617 25.7877C6.63267 26.3165 6.90293 26.5397 7.4082 26.528C7.56095 26.528 7.72546 26.528 7.87821 26.528C11.2623 26.528 14.6464 26.5397 18.0423 26.5162C18.5006 26.5162 18.6768 26.6337 18.6416 27.1037C18.6063 27.6912 18.6651 28.2788 18.6181 28.8663C18.5946 29.0895 18.4418 29.3716 18.2538 29.4891C17.5018 29.9708 17.114 30.6171 17.1963 31.4984C17.2903 32.4737 18.0658 33.2257 18.9823 33.3079C19.9576 33.4019 20.8272 32.8379 21.1327 31.9331C21.4499 30.9931 21.0739 30.0531 20.1926 29.5126C20.0399 29.4186 19.8284 29.2306 19.8284 29.0778C19.7931 28.2553 19.8049 27.4445 19.8049 26.528H20.5921C24.176 26.528 27.7599 26.528 31.3438 26.528C32.225 26.528 32.319 26.4222 32.319 25.5409C32.319 20.7468 32.319 15.9408 32.319 11.1467V10.4064C32.6246 10.4064 32.8596 10.4064 33.0828 10.4064C33.8466 10.3947 33.9759 10.2771 33.9759 9.52512C34.0111 8.73784 33.9994 7.95057 33.9994 7.17504ZM20.0751 31.2399C20.0986 31.6981 19.7109 32.1094 19.2526 32.1212C18.7826 32.1329 18.3831 31.7569 18.3713 31.2869C18.3596 30.8404 18.7238 30.4643 19.1703 30.4291C19.6404 30.4173 20.0516 30.7816 20.0751 31.2399ZM31.1205 25.3177H7.87821V10.4417H31.1205V25.3177ZM32.7656 9.19611H6.20965V7.22204H32.7656V9.19611Z" fill="#ffffff"/>
</g>
<defs fill="#000000">
<clipPath id="clip0_501_743" fill="#000000">
<rect width="29" height="27.3197" fill="white" transform="translate(5 6)"/>
</clipPath>
</defs>
</svg>