<svg width="40" height="40" viewBox="0 0 40 40" fill="none" xmlns="http://www.w3.org/2000/svg">
<g clip-path="url(#clip0_501_949)">
<path d="M33.9151 4.96878C34.1481 4.08591 33.9519 3.85293 33.1181 4.08591C26.5824 5.8394 20.6843 8.78231 15.6936 13.4174C15.5832 13.5278 15.4483 13.6136 15.4238 13.6381C14.8475 13.0741 14.3202 12.5468 13.7684 12.0195C14.3692 11.0385 14.406 10.2292 13.7561 9.5303C12.861 8.57386 11.9413 7.65419 10.9849 6.75906C10.2614 6.07238 9.2314 6.10916 8.47115 6.75906C8.29948 6.9062 8.15233 7.06561 7.99292 7.22502C6.98743 8.23052 6.98743 9.2728 7.98066 10.266C8.64282 10.9405 9.30497 11.6026 9.97939 12.2648C11.1443 13.4297 11.647 13.5155 13.0695 12.7798C13.609 13.307 14.1485 13.8343 14.7003 14.3739C14.6145 14.472 14.5409 14.57 14.4551 14.6559C9.80772 19.6343 6.85254 25.5201 5.09905 32.0559C4.86607 32.9388 5.07453 33.1717 5.89609 32.9388C12.4318 31.1853 18.3177 28.2301 23.3084 23.6073C23.4187 23.4969 23.5536 23.4111 23.5781 23.3865C24.1544 23.9506 24.694 24.4779 25.2335 25.0051C24.6204 25.9984 24.5959 26.8199 25.2826 27.5434C26.1654 28.4753 27.0728 29.395 28.017 30.2656C28.7282 30.9278 29.7337 30.9155 30.4817 30.3024C30.7147 30.1062 30.9354 29.8855 31.1439 29.6648C31.99 28.7819 31.9777 27.7151 31.1194 26.8445C30.4327 26.1455 29.7337 25.4588 29.0348 24.7599C27.8699 23.595 27.3426 23.5092 25.9815 24.2204C25.4175 23.6931 24.8779 23.1781 24.3139 22.6508C24.3874 22.565 24.4487 22.4914 24.5101 22.4178C29.1697 17.4271 32.1371 11.5168 33.9151 4.96878ZM12.9959 11.529C12.6893 11.1734 12.4809 10.8424 12.1866 10.6094C11.8555 10.3396 11.5735 9.54257 11.0585 10.0821C10.568 10.5971 11.3528 10.8791 11.6225 11.2102C11.8678 11.5045 12.2111 11.7007 12.5422 11.9705C11.9413 12.51 11.4509 12.4855 11.0339 12.0808C10.1388 11.2225 9.25593 10.3396 8.39757 9.44447C7.99292 9.01529 8.00518 8.51254 8.38531 8.05885C8.58151 7.82586 8.80223 7.60515 9.03521 7.40895C9.50117 7.0043 10.0162 6.99204 10.4699 7.42121C11.3528 8.2673 12.2111 9.13791 13.0695 10.0208C13.4741 10.45 13.4618 10.8301 12.9959 11.529ZM25.9815 25.5079C26.423 25.9861 26.8031 26.4398 27.2445 26.8322C27.4039 26.9793 27.7227 26.9426 27.968 26.9916C27.9312 26.7464 27.968 26.4275 27.8331 26.2681C27.453 25.8267 26.9993 25.4343 26.5456 25.0051C27.0361 24.5514 27.5143 24.5269 27.9067 24.8948C28.8631 25.7899 29.7583 26.7341 30.6779 27.6538C30.7638 27.7396 30.8128 27.8622 30.8496 27.9726C31.0335 28.5244 30.6534 29.1865 29.8564 29.7138C29.3536 30.0449 28.8876 29.9468 28.4707 29.5421C27.6492 28.7206 26.8153 27.899 26.006 27.0774C25.5401 26.587 25.5278 26.2314 25.9815 25.5079ZM32.9955 5.04236C32.223 7.94849 31.1684 10.6952 29.7705 13.3806C28.5688 10.3641 27.6369 9.44447 24.6817 8.2673C26.2268 7.27407 30.8986 5.45927 32.9955 5.04236ZM5.99419 32.0191C6.79123 29.0639 7.83351 26.3295 9.25593 23.595C10.0775 26.2559 11.7451 27.9481 14.4183 28.7574C11.6838 30.1675 8.94937 31.222 5.99419 32.0191ZM21.4323 24.0977C19.642 25.3853 17.8394 26.6483 16.0124 27.8745C15.7671 28.0462 15.3502 28.0829 15.0437 28.0216C12.3215 27.3963 10.617 25.6918 9.97939 22.9696C9.91808 22.7121 9.90582 22.381 10.0284 22.1603C11.4631 19.5485 13.2166 17.1819 15.3134 14.9992C15.9143 15.6246 16.4783 16.2132 17.1528 16.8999C16.8585 17.1574 16.5151 17.4149 16.2208 17.7214C15.0682 18.9231 15.0559 20.6521 16.1718 21.7925C17.3122 22.9574 19.0657 22.9696 20.2919 21.8047C20.5984 21.5104 20.8437 21.1548 21.1012 20.8483C21.7879 21.5472 22.3642 22.1113 22.9895 22.7489C22.4991 23.1658 22.0086 23.6931 21.4323 24.0977ZM20.5248 20.2352C20.1692 20.603 19.8504 21.0567 19.4213 21.3878C18.612 22.0254 17.4716 21.9028 16.7604 21.1426C16.0737 20.4068 16.0001 19.3155 16.65 18.5185C16.9688 18.1261 17.3612 17.795 17.7291 17.4394C18.6978 18.3958 19.6174 19.3155 20.5248 20.2352ZM18.4648 16.7159C19.0411 16.1273 19.6297 15.4529 20.3041 14.8766C21.0766 14.2022 22.2416 14.3003 22.9773 15.0115C23.713 15.7472 23.8111 16.9366 23.1122 17.7337C22.5358 18.3836 21.8859 18.9722 21.2974 19.5485C20.3532 18.6043 19.4213 17.6724 18.4648 16.7159ZM23.8602 21.8415C23.8111 21.9028 23.7375 21.9396 23.6762 22.0009C23.0999 21.4001 22.5481 20.8115 21.8737 20.1003C22.4255 19.5975 23.0631 19.058 23.6394 18.4572C24.4978 17.5498 24.6695 16.2867 24.1177 15.2199C23.5413 14.1163 22.6094 13.5768 21.3709 13.6259C20.5984 13.6504 19.9485 13.9815 19.4213 14.5333C18.894 15.0728 18.3912 15.6246 17.8517 16.1887C17.1773 15.5142 16.6255 14.9502 16.0001 14.3371C16.5151 13.8711 17.0056 13.3561 17.5697 12.9392C19.3354 11.6394 21.1502 10.3764 22.9773 9.15018C23.2348 8.97851 23.6762 8.94172 23.995 9.01529C26.705 9.64066 28.3726 11.3328 29.0103 14.0305C29.0716 14.3003 29.0716 14.6681 28.949 14.8889C27.5511 17.4271 25.8466 19.7447 23.8602 21.8415Z" fill="#3C388D"/>
</g>
<defs>
<clipPath id="clip0_501_949">
<rect width="29" height="29.0123" fill="white" transform="translate(5 4)"/>
</clipPath>
</defs>
</svg>
