<svg width="40" height="40" viewBox="0 0 40 40" fill="none" xmlns="http://www.w3.org/2000/svg">
<path d="M13 19.15C12.5306 19.15 12.15 19.5306 12.15 20C12.15 20.4694 12.5306 20.85 13 20.85L13 19.15ZM26.601 20.601C26.933 20.2691 26.933 19.7309 26.601 19.399L21.1917 13.9896C20.8597 13.6576 20.3215 13.6576 19.9896 13.9896C19.6576 14.3215 19.6576 14.8597 19.9896 15.1917L24.7979 20L19.9896 24.8083C19.6576 25.1403 19.6576 25.6785 19.9896 26.0104C20.3215 26.3424 20.8597 26.3424 21.1917 26.0104L26.601 20.601ZM13 20.85L26 20.85L26 19.15L13 19.15L13 20.85Z" fill="#3C388D"/>
</svg>
