<svg width="40" height="40" viewBox="0 0 40 40" fill="none" xmlns="http://www.w3.org/2000/svg">
<g clip-path="url(#clip0_501_938)">
<path d="M33.989 18.875C33.9777 17.9125 33.3209 17.2557 32.3584 17.2104C32.1092 17.1991 31.8714 17.2104 31.5317 17.2104C31.5317 16.2592 31.5317 15.376 31.5317 14.4927C31.5317 13.802 31.4751 13.7454 30.7957 13.7454C28.9273 13.7454 27.0589 13.734 25.1905 13.7454C24.8734 13.7454 24.7035 13.6548 24.545 13.349C23.5032 11.2881 21.816 10.1558 19.4833 10.1558C17.1733 10.1558 15.4974 11.2768 14.4556 13.3151C14.2971 13.6321 14.1159 13.7454 13.7648 13.7341C11.8964 13.7227 10.028 13.7454 8.1596 13.7227C7.61606 13.7227 7.42356 13.9152 7.43488 14.4588C7.46885 15.3533 7.44621 16.2592 7.44621 17.2104C7.12914 17.2104 6.89134 17.1991 6.65355 17.2104C5.65706 17.2444 5.00029 17.9012 4.98896 18.909C4.97764 20.098 4.97764 21.287 4.98896 22.4759C5.02293 23.4385 5.67971 24.0952 6.64222 24.1179C6.90267 24.1292 7.15179 24.1179 7.45753 24.1179C7.45753 25.1597 7.45753 26.1109 7.45753 27.0734C7.45753 28.0132 7.45753 28.0132 8.3974 28.0132C9.258 28.0132 10.1073 28.0132 11.0132 28.0132C11.0132 28.5794 11.0132 29.0437 11.0132 29.5193C11.0132 31.399 12.0776 32.4748 13.9573 32.4748C17.6375 32.4748 21.3177 32.4748 24.998 32.4748C26.9117 32.4748 27.9648 31.4217 27.9761 29.4966C27.9761 29.021 27.9761 28.5341 27.9761 28.0246C28.9613 28.0246 29.8445 28.0246 30.7278 28.0246C31.4978 28.0246 31.5317 27.9906 31.5317 27.2319C31.5317 26.2128 31.5317 25.205 31.5317 24.1292C31.8035 24.1292 32.0073 24.1292 32.2112 24.1292C33.3549 24.1179 33.989 23.4838 33.989 22.3401C34.0003 21.1737 34.0116 20.03 33.989 18.875ZM7.43488 23.3252C7.15179 23.3252 6.89134 23.3365 6.64222 23.3252C6.11001 23.2912 5.80427 22.9968 5.80427 22.4646C5.79294 21.287 5.79294 20.098 5.80427 18.909C5.81559 18.3201 6.12133 18.0257 6.72149 17.9918C6.94796 17.9804 7.17444 17.9918 7.44621 17.9918V23.3252H7.43488ZM19.404 10.9258C21.3177 10.8805 23.2201 12.0695 23.7863 13.6888H15.2256C15.6785 12.194 17.547 10.9711 19.404 10.9258ZM27.1381 30.1534C27.0249 31.048 26.2889 31.6708 25.3716 31.6708C21.465 31.6821 17.5583 31.6821 13.6629 31.6708C12.7231 31.6708 12.0097 31.0253 11.8511 30.1081C11.8172 29.9269 11.8285 29.7344 11.8285 29.5419C11.8285 29.055 11.8285 28.5681 11.8285 28.0472H27.1721C27.1495 28.7719 27.2174 29.4627 27.1381 30.1534ZM30.7164 27.2092H8.29548V14.5494H30.7164V27.2092ZM33.219 22.0117C33.2869 23.1214 32.834 23.529 31.5657 23.2573V18.0937C32.7434 17.7879 33.2982 18.2069 33.219 19.3053C33.1623 20.1999 33.1623 21.1058 33.219 22.0117Z" fill="#3C388D"/>
<path d="M26.5944 9.60094C26.4812 9.69153 26.2547 9.71417 26.0962 9.66888C25.9716 9.63491 25.8697 9.47638 25.7678 9.37446C22.2574 5.95471 16.7314 5.95471 13.2324 9.37446C13.1305 9.47638 13.0286 9.64623 12.904 9.66888C12.7455 9.71417 12.5303 9.69153 12.4058 9.60094C12.3265 9.54432 12.3378 9.2952 12.3831 9.15931C12.4284 9.02343 12.5643 8.93284 12.6776 8.8196C14.5799 6.97384 16.8673 6.06794 19.4831 6C22.1329 6.05662 24.4202 6.97384 26.3226 8.80828C26.4245 8.91019 26.5717 9.0121 26.617 9.14799C26.6623 9.28387 26.6737 9.53299 26.5944 9.60094Z" fill="#3C388D"/>
<path d="M25.3937 10.9031C25.1106 11.0164 24.9181 11.1296 24.703 11.1522C24.6124 11.1636 24.4991 11.005 24.4086 10.9144C21.521 8.15146 17.4671 8.15146 14.6135 10.9031C14.4097 11.107 14.1832 11.3561 13.9002 11.0956C13.5718 10.7899 13.8549 10.5634 14.0587 10.3369C16.9915 7.30219 22.0872 7.31351 24.9747 10.3709C25.088 10.4955 25.1786 10.6427 25.3937 10.9031Z" fill="#3C388D"/>
<path d="M28.9391 17.0632C28.9391 16.3951 28.8712 16.3271 28.1804 16.3271C22.394 16.3271 16.6076 16.3271 10.8099 16.3271C10.1304 16.3271 10.0625 16.3951 10.0625 17.0745C10.0625 19.5997 10.0625 22.1249 10.0625 24.6501C10.0625 25.3635 10.1191 25.4201 10.8438 25.4201C13.7314 25.4201 16.6189 25.4201 19.4951 25.4201C22.394 25.4201 25.3042 25.4088 28.2031 25.4314C28.7353 25.4314 28.9391 25.2502 28.9391 24.7067C28.9278 22.1589 28.9391 19.611 28.9391 17.0632ZM28.1238 24.6048H10.8891V17.1538H28.1238V24.6048Z" fill="#3C388D"/>
<path d="M14.5694 18.3541C13.2106 18.3767 12.1009 19.4865 12.0782 20.8566C12.0669 22.2381 13.1993 23.3931 14.5808 23.3931C15.9509 23.3931 17.1059 22.2381 17.1059 20.8679C17.1059 19.4865 15.9396 18.3428 14.5694 18.3541ZM14.626 22.6118C13.6975 22.6344 12.8935 21.8418 12.8709 20.9019C12.8595 19.9621 13.6296 19.1581 14.5808 19.1467C15.5093 19.1354 16.3246 19.9168 16.3359 20.8566C16.3473 21.7965 15.5659 22.5891 14.626 22.6118Z" fill="#3C388D"/>
<path d="M24.3635 18.3543C22.982 18.3882 21.8496 19.5546 21.8836 20.9247C21.9175 22.2836 23.0612 23.4046 24.4087 23.3933C25.7902 23.382 26.9226 22.227 26.9113 20.8455C26.9 19.4527 25.7449 18.3203 24.3635 18.3543ZM24.4314 22.612C23.5029 22.6233 22.6875 21.842 22.6762 20.9021C22.6649 19.9622 23.4462 19.1582 24.3861 19.1469C25.326 19.1356 26.1186 19.9169 26.1413 20.8568C26.1526 21.7853 25.3713 22.5893 24.4314 22.612Z" fill="#3C388D"/>
</g>
<defs>
<clipPath id="clip0_501_938">
<rect width="29" height="26.4635" fill="white" transform="translate(5 6)"/>
</clipPath>
</defs>
</svg>
