<svg width="40" height="40" viewBox="0 0 40 40" fill="none" xmlns="http://www.w3.org/2000/svg">
<g clip-path="url(#clip0_304_562)">
<path d="M33.018 22.6764C32.667 22.3367 32.3273 21.9743 31.9309 21.6912C31.3647 21.2836 31.1949 20.7853 31.2742 20.0946C31.3534 19.3699 31.093 18.5432 31.3761 17.9318C31.6705 17.2976 32.4292 16.8787 32.9727 16.3691C33.7427 15.6444 33.8673 14.8291 33.3577 13.9232C32.7236 12.8021 32.0781 11.7037 31.4327 10.594C30.9005 9.68811 30.1305 9.3937 29.1227 9.69944C28.4885 9.89194 27.8771 10.1297 27.2316 10.2883C27.0164 10.3449 26.722 10.2883 26.5182 10.175C25.8501 9.824 25.1933 9.45031 24.5705 9.04266C24.378 8.9181 24.1969 8.69163 24.1289 8.47648C23.9364 7.83102 23.8232 7.1516 23.6646 6.49483C23.4382 5.55496 22.7587 5.02275 21.7962 5.01142C20.494 5.0001 19.1918 5.0001 17.8895 5.01142C16.8817 5.01142 16.225 5.55496 15.9872 6.54012C15.8286 7.1969 15.7041 7.865 15.5229 8.52177C15.4663 8.7256 15.2851 8.92942 15.1039 9.04266C14.4698 9.43899 13.813 9.824 13.1449 10.175C12.9298 10.2883 12.6127 10.3336 12.3862 10.2769C11.7295 10.1184 11.0953 9.86929 10.4499 9.67679C9.57796 9.41634 8.77397 9.69944 8.33235 10.4355C7.61896 11.6245 6.91689 12.8361 6.23747 14.0591C5.81849 14.8177 5.9657 15.6217 6.56585 16.2445C6.75836 16.4484 6.96218 16.6522 7.18866 16.822C8.06058 17.4901 8.7853 18.2262 8.355 19.3019C8.355 20.0153 8.51353 20.6268 8.3097 21.0798C8.09455 21.5554 7.52837 21.8724 7.10939 22.2574C6.97351 22.382 6.8263 22.5065 6.69041 22.6424C5.9204 23.3671 5.78452 24.1825 6.30541 25.0883C6.93953 26.1981 7.58499 27.3078 8.23044 28.4175C8.76265 29.3234 9.53266 29.6178 10.5405 29.3121C11.1746 29.1196 11.7861 28.8818 12.4315 28.7233C12.6467 28.6666 12.9411 28.7233 13.1449 28.8365C13.813 29.1875 14.4698 29.5612 15.0926 29.9689C15.2851 30.0934 15.4663 30.3199 15.5342 30.5351C15.7267 31.1805 15.84 31.8599 15.9985 32.5167C16.225 33.4566 16.8931 34.0001 17.8669 34.0001C19.1691 34.0114 20.4714 34.0114 21.7736 34.0001C22.7814 34.0001 23.4495 33.4566 23.676 32.4827C23.8345 31.826 23.9591 31.1579 24.1402 30.5011C24.1968 30.2973 24.378 30.0934 24.5479 29.9802C25.182 29.5839 25.8388 29.1989 26.5069 28.8478C26.722 28.7346 27.0391 28.678 27.2656 28.7346C27.8997 28.8931 28.5225 29.1309 29.1566 29.3234C30.0852 29.5952 30.8892 29.3234 31.3647 28.5308C32.0555 27.3644 32.7349 26.1867 33.403 25.0091C33.856 24.1711 33.7088 23.3445 33.018 22.6764ZM32.2367 24.5901C31.6139 25.6206 31.0137 26.6737 30.4249 27.7268C30.1871 28.1571 29.8813 28.293 29.4057 28.1231C28.6357 27.8513 27.8657 27.6022 27.0844 27.4097C26.8126 27.3418 26.4616 27.4097 26.2125 27.5456C25.3292 28.0099 24.4686 28.5081 23.6307 29.0403C23.3929 29.1989 23.1437 29.4706 23.0645 29.7311C22.838 30.4898 22.6908 31.2711 22.5323 32.0411C22.4304 32.5393 22.1926 32.7771 21.649 32.7771C20.4261 32.7545 19.1918 32.7545 17.9688 32.7771C17.4819 32.7885 17.2441 32.562 17.1422 32.109C16.9837 31.339 16.7912 30.569 16.6326 29.7877C16.5534 29.38 16.3269 29.1649 15.9532 28.9724C15.1152 28.5534 14.3113 28.0665 13.5186 27.5569C13.1902 27.3418 12.9071 27.2625 12.5221 27.3984C11.7521 27.6702 10.9708 27.874 10.2008 28.1344C9.77046 28.2816 9.47604 28.1684 9.26089 27.7721C8.63809 26.6737 8.00396 25.5866 7.36983 24.4882C7.14336 24.1032 7.19998 23.7861 7.52837 23.4804C8.1172 22.9482 8.69471 22.4046 9.28354 21.8837C9.57796 21.6233 9.67987 21.3402 9.65722 20.9439C9.61193 19.97 9.66855 18.9849 9.63457 18.011C9.62325 17.7053 9.49869 17.3429 9.29486 17.1278C8.76265 16.5616 8.18514 16.052 7.59631 15.5538C7.19998 15.2141 7.13204 14.863 7.40381 14.4101C8.02661 13.357 8.63809 12.2926 9.24957 11.2281C9.47604 10.8205 9.77046 10.6846 10.2347 10.8431C10.9594 11.0923 11.7068 11.2961 12.4429 11.5452C12.8732 11.6924 13.2015 11.6245 13.5865 11.364C14.3452 10.8545 15.1492 10.3902 15.9758 9.98253C16.3608 9.79003 16.5647 9.55223 16.6439 9.1559C16.8025 8.39721 16.9837 7.64985 17.1309 6.89116C17.2328 6.41556 17.4706 6.17776 17.9801 6.18909C19.2031 6.21174 20.4374 6.21174 21.6603 6.18909C22.1699 6.17776 22.419 6.40424 22.5209 6.87983C22.6795 7.64985 22.8267 8.4425 23.0418 9.18987C23.1324 9.47296 23.3702 9.76738 23.6307 9.92591C24.4573 10.4468 25.3066 10.9337 26.1672 11.3867C26.4276 11.5226 26.8013 11.6131 27.0844 11.5339C27.8884 11.3414 28.6697 11.0696 29.4624 10.8092C29.8474 10.6846 30.1305 10.7525 30.3343 11.1036C31.0024 12.2473 31.6592 13.391 32.3159 14.5347C32.3726 14.6479 32.3952 14.7838 32.4631 14.9763C32.3499 15.1348 32.248 15.3273 32.1008 15.4745C31.512 16.0294 30.8892 16.5503 30.323 17.1391C30.1418 17.3316 30.0172 17.6487 30.0172 17.9204C29.9833 18.9509 29.9719 19.9927 30.0172 21.0231C30.0286 21.2836 30.1531 21.612 30.3456 21.7932C30.8778 22.348 31.4667 22.8689 32.0442 23.3671C32.4405 23.7635 32.5198 24.1145 32.2367 24.5901Z" fill="#3C388D"/>
<path d="M25.0685 16.2784C24.5023 14.025 22.4754 12.3944 20.2107 12.2585C17.7987 12.1226 15.5906 13.5381 14.7413 15.7575C13.9034 17.9317 14.5715 20.3663 16.4399 21.861C17.0853 22.3706 17.4024 22.9934 17.4137 23.7974C17.4137 24.3635 17.4024 24.9297 17.4364 25.4959C17.4817 26.2886 17.9572 26.7302 18.7499 26.7415C19.1123 26.7415 19.4633 26.7415 19.8257 26.7415C20.222 26.7415 20.6183 26.7528 21.0146 26.7415C21.7394 26.7189 22.2036 26.2546 22.2376 25.5299C22.2602 25.043 22.2602 24.5447 22.2376 24.0578C22.215 23.1066 22.5773 22.3932 23.3247 21.7591C25.0232 20.321 25.6234 18.4412 25.0685 16.2784ZM21.0033 25.5525C20.2786 25.5525 19.5652 25.5639 18.8405 25.5412C18.7612 25.5412 18.6367 25.3487 18.6253 25.2355C18.5914 24.975 18.614 24.7146 18.614 24.3862H21.0033V25.5525ZM22.6679 20.7626C21.5695 21.7364 21.5695 21.7364 21.0373 23.1066H18.5914C18.3989 22.0422 17.6855 21.3514 16.9155 20.6607C15.1716 19.0754 15.1829 16.3803 16.8815 14.7044C18.58 13.0285 21.2638 13.0625 22.917 14.7837C24.525 16.4822 24.4117 19.1999 22.6679 20.7626Z" fill="#3C388D"/>
</g>
<defs>
<clipPath id="clip0_304_562">
<rect width="27.6525" height="29" fill="white" transform="translate(6 5)"/>
</clipPath>
</defs>
</svg>
