<svg xmlns="http://www.w3.org/2000/svg" width="40" height="40" viewBox="0 0 40 40" fill="none">
<g clip-path="url(#clip0_172_160)">
<path d="M33.9994 18.5559C34.0102 17.9954 33.7623 17.726 33.2342 17.6506C32.469 17.5428 31.7146 17.3704 30.9494 17.3057C30.4967 17.2626 30.0009 17.1871 29.7207 16.7884C29.4944 16.465 29.4513 16.0447 29.3112 15.6891C29.1603 15.3011 29.0525 14.9777 29.3219 14.6113C29.8932 13.8353 30.4428 13.027 30.9925 12.2295C31.1002 12.0786 31.1649 11.8846 31.2835 11.669C31.1649 11.4858 31.0679 11.2918 30.9278 11.1409C30.238 10.4296 29.5267 9.75065 28.837 9.03933C28.4597 8.65134 28.1149 8.66212 27.7053 8.97467C26.9617 9.5351 26.1749 10.0524 25.442 10.6236C25.0864 10.8931 24.8062 10.9793 24.3858 10.7314C24.041 10.5266 23.6099 10.4404 23.2542 10.2464C23.071 10.1494 22.8662 9.92309 22.8339 9.72909C22.6183 8.71601 22.4567 7.68136 22.2842 6.6575C22.2088 6.18329 21.9393 5.97852 21.4759 5.97852C20.4844 5.97852 19.5036 5.98929 18.5121 5.97852C18.0487 5.97852 17.7684 6.17251 17.693 6.64672C17.5744 7.44426 17.3912 8.23102 17.3158 9.03933C17.2727 9.44888 17.1972 9.89075 16.8739 10.1817C16.626 10.3973 16.335 10.4189 16.044 10.5266C15.7423 10.6344 15.4621 10.8392 15.128 10.85C14.8801 10.8607 14.7184 10.7098 14.5352 10.5697C14.2873 10.3865 14.0286 10.2033 13.77 10.0201C13.2634 9.65365 12.7461 9.29799 12.2504 8.93156C11.8624 8.65134 11.539 8.68367 11.2049 9.01778C10.5152 9.72909 9.81463 10.4189 9.10332 11.1086C8.74766 11.4535 8.70455 11.7984 8.99554 12.1971C9.41587 12.7791 9.77152 13.415 10.2457 13.9539C10.5691 14.3203 10.8708 14.773 10.8277 15.2903C10.7846 15.9154 10.3104 17.0901 9.62064 17.1871C8.63988 17.3272 7.66991 17.5105 6.69993 17.6613C6.20416 17.7368 5.99939 18.017 6.01017 18.5128C6.02095 19.4827 6.02095 20.4527 6.01017 21.4227C6.01017 21.9077 6.20416 22.1879 6.71071 22.2633C7.72379 22.425 8.7261 22.5974 9.72841 22.813C10.3966 22.9531 10.6229 24.0309 10.7954 24.5805C10.8601 24.7745 10.8385 25.0763 10.7307 25.2379C10.1595 26.0894 9.56675 26.9192 8.95243 27.7491C8.67222 28.1371 8.68299 28.4604 9.02787 28.7945C9.74997 29.4951 10.4613 30.2064 11.1618 30.9285C11.4959 31.2734 11.83 31.2949 12.218 31.0147C12.9617 30.4866 13.7269 29.98 14.4597 29.4304C14.9663 29.0424 15.4728 29.1825 16.0009 29.4196C16.5506 29.6675 17.111 29.7214 17.208 30.4004C17.3481 31.3919 17.5421 32.3834 17.7038 33.375C17.7684 33.7737 18.0055 33.9893 18.3935 33.9893C19.4497 34.0001 20.5167 34.0001 21.5729 33.9893C21.9717 33.9893 22.2088 33.7737 22.2734 33.375C22.4136 32.5667 22.5968 31.7583 22.6938 30.9392C22.7692 30.2279 22.9955 29.7322 23.7069 29.5058C24.2781 29.3226 24.8493 28.9023 25.3989 29.3118C26.1749 29.8831 26.9832 30.4219 27.77 30.9931C28.1687 31.2841 28.5136 31.2841 28.8693 30.9177C29.559 30.2064 30.2596 29.5058 30.9601 28.8161C31.3158 28.4712 31.3481 28.1263 31.0463 27.7275C30.6152 27.1563 30.2165 26.5528 29.7854 25.9816C29.4082 25.4643 29.0633 25.0871 29.2896 24.4081C29.4513 23.9123 29.6237 22.8884 30.2488 22.7914C31.2619 22.6298 32.2642 22.425 33.2773 22.2741C33.8054 22.1987 34.0209 21.9185 34.0102 21.4011C33.9886 20.4635 33.9778 19.5151 33.9994 18.5559ZM32.7384 20.9269C32.7384 21.0239 32.5121 21.164 32.3612 21.1964C31.4128 21.3904 30.4536 21.5628 29.5052 21.7137C29.0956 21.7784 28.8908 21.9831 28.7507 22.3603C28.4813 23.0932 28.1903 23.8261 27.8454 24.5374C27.6622 24.9146 27.6838 25.2056 27.9316 25.5289C28.5675 26.3911 29.1926 27.2749 29.8177 28.1371C29.2573 28.6652 28.7184 29.1825 28.1149 29.7537C27.3497 29.2256 26.4767 28.6329 25.636 28.0078C25.2157 27.6952 24.8816 27.6844 24.4074 27.9323C23.7607 28.2772 23.0602 28.5143 22.3704 28.773C22.004 28.9131 21.7669 29.0963 21.7022 29.5166C21.5621 30.4543 21.3466 31.3811 21.2065 32.3295C21.1526 32.7068 20.9909 32.8038 20.646 32.793C20.0533 32.7714 19.4713 32.7822 18.8246 32.7822C18.6414 31.6937 18.4366 30.6375 18.2858 29.5813C18.2211 29.1502 18.0163 28.9346 17.6068 28.7945C16.8847 28.5359 16.1626 28.2449 15.4728 27.9215C15.0848 27.7383 14.7831 27.7275 14.4274 27.9862C13.5544 28.6113 12.6707 29.2256 11.7977 29.8292C11.2588 29.2795 10.7415 28.7622 10.1703 28.191C10.3643 27.9108 10.5798 27.5874 10.8062 27.2749C11.1079 26.8546 11.3774 26.3911 11.7223 26.0139C12.2719 25.4104 12.315 24.8499 11.8731 24.1386C11.539 23.5998 11.3666 22.9531 11.1726 22.3388C11.054 21.9831 10.8601 21.7999 10.5044 21.746C9.5452 21.5844 8.59677 21.4119 7.64835 21.2179C7.49747 21.1856 7.27114 20.9916 7.26036 20.8623C7.21725 20.2156 7.23881 19.5797 7.23881 18.8684C8.32734 18.6852 9.37276 18.4912 10.4397 18.3296C10.8493 18.2649 11.054 18.0817 11.1942 17.6937C11.4636 16.9393 11.7869 16.1956 12.121 15.4627C12.2827 15.1071 12.2827 14.8269 12.0564 14.5143C11.4313 13.6413 10.8169 12.7468 10.2134 11.8846C10.7738 11.3565 11.3127 10.8392 11.9055 10.268C12.606 10.7637 13.4251 11.3134 14.2011 11.9169C14.7076 12.3157 15.128 12.3588 15.7099 12.0247C16.2919 11.6906 16.9601 11.4858 17.6068 11.2703C18.0055 11.1302 18.2427 10.9362 18.2965 10.4943C18.4259 9.55665 18.6091 8.61901 18.7492 7.68136C18.7923 7.36882 18.9216 7.26104 19.2342 7.27182C19.7407 7.29337 20.2365 7.2826 20.743 7.27182C21.034 7.26104 21.1418 7.36882 21.1957 7.67059C21.3466 8.65134 21.5082 9.62132 21.7346 10.5805C21.7992 10.8392 22.0687 11.1194 22.3166 11.2379C23.0494 11.6044 23.8362 11.863 24.5798 12.2079C24.9463 12.3696 25.2157 12.3265 25.5283 12.1001C26.4012 11.4643 27.2742 10.8392 28.1364 10.2249C28.6753 10.7853 29.1926 11.3242 29.7638 11.9062C29.2142 12.6929 28.6214 13.5767 27.9963 14.4173C27.6838 14.8376 27.6838 15.1825 27.9209 15.6459C28.255 16.271 28.5029 16.95 28.7292 17.629C28.8801 18.0493 29.0956 18.2757 29.5483 18.3403C30.5937 18.4804 31.6391 18.6744 32.7492 18.8684C32.7492 19.5366 32.7708 20.2264 32.7384 20.9269Z" fill="#ffffff"/>
<path d="M20.0739 15.1393C17.358 15.1178 15.1594 17.2517 15.1486 19.9245C15.127 22.6405 17.261 24.8283 19.9338 24.8499C22.6498 24.8714 24.8484 22.7375 24.8591 20.0646C24.8807 17.3595 22.7467 15.1609 20.0739 15.1393ZM19.9877 23.6428C17.9939 23.6428 16.3557 21.9938 16.3449 20C16.3449 17.9846 18.0046 16.3356 20.0308 16.3464C22.0247 16.3572 23.6521 18.0169 23.6413 20.0108C23.6413 22.0154 21.9923 23.6536 19.9877 23.6428Z" fill="#ffffff"/>
</g>
<defs fill="#000000">
<clipPath id="clip0_172_160" fill="#000000">
<rect width="28" height="28" fill="white" transform="translate(6 6)"/>
</clipPath>
</defs>
</svg>