<svg width="40" height="40" viewBox="0 0 40 40" fill="none" xmlns="http://www.w3.org/2000/svg">
<g clip-path="url(#clip0_501_819)">
<path d="M29.7108 11.3939C30.5776 11.6674 31.3566 11.4595 31.9162 10.7593C32.5525 9.96059 33.167 9.15095 33.8033 8.35226C34.0666 8.02403 34.0776 7.7505 33.7594 7.4551C33.3425 7.07216 32.9475 6.67829 32.5635 6.26253C32.2563 5.9343 31.982 5.90147 31.6309 6.19688C30.8519 6.83146 30.029 7.41133 29.272 8.05685C28.9757 8.3085 28.6795 8.65861 28.6027 9.00872C28.493 9.52295 28.5698 10.0919 28.5698 10.628C26.156 13.035 23.6764 15.5077 21.1748 18.0022C19.7814 16.6565 18.3441 15.256 16.8958 13.8884C16.5996 13.6039 16.5227 13.3632 16.6105 12.9475C17.0384 10.9453 16.5118 9.18378 14.9757 7.80521C13.4397 6.43758 11.6403 6.09841 9.67635 6.71111C8.97416 6.92993 8.90833 7.21439 9.43497 7.73956C10.0933 8.39602 10.7516 9.04154 11.3989 9.70894C11.5306 9.84024 11.6732 10.0372 11.6732 10.2013C11.6732 10.7812 11.6074 11.361 11.5745 11.9628C11.0917 11.9956 10.6309 12.0066 10.1811 12.0613C9.76413 12.105 9.46789 11.9847 9.17165 11.6783C8.54626 11.0109 7.89892 10.3763 7.24062 9.74177C6.83466 9.34789 6.53842 9.41354 6.34093 9.9387C6.03372 10.7702 5.91303 11.6346 6.05566 12.5098C6.59328 15.7703 9.47886 17.6849 12.7375 16.9628C12.8911 16.93 13.1215 16.93 13.2202 17.0175C13.9773 17.7396 14.7234 18.4836 15.4914 19.2495C15.3159 19.4355 15.1842 19.5887 15.0416 19.72C12.9569 21.8097 10.8613 23.8885 8.77667 25.9673C7.73435 27.0067 7.32839 28.2321 7.7124 29.6544C8.44751 32.3678 11.7829 33.2321 13.8237 31.2408C15.9742 29.1402 18.0807 27.0067 20.2093 24.8841C20.3519 24.7419 20.4945 24.6106 20.692 24.4246C21.2626 25.0045 21.7782 25.5515 22.3159 26.0657C22.5792 26.3174 22.656 26.5471 22.5792 26.9191C22.1622 28.9542 22.7108 30.7157 24.2798 32.0942C25.8268 33.4509 27.6372 33.7682 29.5901 33.1227C30.1826 32.9258 30.2594 32.6194 29.8206 32.1708C29.1622 31.4925 28.482 30.836 27.8127 30.1577C27.692 30.0373 27.5384 29.8623 27.5275 29.72C27.5275 29.1183 27.5713 28.5275 27.6043 27.8929C28.087 27.8601 28.5478 27.8382 28.9977 27.7835C29.4036 27.7397 29.7108 27.8382 30.0071 28.1555C30.5886 28.7901 31.214 29.3699 31.8174 29.9717C32.4099 30.5625 32.6952 30.4968 32.9365 29.6763C33.4961 27.7288 33.145 25.9563 31.7626 24.4574C30.3801 22.9585 28.6356 22.4333 26.6497 22.871C26.1669 22.9804 25.8927 22.8819 25.5635 22.5427C24.3895 21.2955 23.1936 20.081 22.0086 18.8556C21.9648 18.8119 21.9428 18.7353 21.888 18.6587C24.3127 16.2407 26.7265 13.8337 29.1513 11.4486C29.261 11.3501 29.5463 11.3392 29.7108 11.3939ZM29.7218 8.77896C30.4679 8.16626 31.2359 7.59733 32.0369 6.98463C32.366 7.3238 32.6732 7.65203 33.0024 7.99121C32.4099 8.74614 31.8394 9.52295 31.2249 10.256C30.808 10.7702 30.0839 10.7812 29.634 10.3216C29.1952 9.87306 29.2171 9.19472 29.7218 8.77896ZM8.9193 15.5514C7.33936 14.523 6.48356 12.3895 7.06507 10.7374C7.69046 11.372 8.26099 12.0066 8.88638 12.5755C9.09485 12.7724 9.44595 12.9147 9.73121 12.9147C10.4334 12.9365 11.1466 12.849 11.8597 12.8271C12.2438 12.8162 12.4193 12.6083 12.4303 12.2473C12.4742 11.5033 12.54 10.7593 12.529 10.0153C12.529 9.77459 12.3754 9.50106 12.2108 9.31507C11.6074 8.69143 10.982 8.10062 10.3127 7.4551C12.2328 6.90805 14.2955 7.80521 15.2939 9.55577C16.3143 11.3392 15.9632 13.6477 14.4601 15.0591C12.9789 16.4705 10.6528 16.6784 8.9193 15.5514ZM14.0541 16.6018C14.7782 15.8687 15.4804 15.1794 16.1936 14.4573C16.83 15.0919 17.5212 15.7812 18.3002 16.569C18.0478 16.7987 17.7626 17.0394 17.4883 17.2911C17.214 17.5318 17.2249 17.7725 17.3785 18.1116C17.4992 18.3742 17.5651 18.7462 17.4773 19.0088C17.3347 19.4683 16.9726 19.5121 16.6325 19.1729C15.7547 18.3086 14.866 17.4224 14.0541 16.6018ZM30.1058 24.2058C31.7845 25.1905 32.6732 27.2583 32.1575 29.1073C31.6199 28.5712 31.0713 28.1008 30.6215 27.5537C30.1607 26.9957 29.6231 26.8426 28.9428 26.941C28.4162 27.0067 27.8895 27.0067 27.3629 27.0395C27.0008 27.0504 26.7923 27.2145 26.7704 27.5975C26.7375 28.3634 26.6607 29.1183 26.6607 29.8842C26.6607 30.103 26.8033 30.3656 26.9679 30.5406C27.5604 31.1752 28.1967 31.766 28.877 32.4334C26.9021 32.9367 24.8723 32.0395 23.8848 30.2999C22.8974 28.5494 23.2155 26.2955 24.6638 24.8841C26.0901 23.4618 28.3833 23.1773 30.1058 24.2058ZM24.8613 23.1007C24.1811 23.8228 23.5008 24.534 22.7657 25.3108C22.0964 24.6434 21.3503 23.9104 20.6262 23.1554C20.5494 23.0789 20.5713 22.8163 20.6481 22.6959C20.8785 22.3239 21.3723 22.2473 21.8002 22.5318C22.1622 22.7834 22.4365 22.7397 22.6999 22.4224C22.9303 22.1598 23.1607 21.9082 23.3691 21.6675C23.9397 22.1926 24.4334 22.674 24.8613 23.1007ZM22.7876 21.0876C22.5243 21.4486 22.261 21.7112 21.6466 21.558C20.4068 21.2298 19.3096 22.4333 19.6826 23.6587C19.7923 24.0088 19.7155 24.2058 19.4632 24.4465C17.4334 26.4596 15.4146 28.4837 13.3848 30.4968C12.2438 31.6238 10.7845 31.7988 9.62149 30.9673C8.20613 29.9498 8.04156 28.0023 9.28137 26.7222C10.4883 25.4859 11.7281 24.2714 12.9459 23.057C13.7798 22.2255 14.6356 21.3939 15.4585 20.5405C15.7218 20.267 15.9412 20.1795 16.3362 20.2889C17.4992 20.639 18.6732 19.5558 18.4428 18.3742C18.3111 17.6521 18.3111 17.6521 18.8597 17.1816C20.1873 18.4946 21.471 19.7856 22.7876 21.0876Z" fill="#3C388D"/>
</g>
<defs>
<clipPath id="clip0_501_819">
<rect width="28" height="27.451" fill="white" transform="translate(6 6)"/>
</clipPath>
</defs>
</svg>
