<svg width="40" height="40" viewBox="0 0 40 40" fill="none" xmlns="http://www.w3.org/2000/svg">
<g clip-path="url(#clip0_501_731)">
<path d="M21.255 9.92277C21.1122 9.31855 20.5848 8.80223 19.9367 8.79124C19.5961 8.78026 19.2116 8.89011 18.893 9.04391C17.7505 9.60418 16.63 10.1974 15.4765 10.8016C15.7072 9.24166 15.3666 8.35182 14.3669 7.81352C13.4881 7.34113 12.4554 7.46197 11.7084 8.12112C10.8625 8.87913 10.7307 9.77995 11.291 11.2191C11.269 11.2301 11.258 11.252 11.236 11.252C11.1701 11.274 11.0932 11.285 11.0273 11.296C9.55522 11.5267 8.64341 12.3836 8.24793 13.8227C7.89639 15.0751 7.52287 16.3164 7.17133 17.5578C7.09443 17.8215 7.0395 18.0961 7.06147 18.3598C7.1164 19.0519 7.64371 19.5792 8.32483 19.689C8.99495 19.7989 9.67606 19.4034 9.93972 18.7223C10.0825 18.3488 10.1924 17.9643 10.3242 17.5908C10.3462 17.6018 10.3791 17.6127 10.4011 17.6237V23.8526C9.24762 23.2154 8.18201 23.2704 7.31414 24.2261C6.38036 25.2698 6.54515 26.3903 7.35809 27.4669C6.655 27.9283 6.23755 28.5325 6.23755 29.3454C6.22656 30.6088 6.23755 31.8722 6.22656 33.1355C6.22656 33.5749 6.41332 33.7727 6.85275 33.7727C8.30286 33.7727 9.74198 33.7617 11.1921 33.7727C11.6535 33.7727 11.8622 33.5749 11.8512 33.1135C11.8402 32.1798 11.8402 31.246 11.8512 30.3122C11.8622 29.4004 11.9281 28.4776 11.0712 27.7086H14.2571C14.0703 28.3128 13.7847 28.8621 13.7408 29.4333C13.6639 30.6418 13.7188 31.8502 13.7078 33.0586C13.7078 33.5639 13.9275 33.7837 14.4438 33.7727C15.8171 33.7507 17.1903 33.7727 18.5635 33.7617C19.2446 33.7617 19.3435 33.6518 19.3544 32.9597C19.3544 31.9491 19.3325 30.9494 19.3654 29.9387C19.3984 28.906 19.1897 28.0162 18.2009 27.4559C18.915 26.5771 19.1128 25.6543 18.5964 24.6655C18.0801 23.6768 17.1683 23.3692 16.0917 23.4242V22.8749C16.0917 20.0516 16.1027 17.2392 16.0807 14.4159C16.0807 14.0094 16.2016 13.8007 16.5751 13.6249C17.9043 12.9658 19.2116 12.2737 20.5189 11.5816C21.1341 11.252 21.4088 10.5929 21.255 9.92277ZM13.2574 8.48364C14.0264 8.48364 14.6526 9.10983 14.6526 9.86784C14.6526 10.6259 14.0264 11.252 13.2574 11.263C12.4884 11.274 11.8622 10.6698 11.8402 9.9008C11.8183 9.12081 12.4664 8.47266 13.2574 8.48364ZM9.02791 24.4019C9.80789 24.4019 10.4121 25.0061 10.4121 25.7971C10.4121 26.5771 9.79691 27.1923 9.02791 27.1923C8.25891 27.1923 7.63273 26.5771 7.63273 25.7971C7.64371 25.0061 8.25891 24.4019 9.02791 24.4019ZM10.8955 32.4764C10.8955 32.5972 10.7087 32.8059 10.6098 32.8169C9.47832 32.8389 8.35778 32.8279 7.1933 32.8279C7.1933 31.5426 7.16034 30.3232 7.20429 29.1038C7.22626 28.5655 7.74259 28.1919 8.32483 28.159C8.76425 28.137 9.20368 28.137 9.64311 28.159C10.3682 28.181 10.8625 28.6204 10.8955 29.3454C10.9394 30.3891 10.9174 31.4327 10.8955 32.4764ZM18.3877 29.3015C18.4207 30.455 18.3987 31.5975 18.3987 32.8059H14.6855C14.6855 31.5755 14.6526 30.3671 14.6965 29.1697C14.7185 28.6094 15.2348 28.2029 15.828 28.17C16.2894 28.148 16.7399 28.148 17.2013 28.17C17.8714 28.1919 18.3767 28.6424 18.3877 29.3015ZM16.5311 24.4019C17.3001 24.4019 17.9263 25.0171 17.9373 25.7751C17.9483 26.5331 17.3221 27.1703 16.5531 27.1813C15.7841 27.1923 15.1469 26.588 15.125 25.83C15.103 25.05 15.7402 24.4019 16.5311 24.4019ZM19.7939 10.9115C18.4207 11.6255 17.0475 12.3506 15.6523 13.0427C15.2568 13.2404 15.103 13.4931 15.103 13.9435C15.114 17.1074 15.114 20.2713 15.103 23.4352C15.103 23.6878 14.9712 23.9954 14.8064 24.1932C14.1692 24.9402 14.0703 25.7531 14.356 26.7089H13.7188V18.8102H12.785V26.6979H11.3788V14.6576C11.3788 14.5148 11.4228 14.339 11.3679 14.2182C11.269 14.0094 11.1152 13.8337 10.9724 13.6469C10.7856 13.7787 10.511 13.8886 10.4341 14.0644C10.1924 14.6576 10.0386 15.2728 9.84085 15.888C9.59917 16.657 9.35748 17.426 9.12678 18.195C9.01692 18.5685 8.8082 18.8431 8.37975 18.7223C7.95131 18.6015 7.92934 18.2609 8.05018 17.8874C8.44567 16.5361 8.81918 15.1849 9.22565 13.8337C9.52227 12.8559 10.3242 12.2737 11.3569 12.2298C11.4448 12.2298 11.5436 12.2188 11.6315 12.2298C13.8286 12.5044 15.8171 11.9881 17.6517 10.7577C18.168 10.4171 18.7502 10.1864 19.2995 9.88981C19.673 9.69207 20.0465 9.57123 20.2882 10.0326C20.5189 10.494 20.1564 10.7247 19.7939 10.9115Z" fill="#3C388D"/>
<path d="M34.3382 6.44038C34.3382 9.97777 34.3382 13.5042 34.3382 17.0416C34.3382 17.7007 34.2283 17.8325 33.6461 17.8325C28.1862 17.8325 22.7373 17.8325 17.2774 17.8325C17.2005 17.8325 17.1346 17.8215 17.0248 17.8106V16.8988H33.3495V6.62714H7.1706V15.4596H6.25879C6.2478 15.3168 6.21484 15.163 6.21484 15.0092C6.21484 12.1529 6.21484 9.29666 6.21484 6.44038C6.21484 5.74829 6.3247 5.64941 7.0168 5.64941C15.8603 5.64941 24.7037 5.64941 33.5472 5.64941C34.2393 5.64941 34.3382 5.75927 34.3382 6.44038Z" fill="#3C388D"/>
<path d="M33.2178 27.478C34.0966 26.1158 34.0527 24.9183 33.1189 24.0614C32.251 23.2705 30.9657 23.2265 30.0539 23.9736C29.0212 24.8085 28.9443 25.973 29.8232 27.456C28.9773 28.1701 28.7356 28.5656 28.7356 29.3785C28.7246 30.6199 28.7356 31.8723 28.7246 33.1136C28.7246 33.575 28.9114 33.7838 29.3728 33.7838C30.8009 33.7728 32.229 33.7728 33.6572 33.7838C34.1515 33.7838 34.3603 33.586 34.3493 33.0917C34.3383 32.081 34.3163 31.0813 34.3493 30.0706C34.3932 29.005 34.2175 28.0602 33.2178 27.478ZM31.5589 24.402C32.3389 24.413 32.9321 25.0392 32.9211 25.8192C32.9102 26.5882 32.284 27.2034 31.504 27.1924C30.735 27.1814 30.1308 26.5552 30.1418 25.7752C30.1528 24.9842 30.7679 24.38 31.5589 24.402ZM33.3825 32.828H29.6914C29.6914 31.5537 29.6474 30.3343 29.7133 29.1149C29.7353 28.5436 30.2406 28.1921 30.8119 28.1591C31.2843 28.1371 31.7676 28.1371 32.24 28.1591C32.8772 28.1921 33.3496 28.6315 33.3716 29.2796C33.4045 30.4331 33.3825 31.5866 33.3825 32.828Z" fill="#3C388D"/>
<path d="M25.7138 27.4781C26.6147 26.0939 26.5488 24.8745 25.5491 24.0176C24.6592 23.2486 23.3629 23.2596 22.4841 24.0286C21.4953 24.8964 21.4294 26.1378 22.3522 27.4671C21.5832 27.9395 21.2207 28.6096 21.2207 29.4884C21.2207 30.6749 21.2317 31.8614 21.2207 33.0588C21.2207 33.5641 21.4075 33.7948 21.9348 33.7839C23.319 33.7619 24.7141 33.7839 26.0983 33.7729C26.7026 33.7729 26.8454 33.6301 26.8454 33.0368C26.8564 31.9822 26.8234 30.9166 26.8564 29.851C26.8893 28.8513 26.6147 28.0164 25.7138 27.4781ZM24.1209 24.4021C24.8899 24.446 25.4831 25.1052 25.4392 25.8632C25.3953 26.6322 24.7471 27.2144 23.9781 27.1815C23.2201 27.1485 22.6049 26.5003 22.6379 25.7423C22.6598 24.9514 23.319 24.3581 24.1209 24.4021ZM25.8896 32.7951H22.1765C22.1765 31.5757 22.1435 30.3893 22.1874 29.2138C22.2094 28.6096 22.7257 28.1921 23.3409 28.1702C23.8133 28.1482 24.2967 28.1482 24.7691 28.1702C25.3733 28.2031 25.8676 28.6535 25.8896 29.2468C25.9116 30.4112 25.8896 31.5867 25.8896 32.7951Z" fill="#3C388D"/>
</g>
<defs>
<clipPath id="clip0_501_731">
<rect width="28.1453" height="28.1343" fill="white" transform="translate(6.21484 5.64941)"/>
</clipPath>
</defs>
</svg>
