<svg width="40" height="40" viewBox="0 0 40 40" fill="none" xmlns="http://www.w3.org/2000/svg">
<g clip-path="url(#clip0_501_726)">
<path d="M30.4991 25.4785C30.4707 24.8888 30.023 24.4199 29.4473 24.292C29.362 24.2707 29.2696 24.2565 29.1559 24.2281V21.3223C28.8006 21.4573 28.4807 21.5709 28.1751 21.7059C27.9904 21.7912 27.8909 21.7485 27.7772 21.5851C27.3223 20.9599 26.7253 20.5337 25.9649 20.3774C25.0125 20.1784 24.0602 20.015 23.1008 19.8303C22.9941 19.809 22.9018 19.745 22.8023 19.6953C22.8733 19.603 22.9231 19.4751 23.0155 19.4111C23.9891 18.7504 24.6359 17.8623 24.9272 16.7185C24.9699 16.5409 25.0481 16.4627 25.2186 16.413C25.9009 16.1856 26.4126 15.5391 26.4197 14.8286C26.4339 13.2301 26.4624 11.6387 26.4055 10.0401C26.3629 8.88917 25.7303 8.07925 24.6785 7.60324C24.5079 7.52508 24.3374 7.42562 24.2023 7.29774C23.5556 6.67963 22.8307 6.18941 21.9778 5.92654C21.5799 5.79866 21.1605 5.73472 20.7554 5.63525H19.7107C19.6325 5.65657 19.5544 5.67788 19.4691 5.69209C16.7826 6.06864 14.7145 8.34212 14.6505 11.0561C14.6221 12.2781 14.6363 13.493 14.6434 14.715C14.6505 15.5533 15.1125 16.1643 15.9085 16.4627C16.0009 16.4982 16.1004 16.6048 16.1217 16.6972C16.4273 17.8765 17.0882 18.793 18.1045 19.468C18.1827 19.5177 18.2111 19.6385 18.2609 19.7237C18.1898 19.7664 18.1188 19.8303 18.0406 19.8445C17.5076 19.944 16.9745 20.0363 16.4486 20.1358C15.944 20.2282 15.4323 20.2992 14.9419 20.4413C14.1673 20.6544 13.5845 21.1447 13.1439 21.8125C12.7317 21.6562 12.3337 21.507 11.893 21.3365V24.2565C11.822 24.2707 11.7793 24.2849 11.7367 24.292C11.026 24.427 10.5925 24.8888 10.564 25.6064C10.5427 26.2529 10.5427 26.9065 10.5711 27.5601C10.5996 28.1924 11.0615 28.6756 11.6798 28.7821C11.7509 28.7963 11.822 28.8105 11.9072 28.8319C11.9072 29.3079 11.9144 29.7768 11.9001 30.2457C11.893 30.4162 11.9357 30.5015 12.1062 30.5725C14.8638 31.6382 17.6213 32.711 20.3788 33.7838C20.4712 33.8193 20.5991 33.8193 20.6915 33.7838C23.449 32.7181 26.2065 31.6453 28.964 30.5725C29.1346 30.5086 29.1772 30.4162 29.1701 30.2457C29.1559 29.7768 29.1701 29.315 29.1701 28.839C29.2412 28.8177 29.2909 28.8034 29.3478 28.7892C30.0443 28.6685 30.4849 28.1996 30.5133 27.5033C30.5347 26.8213 30.5276 26.1463 30.4991 25.4785ZM23.6693 20.8178C24.5435 21.031 25.4105 21.2086 26.2491 21.4715C26.5476 21.5638 26.7822 21.8622 27.1162 22.1109C25.5953 22.7006 24.1597 23.2618 22.6601 23.8444C23.0013 22.8213 23.3282 21.8622 23.6693 20.8178ZM19.334 20.0292C20.1371 20.2139 20.926 20.214 21.7433 20.0576C21.3738 20.3347 21.0042 20.6189 20.6275 20.8889C20.5849 20.9173 20.4854 20.9173 20.4427 20.8889C20.0661 20.6189 19.6965 20.3347 19.334 20.0292ZM19.8102 21.5567C19.5046 21.8551 19.2132 22.1464 18.9005 22.459C18.7086 21.8977 18.5167 21.3223 18.2964 20.6686C18.4599 20.6829 18.5949 20.6615 18.6731 20.7184C19.064 20.9884 19.4407 21.2867 19.8102 21.5567ZM22.6743 20.6544C22.6957 20.6829 22.717 20.7042 22.7383 20.7326C22.5464 21.3081 22.3545 21.8835 22.1626 22.459C21.8499 22.1464 21.5585 21.8551 21.2458 21.5496C21.7433 21.2939 22.0773 20.761 22.6743 20.6544ZM25.0978 15.4681V13.9903C25.4034 14.1537 25.5171 14.4237 25.5242 14.7221C25.5242 15.0205 25.4105 15.2833 25.0978 15.4681ZM15.9724 15.4681C15.6597 15.2904 15.546 15.0205 15.546 14.7221C15.546 14.4237 15.6597 14.1537 15.9724 13.9832V15.4681ZM15.9938 12.4841C16.0506 12.8251 15.9867 13.0951 15.5531 13.1164C15.546 13.0596 15.5318 12.9885 15.5389 12.9246C15.5673 12.072 15.5176 11.2124 15.6455 10.374C15.9724 8.1645 18.1116 6.4736 20.3503 6.57306C21.6509 6.6299 22.7383 7.13433 23.6551 8.04372C23.8257 8.20713 24.046 8.34212 24.2592 8.43448C25.0623 8.7755 25.4958 9.37229 25.5242 10.2319C25.5527 11.1911 25.5313 12.1573 25.5313 13.1306C25.0907 13.1093 25.0125 12.8536 25.0836 12.477C24.643 12.477 24.2308 12.477 23.8257 12.477C23.2642 12.477 22.7099 12.3989 22.184 12.1857C21.4875 11.9015 20.9189 11.4539 20.4641 10.8572C20.3575 10.7151 20.2509 10.5801 20.1016 10.3811C19.8671 10.6369 19.6396 10.8785 19.4193 11.12C18.5594 12.0436 17.4933 12.4912 16.2354 12.4699C16.1643 12.4628 16.0933 12.4699 15.9938 12.4841ZM17.0172 16.484C16.9248 16.1075 16.9177 15.7025 16.9106 15.3118C16.8964 14.6652 16.9035 14.0116 16.9035 13.3722C18.7726 12.8465 18.7726 12.8465 20.059 11.795C21.1748 12.9601 22.5464 13.4503 24.1668 13.358C24.1668 13.5569 24.1668 13.7274 24.1668 13.8979C24.1526 14.651 24.2023 15.4041 24.1099 16.1501C23.8967 17.8694 22.454 19.1767 20.7768 19.2548C18.9574 19.333 17.4294 18.2247 17.0172 16.484ZM15.4465 21.2299C16.0364 21.102 16.6334 21.0097 17.2304 20.896C17.3583 20.8747 17.4294 20.896 17.472 21.031C17.7634 21.9333 18.069 22.8356 18.3675 23.7378C18.3746 23.7521 18.3604 23.7734 18.3462 23.816C16.9106 23.2618 15.4892 22.7077 14.0251 22.1393C14.3876 21.6349 14.8709 21.3507 15.4465 21.2299ZM11.9854 27.8798C11.6585 27.8869 11.4737 27.7235 11.4524 27.3896C11.4524 27.3683 11.4524 27.3541 11.4524 27.3328V26.5087C11.4524 26.3452 11.4524 26.1747 11.4524 26.0113C11.4524 25.9048 11.4524 25.7982 11.4595 25.6845C11.4666 25.3222 11.6514 25.1588 12.0139 25.173C12.7032 25.2014 13.2718 25.8124 13.2718 26.5229C13.2647 27.2404 12.6819 27.8585 11.9854 27.8798ZM20.0803 32.5405C20.0803 32.5689 20.0732 32.5973 20.0661 32.6542C19.9737 32.6186 19.8955 32.5973 19.8102 32.5618C17.5644 31.6879 15.3186 30.8141 13.0728 29.9544C12.8667 29.8762 12.7743 29.7697 12.8169 29.5565C12.824 29.521 12.824 29.4855 12.8169 29.45C12.7601 28.9384 12.8809 28.5903 13.35 28.228C14.6079 27.2617 14.3947 25.3293 13.0017 24.5549C12.8667 24.4767 12.8098 24.3986 12.8098 24.2352C12.8169 23.7236 12.8169 23.2121 12.8169 22.6508C13.7906 23.0274 14.7074 23.3897 15.6242 23.7449C17.0314 24.292 18.4386 24.8391 19.8458 25.3861C19.9808 25.4359 20.0803 25.4714 20.0803 25.6632C20.0803 27.958 20.0803 30.2457 20.0803 32.5405ZM20.6275 24.633C20.5778 24.6472 20.5138 24.6614 20.4712 24.6401C19.9026 24.427 19.334 24.2068 18.7797 23.9865C19.3767 23.3897 19.9595 22.8071 20.5138 22.253C21.0753 22.8142 21.658 23.3968 22.255 23.9936C21.7362 24.2068 21.1819 24.427 20.6275 24.633ZM28.1965 29.8052C28.0472 30.0397 27.6137 30.0894 27.301 30.2173C25.3039 30.9988 23.3069 31.7732 21.3098 32.5476C21.2174 32.5831 21.125 32.6115 20.9971 32.6542C20.99 32.5618 20.9829 32.4836 20.9829 32.4055C20.9829 30.1746 20.9829 27.9509 20.9829 25.72C20.9829 25.5566 21.0042 25.4572 21.1819 25.3932C23.4703 24.5123 25.7588 23.6171 28.0401 22.729C28.097 22.7077 28.1609 22.6935 28.2462 22.6722C28.2462 23.2405 28.2533 23.7876 28.2391 24.3346C28.2391 24.3986 28.1538 24.4838 28.0828 24.5265C27.3152 24.9741 26.8959 25.6419 26.8959 26.53C26.8959 27.4038 27.3152 28.0646 28.0685 28.5122C28.1467 28.5619 28.232 28.6827 28.232 28.775C28.2533 29.1303 28.3528 29.5565 28.1965 29.8052ZM29.6108 27.3612C29.6036 27.7235 29.4047 27.8941 29.0493 27.8727C28.3528 27.8372 27.7843 27.212 27.7985 26.4944C27.8127 25.7911 28.3955 25.1943 29.0777 25.173C29.4118 25.1659 29.5965 25.3293 29.6036 25.6561C29.6108 25.9474 29.6036 26.2387 29.6036 26.5371C29.6179 26.8142 29.6179 27.0912 29.6108 27.3612Z" fill="#3C388D"/>
</g>
<defs>
<clipPath id="clip0_501_726">
<rect width="19.9777" height="28.1343" fill="white" transform="translate(10.543 5.64941)"/>
</clipPath>
</defs>
</svg>
