<svg width="40" height="40" viewBox="0 0 40 40" fill="none" xmlns="http://www.w3.org/2000/svg">
<g clip-path="url(#clip0_501_848)">
<path d="M33.7486 11.5846C31.9637 9.81069 30.1788 8.02578 28.4048 6.24088C28.0763 5.91237 27.7916 5.91237 27.474 6.25183C27.047 6.72269 26.6199 7.20451 26.171 7.65347C25.8205 8.00388 25.5906 8.35429 25.952 8.80326C25.3497 9.47123 25.3387 9.48218 24.5503 9.26317C23.1706 8.89086 22.0427 9.24127 21.1448 10.3692C20.641 11.0152 20.0826 11.6175 19.5241 12.2745C18.7685 11.5189 18.0458 10.7853 17.3231 10.0735C16.5566 9.31792 15.6696 9.04417 14.6184 9.40553C14.487 9.44933 14.3227 9.37268 14.0599 9.32887C14.268 9.10987 14.3556 9.01131 14.4432 8.92371C15.0016 8.35429 15.0016 8.25574 14.4213 7.68632C13.9613 7.21546 13.4686 6.7446 13.0087 6.26278C12.6911 5.93427 12.4064 5.91237 12.0779 6.25183C10.1287 8.19004 8.17957 10.1392 6.23041 12.0884C5.92381 12.395 5.93476 12.6797 6.24136 12.9753C6.72318 13.4462 7.21594 13.9061 7.66491 14.4098C8.04817 14.8369 8.42048 15.034 8.84754 14.585C9.77832 15.1107 10.0521 15.7896 9.71262 16.8189C9.37316 17.8154 9.78927 18.7133 10.512 19.4579C11.7056 20.6953 12.9101 21.9108 14.0927 23.1591C14.268 23.3453 14.3884 23.6629 14.3994 23.9147C14.4322 24.8784 14.4322 25.8529 14.4103 26.8166C14.3775 27.824 14.7498 28.5905 15.6258 29.1052C16.0419 29.357 16.2719 29.7184 16.2609 30.2221C15.3301 30.3754 15.3301 30.3754 15.3301 31.339C15.3301 31.8647 15.3301 32.4012 15.3301 32.9268C15.3301 33.3539 15.5382 33.562 15.9762 33.562C18.8233 33.562 21.6704 33.562 24.5175 33.562C24.9774 33.562 25.1745 33.332 25.1635 32.883C25.1526 32.3136 25.1635 31.7552 25.1635 31.1857C25.1635 30.3754 25.1088 30.3207 24.2656 30.255C24.1123 29.6527 24.6051 29.4556 24.9117 29.2037C25.7658 28.492 26.1272 27.605 26.1053 26.51C26.0834 24.955 26.1053 23.411 26.0943 21.8561C26.0943 21.5385 26.1819 21.3961 26.5104 21.2757C26.9046 21.1333 27.3098 20.8924 27.6055 20.5968C28.4596 19.7317 29.2809 18.8119 30.1021 17.903C30.6058 17.3445 30.7701 16.6875 30.5949 15.9648C30.4635 15.3954 30.8358 15.0449 31.0658 14.6288C31.2191 14.3551 31.4162 14.2784 31.7337 14.3551C31.8432 14.3879 32.0294 14.2237 32.1389 14.1142C32.6864 13.5776 33.223 13.0301 33.7814 12.5045C34.099 12.1979 34.0771 11.9022 33.7486 11.5846ZM8.24527 13.6324C7.96057 13.3038 7.61016 12.9096 7.32545 12.5921C9.0556 10.8619 10.8405 9.07702 12.6473 7.27021C12.9211 7.56587 13.2824 7.93818 13.6 8.27764C11.837 10.0406 10.0521 11.8256 8.24527 13.6324ZM14.4103 22.1627C13.1948 20.8815 12.0231 19.6879 10.8953 18.4505C10.4791 17.9906 10.501 17.3774 10.6434 16.7861C11.0595 14.9902 11.2019 15.5706 9.93162 14.2565C9.82212 14.1361 9.66882 14.0485 9.47171 13.8952C10.1835 13.1834 10.8405 12.5264 11.4866 11.8803C12.1326 11.2342 12.7678 10.5772 13.4248 9.90924C13.5781 10.0516 13.7204 10.1501 13.819 10.2706C14.1585 10.6867 14.487 10.7305 14.925 10.3692C15.3301 10.0297 16.0419 10.1501 16.5237 10.6101C17.3888 11.4423 18.221 12.3183 19.097 13.1943C18.9656 13.4024 18.8233 13.6105 18.67 13.8404C18.5714 13.8295 18.4729 13.8076 18.3743 13.7857C17.2683 13.5119 16.2938 14.2346 16.2719 15.3844C16.25 16.808 16.2609 18.2315 16.2609 19.655V20.2902C15.3301 20.542 14.7169 21.1443 14.4103 22.1627ZM24.167 32.5655H16.3157V31.2624H24.167V32.5655ZM25.1088 26.9589C25.0978 27.3969 24.7474 27.8349 24.5065 28.2511C24.397 28.4482 24.178 28.5905 23.9918 28.7438C23.5429 29.1271 23.072 29.4994 23.3348 30.244H17.2136C17.1917 29.2804 16.6551 28.6672 15.8886 28.1197C15.582 27.9006 15.363 27.3531 15.352 26.948C15.2863 25.5244 15.3192 24.1009 15.3301 22.6773C15.3301 22.0641 15.582 21.5933 16.25 21.3085V24.1775H17.1917V16.0195C17.1917 15.8881 17.1917 15.7677 17.1917 15.6363C17.2136 15.0121 17.4655 14.6617 17.9144 14.6507C18.3524 14.6507 18.5933 14.9902 18.5933 15.6472C18.5933 17.6511 18.5933 19.666 18.5933 21.6699V22.2941H19.546V21.6699C19.546 19.3922 19.546 17.1146 19.546 14.8259C19.546 14.6617 19.4913 14.4536 19.5679 14.3441C19.7322 14.1142 19.9512 13.7857 20.1702 13.7747C20.3892 13.7528 20.6958 14.0156 20.8601 14.2346C20.9805 14.3989 20.9367 14.6945 20.9367 14.9245C20.9367 17.1474 20.9367 19.3813 20.9367 21.6042V22.2831H21.8675V21.7137C21.8675 19.874 21.8675 18.0234 21.8675 16.1838C21.8675 16.0195 21.8127 15.8115 21.9003 15.702C22.0536 15.483 22.2726 15.1983 22.4917 15.1654C22.7107 15.1435 23.0063 15.3735 23.1706 15.5706C23.291 15.7129 23.2691 15.9867 23.2691 16.1947C23.2801 18.0234 23.2691 19.8412 23.2691 21.6699V22.2941H24.189V18.571C24.7803 18.7243 25.1197 19.1185 25.1307 19.7207C25.1526 22.1408 25.1635 24.5498 25.1088 26.9589ZM30.124 14.3332C29.7408 14.9135 29.5546 15.5158 29.6422 16.2385C29.686 16.5889 29.5437 17.0489 29.3137 17.3226C28.5472 18.2424 27.715 19.1185 26.8827 19.9836C26.7075 20.1697 26.4447 20.2902 26.1381 20.4982C26.1053 20.1478 26.0834 19.9069 26.0724 19.666C25.9958 18.6805 25.492 17.9906 24.5941 17.6183C24.2985 17.4978 24.189 17.3664 24.2109 17.0708C24.2328 16.7423 24.2218 16.4137 24.2109 16.0852C24.189 14.6726 23.3239 13.9828 21.966 14.2784C21.7799 13.9499 21.6375 13.5776 21.3966 13.3148C21.1557 13.0629 20.8053 12.9096 20.4001 12.6468C21.1119 11.8803 21.8018 11.0481 22.6121 10.3363C22.8968 10.0844 23.4662 10.1502 23.9042 10.0735C23.959 10.0625 24.0137 10.0844 24.0685 10.1063C25.065 10.4568 26.0286 10.6429 26.5323 9.58073C27.9449 10.8948 29.3356 12.176 30.7372 13.4791C30.4744 13.8404 30.2883 14.0813 30.124 14.3332ZM31.6352 13.2272C30.0474 11.5956 28.4705 9.97494 26.8608 8.31049C27.2331 7.91628 27.5726 7.54397 27.8792 7.21546C29.5108 8.84706 31.1315 10.4677 32.7631 12.1103C32.4236 12.4388 32.0403 12.822 31.6352 13.2272Z" fill="#3C388D"/>
</g>
<defs>
<clipPath id="clip0_501_848">
<rect width="28" height="27.562" fill="white" transform="translate(6 6)"/>
</clipPath>
</defs>
</svg>
