<svg width="40" height="40" viewBox="0 0 40 40" fill="none" xmlns="http://www.w3.org/2000/svg">
<g clip-path="url(#clip0_501_762)">
<path d="M34.3101 26.2412C32.8916 24.8104 31.473 23.3795 30.0298 21.9733C29.6844 21.6279 29.5734 21.3812 29.8078 20.8878C30.7453 18.9141 31.029 16.8172 30.7206 14.6338C29.9188 8.93499 24.775 4.65468 19.1995 5.02473C13.0689 5.41946 8.4926 10.1685 8.40625 16.1634C8.50493 16.9405 8.54194 17.7176 8.70229 18.4824C10.2442 25.6245 17.781 29.399 24.405 26.3399C24.7997 26.1549 25.0094 26.2166 25.2931 26.5126C26.7487 27.9928 28.2165 29.4607 29.6968 30.9286C30.5109 31.7427 31.1523 31.7304 31.9788 30.9163C32.7682 30.1392 33.5577 29.3497 34.3348 28.5603C35.1612 27.7215 35.1612 27.08 34.3101 26.2412ZM9.8248 15.818C10.0592 10.6126 14.1668 6.50496 19.3722 6.36927C25.1327 6.20891 28.7716 10.6372 29.2897 14.3131C23.0851 14.1651 17.6576 19.2719 17.7316 25.8712C13.7474 25.2421 9.56576 21.3318 9.8248 15.818ZM25.8729 25.2298C25.1451 24.502 25.1451 24.502 24.2446 24.9707C22.6657 25.7972 20.9881 26.1796 19.2119 26.0685C18.6198 20.7768 23.3935 15.2999 29.5857 15.744C29.4871 16.6321 29.4871 17.5326 29.265 18.3837C29.043 19.2842 28.6483 20.16 28.2659 21.0235C28.0439 21.5045 28.0562 21.8499 28.4509 22.2323C29.4007 23.1451 30.3135 24.0826 31.251 25.0077C30.3012 25.9699 29.4007 26.858 28.4509 27.8078C27.5998 26.969 26.7363 26.1056 25.8729 25.2298ZM30.8069 30.0405C30.4369 29.6704 30.0051 29.2387 29.5734 28.807C30.4492 27.9312 31.3373 27.0307 32.2378 26.1302C32.6202 26.5496 33.0519 26.9937 33.4343 27.4007C32.5955 28.2395 31.6827 29.1523 30.8069 30.0405Z" fill="#3C388D"/>
<path d="M9.95966 26.1055C7.78867 26.0808 6.0124 27.8447 6.00006 30.0404C5.98773 32.2484 7.73932 33.9877 9.93499 33.9877C12.1306 33.9877 13.8946 32.2114 13.8822 30.0281C13.8822 27.9064 12.106 26.1178 9.95966 26.1055ZM9.93499 32.6925C8.50411 32.7048 7.29526 31.4959 7.29526 30.0527C7.29526 28.6095 8.49177 27.4253 9.92265 27.4253C11.3782 27.4253 12.5624 28.5972 12.55 30.0527C12.5624 31.4959 11.3782 32.6925 9.93499 32.6925Z" fill="#3C388D"/>
</g>
<defs>
<clipPath id="clip0_501_762">
<rect width="28.9507" height="29" fill="white" transform="translate(6 5)"/>
</clipPath>
</defs>
</svg>
