<svg width="40" height="40" viewBox="0 0 40 40" fill="none" xmlns="http://www.w3.org/2000/svg">
<g clip-path="url(#clip0_501_797)">
<path d="M32.9623 29.1692C32.1695 30.4904 31.3651 31.8057 30.5547 33.121C29.9206 34.1486 29.0045 34.7769 27.8008 34.9589C27.7655 34.9648 27.7303 34.9883 27.6951 35.0059H26.8143C25.082 34.4363 23.3439 33.8902 21.6176 33.303C19.304 32.5162 17.7186 30.9542 16.8495 28.6759C16.5912 28.0006 16.3504 27.3195 16.1038 26.6442C15.9805 26.2919 16.0509 26.0629 16.3152 25.9572C16.5794 25.8515 16.7967 25.9865 16.9259 26.333C17.196 27.0552 17.4426 27.7834 17.7244 28.4997C18.5054 30.4669 19.9147 31.7881 21.9112 32.481C23.3205 32.9683 24.7356 33.4381 26.1508 33.9137C27.6775 34.4305 29.0163 33.949 29.856 32.5749C30.6193 31.3242 31.3827 30.0734 32.1402 28.8227C33.3146 26.8908 33.5201 24.8591 32.745 22.7276C31.9523 20.5549 31.1654 18.3823 30.3727 16.2097C29.8912 14.8885 28.7638 14.3717 27.4426 14.8532C26.8848 15.0587 26.3269 15.2643 25.7691 15.4639C25.4285 15.5872 25.1819 15.4991 25.0879 15.2349C24.994 14.9765 25.1349 14.7652 25.4813 14.636C26.0392 14.4304 26.597 14.2249 27.1549 14.0194C28.9106 13.3794 30.5547 14.1368 31.1948 15.8867C31.8701 17.7364 32.5512 19.5861 33.2089 21.4416C33.4966 22.2519 33.7961 23.0623 33.9546 23.8961C34.3187 25.781 33.937 27.5367 32.9623 29.1692Z" fill="#3C388D"/>
<path d="M22.798 9.1809C19.1691 7.85383 15.5402 6.5385 11.9055 5.22318C10.1439 4.58313 8.52908 5.34649 7.88316 7.11396C7.09044 9.29247 6.29772 11.4768 5.49913 13.6554C5.17617 14.5362 5.00001 15.4404 4.99414 16.4915C5.00001 17.8245 5.38756 19.1692 6.14505 20.4023C6.92015 21.6765 7.68939 22.939 8.46449 24.2073C9.52145 25.9396 11.283 26.5914 13.2032 25.9513C14.6301 25.4757 16.0511 25 17.4721 24.5068C19.7857 23.6965 21.3887 22.1404 22.2461 19.8444C23.0623 17.6424 23.855 15.4287 24.6594 13.2208C25.3054 11.4534 24.5596 9.82682 22.798 9.1809ZM23.855 12.8568C23.0623 15.0588 22.2637 17.2549 21.4592 19.451C20.69 21.5532 19.2455 22.9742 17.1198 23.6965C15.7047 24.178 14.2954 24.6595 12.8802 25.1292C11.4181 25.6166 10.0734 25.1351 9.26308 23.8198C8.46449 22.5221 7.6659 21.2244 6.89079 19.9208C5.76337 18.0359 5.57547 16.0511 6.32121 13.9901C7.11393 11.7881 7.91839 9.59194 8.72286 7.39581C9.19262 6.10398 10.32 5.5755 11.606 6.04526C15.2173 7.35471 18.8286 8.67004 22.434 9.97949C23.4792 10.3612 24.0253 11.0834 24.0546 12.0699C23.9842 12.3342 23.9489 12.6043 23.855 12.8568Z" fill="#3C388D"/>
<path d="M30.396 27.5074C29.5622 26.0864 28.3056 25.3759 26.6262 25.3054C26.4089 25.3289 26.1447 25.3465 25.8863 25.3935C23.5962 25.7869 22.0049 28.1533 22.4982 30.4082C22.5452 30.6196 22.6097 30.8075 22.8388 30.8779C23.0736 30.9484 23.2263 30.8192 23.379 30.6665C23.4201 30.6254 23.4612 30.5843 23.5023 30.5432C25.3226 28.9226 27.4483 28.1651 29.891 28.2825C30.0731 28.2884 30.3021 28.2238 30.4313 28.1064C30.6074 27.9302 30.5076 27.7012 30.396 27.5074ZM26.0919 27.9654C25.0995 28.3295 24.1776 28.8286 23.3144 29.5215C23.2615 28.2179 24.1952 26.9026 25.4753 26.4152C26.7906 25.9161 28.335 26.2978 29.2099 27.3606C28.1177 27.4076 27.0842 27.6014 26.0919 27.9654Z" fill="#3C388D"/>
<path d="M29.5036 20.2612C29.4155 20.5137 29.1806 20.5959 28.8459 20.4844C27.7302 20.1144 26.6204 20.2084 25.5106 20.5372C25.4167 20.5666 25.3286 20.6077 25.2347 20.6312C24.9645 20.7016 24.7414 20.5959 24.6592 20.3669C24.577 20.1262 24.6886 19.8796 24.9704 19.8032C25.5106 19.6564 26.0626 19.5272 26.6146 19.4157C26.8494 19.3687 27.0961 19.3746 27.3427 19.3511C27.3838 19.3511 27.3955 19.3511 27.4601 19.3569C28.0121 19.4685 28.4819 19.5037 29.0162 19.6271C29.0514 19.6329 29.0867 19.6447 29.1219 19.6505C29.4742 19.7445 29.6034 19.9911 29.5036 20.2612Z" fill="#3C388D"/>
<path d="M22.8974 23.1269C22.8387 24.6712 21.1006 25.8691 19.6326 25.37C19.3331 25.2701 19.1922 25.0411 19.2685 24.8004C19.3448 24.5538 19.5797 24.4481 19.8909 24.5244C20.9596 24.7886 21.9109 24.1251 22.0225 23.0329C22.0577 22.71 22.228 22.528 22.4864 22.5338C22.7623 22.5514 22.9091 22.7628 22.8974 23.1269Z" fill="#3C388D"/>
<path d="M29.3579 21.8352C28.8587 22.6044 28.1189 22.9274 27.2733 22.9626C26.4982 22.945 25.8699 22.7101 25.3766 22.1581C25.177 21.935 25.1711 21.6825 25.3473 21.5063C25.5293 21.3243 25.7935 21.3419 26.0167 21.5592C26.8153 22.3343 27.9897 22.2345 28.6297 21.336C28.8118 21.0777 29.0643 21.0131 29.2815 21.154C29.4988 21.3067 29.534 21.5709 29.3579 21.8352Z" fill="#3C388D"/>
<path d="M17.3481 19.0751C17.2776 18.8638 17.0545 18.8461 16.8489 18.8696C16.802 18.8755 16.7491 18.8755 16.7021 18.8755C14.2242 18.9636 12.0691 18.1767 10.2488 16.4797C10.1255 16.3623 9.90825 16.2918 9.73796 16.2977C9.50308 16.3094 9.43849 16.5385 9.39738 16.7498C8.88065 19.3981 10.9006 21.8467 13.6428 21.835C13.7544 21.8291 13.9071 21.8232 14.0656 21.8056C14.1831 21.7939 14.2946 21.7763 14.4121 21.7528C15.7098 21.4709 16.6845 20.7545 17.3128 19.5919C17.3892 19.451 17.395 19.2278 17.3481 19.0751ZM12.7385 20.8602C11.2764 20.4844 10.0844 18.9871 10.2371 17.6659C11.9576 18.9871 13.8895 19.7034 16.0503 19.7857C15.6863 20.4785 14.2065 21.236 12.7385 20.8602Z" fill="#3C388D"/>
<path d="M14.442 11.3007C14.4479 11.7294 14.1719 11.9056 13.8255 11.8233C13.3263 11.7 12.8272 11.565 12.3222 11.4828C11.6058 11.3653 10.9071 11.4593 10.2201 11.6883C9.90884 11.794 9.67396 11.7118 9.58001 11.471C9.48019 11.2068 9.60937 10.9719 9.92059 10.8662C11.0539 10.4728 12.1989 10.4904 13.344 10.7723C13.6082 10.8368 13.8783 10.9014 14.1191 11.013C14.2717 11.0776 14.3774 11.2361 14.442 11.3007Z" fill="#3C388D"/>
<path d="M20.8432 15.135C20.7258 15.2583 20.6259 15.411 20.485 15.4873C20.2854 15.5871 20.1092 15.4873 19.98 15.3111C19.8273 15.0997 19.6923 14.8649 19.5279 14.6652C18.9231 13.9371 18.148 13.4438 17.2789 13.0856C17.1908 13.0504 17.0969 13.0211 17.0088 12.9741C16.7915 12.8566 16.6976 12.61 16.8033 12.4045C16.9148 12.1872 17.1027 12.0874 17.3376 12.1755C18.7058 12.6805 19.8684 13.4615 20.6494 14.7298C20.7199 14.8296 20.761 14.9471 20.8432 15.135Z" fill="#3C388D"/>
<path d="M13.4374 14.1487C13.4198 14.4247 13.3082 14.5833 13.0851 14.6361C12.8678 14.6831 12.7034 14.5891 12.6036 14.3954C12.5272 14.2486 12.4861 14.0841 12.4039 13.9432C11.9459 13.1798 10.9124 12.9215 10.1256 13.3619C9.99639 13.4323 9.81436 13.4969 9.69692 13.4558C9.56774 13.4089 9.43855 13.2503 9.39158 13.1153C9.32111 12.9039 9.46204 12.7512 9.6382 12.6338C10.8185 11.8469 12.6036 12.3402 13.2495 13.6379C13.3317 13.814 13.3845 14.0019 13.4374 14.1487Z" fill="#3C388D"/>
<path d="M19.8148 16.521C19.7854 16.7441 19.6915 16.9085 19.4683 16.9496C19.21 16.9966 19.0279 16.8909 18.9516 16.6384C18.7754 16.0806 18.3996 15.7224 17.8535 15.5521C17.3896 15.4053 16.9316 15.4288 16.4971 15.693C16.2035 15.8692 15.9451 15.8281 15.8042 15.5991C15.6633 15.3701 15.7514 15.1293 16.0391 14.9414C17.3309 14.1076 19.2863 14.8122 19.7502 16.2802C19.7854 16.3624 19.7972 16.4446 19.8148 16.521Z" fill="#3C388D"/>
</g>
<defs>
<clipPath id="clip0_501_797">
<rect width="29.0898" height="30" fill="white" transform="translate(5 5)"/>
</clipPath>
</defs>
</svg>
