<svg width="40" height="40" viewBox="0 0 40 40" fill="none" xmlns="http://www.w3.org/2000/svg">
<g clip-path="url(#clip0_497_266)">
<path d="M33.153 28.865C33.0687 28.7223 32.9326 28.5991 32.8029 28.4954C24.6663 22.1612 16.5297 15.8334 8.39312 9.50569C8.25697 9.40195 8.12082 9.29173 7.9717 9.21393C7.68643 9.0713 7.35578 9.15558 7.1548 9.40195C6.94733 9.6548 6.94733 10.0179 7.16128 10.2642C7.25205 10.368 7.36875 10.4523 7.47897 10.543C9.5277 12.1379 11.5764 13.7328 13.6381 15.3277C13.8326 15.4768 13.9169 15.6389 13.9104 15.8918C13.8975 16.7022 13.8975 17.5126 13.9104 18.3166C13.9558 20.8969 15.7128 23.2569 18.17 24.0284C20.0502 24.6184 21.8331 24.3655 23.4928 23.3087C23.616 23.2309 23.7068 23.1596 23.8559 23.2828C24.5366 23.8274 25.2304 24.359 25.95 24.9166C25.8398 25.0138 25.762 25.0852 25.6777 25.15C21.2042 28.7223 14.5134 27.1923 12.0238 22.0315C11.4468 20.8256 11.155 19.5549 11.1291 18.2193C11.1161 17.759 10.8957 17.4802 10.5197 17.4348C10.0723 17.383 9.74814 17.7266 9.75462 18.2517C9.77407 22.9003 13.1195 27.1015 17.6578 28.1648C18.2283 28.3009 18.8183 28.3722 19.3954 28.476V32.6253H18.7405C17.3725 32.6253 15.9981 32.6188 14.6301 32.6318C14.1892 32.6318 13.891 32.9235 13.8975 33.319C13.904 33.708 14.2087 33.9933 14.6431 33.9998C14.6884 33.9998 14.7273 33.9998 14.7727 33.9998C18.3321 33.9998 21.8914 33.9998 25.4508 33.9998C25.548 33.9998 25.6453 34.0063 25.7425 33.9868C26.0537 33.9349 26.2871 33.6756 26.3196 33.3709C26.3455 33.0791 26.1704 32.7744 25.8917 32.6772C25.7555 32.6318 25.5934 32.6253 25.4443 32.6253C24.018 32.6188 22.5981 32.6253 21.1718 32.6253H20.8282V28.4435C23.2205 28.249 25.2887 27.3608 27.0587 25.7854C28.2516 26.7125 29.4251 27.6266 30.6051 28.5408C31.1108 28.9298 31.6035 29.3253 32.1157 29.7078C32.4009 29.9217 32.7316 29.9023 32.978 29.6883C33.2178 29.4874 33.3086 29.1308 33.153 28.865ZM20.6013 22.9197C17.768 23.1661 15.447 21.1498 15.2849 18.3101C15.2525 17.772 15.2784 17.2338 15.2784 16.6114C17.7226 18.5111 20.1215 20.3783 22.5463 22.2649C21.9239 22.6539 21.282 22.8614 20.6013 22.9197Z" fill="#3C388D"/>
<path d="M26.3253 18.1027C26.3253 18.9067 26.1697 19.6847 25.8585 20.4627C25.4954 20.1839 25.1518 19.9245 24.8212 19.6522C24.7693 19.6069 24.7499 19.4902 24.7563 19.4059C24.8147 18.7835 24.9249 18.1676 24.9379 17.5452C24.9573 15.451 24.9573 13.3569 24.9444 11.2693C24.9314 8.91582 23.343 6.93192 21.1257 6.48457C18.085 5.86865 15.3296 8.08595 15.2712 11.1915C15.2647 11.5092 15.2712 11.8333 15.2712 12.2288C14.7979 11.8593 14.383 11.5481 13.981 11.2109C13.9162 11.1526 13.9032 10.997 13.9097 10.8868C14.0134 8.13134 16.114 5.66766 18.8241 5.12306C22.753 4.34506 26.3123 7.24312 26.3253 11.2433C26.3318 13.532 26.3253 15.8206 26.3253 18.1027Z" fill="#3C388D"/>
<path d="M30.4696 18.1805C30.4501 19.8921 30.0352 21.5 29.1923 23.056C28.8098 22.7578 28.4597 22.4855 28.168 22.2586C28.4338 21.3703 28.7191 20.534 28.9265 19.6847C29.0497 19.1855 29.0497 18.6603 29.0951 18.1481C29.134 17.7008 29.4063 17.4155 29.7953 17.422C30.1843 17.4349 30.4696 17.7462 30.4696 18.1805Z" fill="#3C388D"/>
</g>
<defs>
<clipPath id="clip0_497_266">
<rect width="26.2316" height="29" fill="white" transform="translate(7 5)"/>
</clipPath>
</defs>
</svg>
