<svg width="40" height="40" viewBox="0 0 40 40" fill="none" xmlns="http://www.w3.org/2000/svg">
<g clip-path="url(#clip0_501_858)">
<path d="M33.9461 31.3861C33.7601 30.4564 33.4539 29.5157 33.0492 28.6517C31.5617 25.5126 29.407 22.822 27.1539 20.2079C26.1695 19.0704 25.1304 17.9767 24.0804 16.8282C24.6929 16.2157 25.2945 15.6142 25.907 15.0235C26.0054 14.936 26.1914 14.9032 26.3445 14.9032C27.0992 14.8704 27.6461 14.3454 27.6461 13.6345C27.6461 12.9673 27.0664 12.3767 26.3882 12.3657C25.6773 12.3548 25.1414 12.9126 25.1086 13.6564C25.0976 13.8204 25.0648 14.0282 24.9554 14.1376C24.3867 14.7501 23.7851 15.3298 23.2054 15.9204C21.5648 14.4767 20.0117 13.0439 18.382 11.6876C16.1945 9.86105 13.9195 8.14386 11.3164 6.96261C10.3211 6.51417 9.2273 6.18605 8.14449 6.0548C6.94136 5.8798 6.21949 6.60167 6.05543 7.82667C6.02261 8.04542 6.01168 8.26417 6.01168 8.48292C6.01168 9.9048 5.9898 11.3267 6.01168 12.7485C6.0773 17.6923 7.61949 22.1329 10.7257 25.972C14.3132 30.4017 18.9289 33.1032 24.5945 33.7814C26.957 34.0657 29.3523 33.9782 31.7367 34.0111C33.3992 34.022 34.2632 33.0048 33.9461 31.3861ZM7.32418 12.2892C12.607 20.6017 19.3992 27.3829 27.6898 32.6767C16.9711 33.1032 7.01793 23.872 7.32418 12.2892ZM31.2117 32.6548C30.4789 32.4798 29.757 32.1845 29.0789 31.8454C26.4976 30.5767 24.2007 28.8595 22.0132 27.0111C17.5289 23.2157 13.4382 19.0486 10.1132 14.1814C9.15074 12.7595 8.40699 11.1845 7.61949 9.65323C7.40074 9.21573 7.34605 8.6798 7.29136 8.17667C7.22574 7.53136 7.55386 7.18136 8.19918 7.26886C8.7898 7.34542 9.38043 7.48761 9.93824 7.70636C11.8632 8.47198 13.6023 9.58761 15.232 10.8454C16.8398 12.0704 18.382 13.3829 19.9242 14.6845C20.7117 15.3517 21.4445 16.0954 22.2648 16.861C21.4554 17.6704 20.6898 18.4251 19.9351 19.1798C19.8148 19.3001 19.6945 19.4095 19.5961 19.5298C19.3336 19.836 19.2789 20.1532 19.5851 20.4486C19.8914 20.7439 20.2304 20.6782 20.5039 20.4048C21.1601 19.7704 21.8054 19.1251 22.4398 18.4798C22.6586 18.261 22.8554 18.0204 23.0523 17.8017C23.1617 17.8454 23.2273 17.8454 23.2601 17.8782C26.3773 21.0939 29.3195 24.4407 31.4961 28.3892C31.9882 29.2751 32.382 30.2376 32.6554 31.2001C33.0273 32.4907 32.5242 32.9829 31.2117 32.6548Z" fill="#3C388D"/>
<path d="M33.9901 12.7484C33.9901 13.0109 33.8807 13.35 33.7057 13.5031C33.301 13.8531 32.8307 13.4922 32.7213 12.8687C32.5682 12.0594 32.4698 11.1844 32.1198 10.4625C31.1682 8.51562 29.5385 7.46563 27.362 7.29063C27.2307 7.27969 27.1104 7.27969 26.9792 7.25781C26.6073 7.19219 26.3667 6.97344 26.3995 6.59063C26.4323 6.21875 26.6838 6.01094 27.0667 6C27.1542 6 27.2526 6 27.187 6C30.8948 6.10938 33.9573 9.19375 33.9901 12.7484Z" fill="#3C388D"/>
<path d="M31.4749 12.8361C31.4749 13.2517 31.3327 13.5798 30.8843 13.6126C30.414 13.6454 30.228 13.3282 30.1843 12.8907C30.0093 11.0751 28.9483 10.0142 27.0999 9.82824C26.6843 9.78449 26.378 9.59856 26.389 9.16106C26.4108 8.69074 26.7499 8.52668 27.1874 8.53762C29.4405 8.59231 31.453 10.6048 31.4749 12.8361Z" fill="#3C388D"/>
</g>
<defs>
<clipPath id="clip0_501_858">
<rect width="28.0109" height="28" fill="white" transform="translate(6 6)"/>
</clipPath>
</defs>
</svg>
