<svg xmlns="http://www.w3.org/2000/svg" width="40" height="40" viewBox="0 0 40 40" fill="none">
<g clip-path="url(#clip0_172_148)">
<path d="M33.5684 9.65363C33.5467 9.64291 33.4603 9.61077 33.3738 9.58934C29.7105 8.85006 26.3064 7.41434 23.0429 5.63577C22.4809 5.32506 21.865 5.10006 21.2382 4.92863C19.8766 4.54292 18.6555 5.03577 17.4559 5.63577C16.2348 6.2572 15.0137 6.90006 13.7601 7.47863C11.5772 8.48577 9.28627 9.13934 6.80078 9.67506C6.88723 11.1108 6.94127 12.5143 7.07094 13.9179C7.42756 17.8715 8.5082 21.6215 10.4426 25.1143C12.6363 29.0786 15.6297 32.2929 19.5956 34.575C20.0927 34.8643 20.4709 34.8643 20.9572 34.5536C24.8692 32.1001 27.8734 28.8215 30.0887 24.8251C32.1419 21.1286 33.2442 17.1429 33.5576 12.9429C33.644 11.8715 33.5684 10.7786 33.5684 9.65363ZM22.9888 31.6393C22.308 32.2179 21.53 32.6786 20.8059 33.2143C20.4277 33.5036 20.1035 33.4822 19.6929 33.2358C16.7859 31.5 14.4842 29.1429 12.6147 26.3572C10.3669 23.0036 9.04852 19.2858 8.49739 15.3108C8.28127 13.7572 8.19481 12.1929 8.04352 10.6393C9.09175 10.3393 10.0319 10.0822 10.9613 9.80363C13.2847 9.09649 15.5 8.15363 17.5856 6.94292C19.4227 5.87149 21.1085 5.87149 22.9564 6.94292C25.7769 8.56077 28.8135 9.72863 32.0014 10.4786C32.2608 10.5429 32.4121 10.6179 32.4013 10.9286C32.1743 19.1358 29.4187 26.2072 22.9888 31.6393Z" fill="#ffffff"/>
<path d="M27.2042 18.1393C26.9557 18.45 26.5666 18.3965 26.1344 18C22.6871 14.8715 17.7702 14.8822 14.3662 18.0322C14.0528 18.3215 13.7394 18.4715 13.372 18.1715C13.0694 17.9143 13.1234 17.5393 13.5125 17.1536C15.2199 15.45 17.6945 14.4536 20.6447 14.4536C22.7952 14.5072 25.0429 15.3536 26.9341 17.0786C27.2799 17.3893 27.55 17.7 27.2042 18.1393Z" fill="#ffffff"/>
<path d="M25.0094 20.3035C24.642 20.6142 24.3286 20.4642 24.0152 20.1857C21.7783 18.2142 18.7525 18.2142 16.5155 20.1857C16.1913 20.4642 15.8779 20.6142 15.5213 20.3035C15.2079 20.0357 15.2728 19.6607 15.6834 19.2964C16.9694 18.1178 18.4931 17.5392 20.2438 17.5071C22.0052 17.5285 23.5505 18.1071 24.8581 19.2964C25.2579 19.6607 25.3228 20.0357 25.0094 20.3035Z" fill="#ffffff"/>
<path d="M22.8706 22.425C22.5897 22.725 22.2439 22.6929 21.9629 22.4143C21.0552 21.525 19.4558 21.525 18.5481 22.4357C18.2671 22.7143 17.9105 22.7143 17.6511 22.4036C17.381 22.0929 17.4782 21.7715 17.77 21.5143C18.4724 20.8715 19.3045 20.5393 20.2555 20.5393C21.2173 20.5286 22.0385 20.8607 22.7518 21.4929C23.0652 21.7715 23.1732 22.0929 22.8706 22.425Z" fill="#ffffff"/>
<path d="M20.8384 24.118C20.8276 24.1715 20.806 24.2358 20.7844 24.2894C20.7303 24.4287 20.6547 24.5572 20.5574 24.6751C20.4926 24.7608 20.3953 24.8465 20.2873 24.8465C20.2008 24.8465 20.1144 24.793 20.0603 24.7287C19.8442 24.5144 19.5741 24.2037 19.7037 23.8822C19.7578 23.7537 19.8766 23.6572 20.0063 23.6037C20.136 23.5501 20.2873 23.5501 20.417 23.5822C20.5899 23.6251 20.7628 23.7322 20.8168 23.9037C20.86 23.968 20.86 24.043 20.8384 24.118Z" fill="#ffffff"/>
</g>
<defs fill="#000000">
<clipPath id="clip0_172_148" fill="#000000">
<rect width="26.8" height="30" fill="white" transform="translate(6.80078 4.80005)"/>
</clipPath>
</defs>
</svg>