<svg xmlns="http://www.w3.org/2000/svg" width="800px" height="800px" viewBox="0 0 24 24" fill="none">
<path d="M18 15.38C17.9015 15.3805 17.8038 15.3612 17.7128 15.3235C17.6218 15.2857 17.5392 15.2301 17.47 15.16C17.3295 15.0194 17.2507 14.8287 17.2507 14.63C17.2507 14.4312 17.3295 14.2406 17.47 14.1C17.6584 13.9154 17.7662 13.6638 17.77 13.4V7.24C17.7689 6.97766 17.6647 6.72626 17.48 6.54C17.2937 6.35525 17.0423 6.2511 16.78 6.25H10.6C10.3377 6.2511 10.0863 6.35525 9.9 6.54C9.82974 6.6096 9.74646 6.66468 9.65492 6.7021C9.56337 6.73951 9.46536 6.75853 9.36646 6.75807C9.16674 6.75713 8.97556 6.67689 8.835 6.535C8.69443 6.39311 8.61599 6.20119 8.61693 6.00146C8.61787 5.80174 8.69811 5.61056 8.84 5.47C9.30971 5.0075 9.94083 4.74573 10.6 4.74H16.76C17.4204 4.74 18.0537 5.00234 18.5207 5.4693C18.9877 5.93627 19.25 6.56961 19.25 7.23V13.4C19.2507 13.728 19.1856 14.0527 19.0585 14.355C18.9314 14.6574 18.7449 14.9311 18.51 15.16C18.4441 15.2291 18.365 15.2841 18.2774 15.3219C18.1898 15.3597 18.0954 15.3795 18 15.38Z" fill="#652580"/>
<path d="M13.4 19.26H7.24C6.91264 19.2613 6.58825 19.1978 6.28555 19.0732C5.98285 18.9485 5.70783 18.7651 5.47635 18.5336C5.24487 18.3022 5.06151 18.0271 4.93684 17.7244C4.81218 17.4217 4.74867 17.0974 4.75 16.77V10.6C4.75526 9.93951 5.02065 9.30771 5.48864 8.84159C5.95663 8.37547 6.58949 8.11261 7.25 8.11H13.4C14.059 8.11678 14.6897 8.37839 15.16 8.84C15.6195 9.30357 15.8812 9.92735 15.89 10.58V16.76C15.8909 17.0871 15.8269 17.4111 15.7015 17.7132C15.5762 18.0154 15.3921 18.2896 15.16 18.52C14.9311 18.7549 14.6574 18.9414 14.355 19.0685C14.0527 19.1956 13.728 19.2607 13.4 19.26ZM7.23 9.61C6.97113 9.6137 6.72379 9.71766 6.54 9.9C6.35158 10.0846 6.24375 10.3362 6.24 10.6V16.76C6.24 17.0252 6.34535 17.2796 6.53289 17.4671C6.72043 17.6546 6.97478 17.76 7.24 17.76H13.4C13.6638 17.7562 13.9154 17.6484 14.1 17.46C14.2847 17.2737 14.3889 17.0223 14.39 16.76V10.6C14.39 10.3348 14.2846 10.0804 14.0971 9.89289C13.9096 9.70536 13.6552 9.6 13.39 9.6H7.23V9.61Z" fill="#652580"/>
<path d="M14.62 10.13C14.4211 10.1298 14.2305 10.0507 14.09 9.91C14.0192 9.84105 13.963 9.75863 13.9246 9.66761C13.8862 9.57658 13.8664 9.47879 13.8664 9.38C13.8664 9.2812 13.8862 9.18341 13.9246 9.09238C13.963 9.00136 14.0192 8.91894 14.09 8.85L17.46 5.47C17.6006 5.32955 17.7912 5.25066 17.99 5.25066C18.1887 5.25066 18.3794 5.32955 18.52 5.47C18.6587 5.61356 18.7362 5.80538 18.7362 6.005C18.7362 6.20461 18.6587 6.39643 18.52 6.54L15.15 9.91C15.0071 10.0472 14.818 10.1257 14.62 10.13Z" fill="#652580"/>
<path d="M6 10.12C5.80115 10.1198 5.61052 10.0407 5.47 9.9C5.39924 9.83105 5.34301 9.74863 5.30461 9.65761C5.26621 9.56658 5.24643 9.46879 5.24643 9.37C5.24643 9.2712 5.26621 9.17341 5.30461 9.08238C5.34301 8.99136 5.39924 8.90894 5.47 8.84L8.84 5.47C8.98063 5.32955 9.17125 5.25066 9.37 5.25066C9.56875 5.25066 9.75937 5.32955 9.9 5.47C9.97076 5.53894 10.027 5.62136 10.0654 5.71238C10.1038 5.80341 10.1236 5.9012 10.1236 6C10.1236 6.09879 10.1038 6.19658 10.0654 6.28761C10.027 6.37863 9.97076 6.46105 9.9 6.53L6.54 9.9C6.39464 10.0395 6.20147 10.1182 6 10.12Z" fill="#652580"/>
<path d="M14.63 18.75C14.432 18.7457 14.2428 18.6672 14.1 18.53C13.9596 18.3894 13.8807 18.1987 13.8807 18C13.8807 17.8012 13.9596 17.6106 14.1 17.47L17.47 14.1C17.5387 14.0263 17.6215 13.9672 17.7135 13.9262C17.8055 13.8852 17.9048 13.8632 18.0055 13.8614C18.1062 13.8596 18.2062 13.8782 18.2996 13.9159C18.393 13.9536 18.4778 14.0097 18.549 14.081C18.6203 14.1522 18.6764 14.237 18.7141 14.3304C18.7518 14.4238 18.7704 14.5238 18.7686 14.6245C18.7668 14.7252 18.7448 14.8245 18.7038 14.9165C18.6628 15.0085 18.6037 15.0913 18.53 15.16L15.16 18.53C15.0172 18.6672 14.828 18.7457 14.63 18.75Z" fill="#652580"/>
</svg>