<svg xmlns="http://www.w3.org/2000/svg" xmlns:xlink="http://www.w3.org/1999/xlink" fill="#ffffff" height="800px" width="800px" version="1.1" id="Layer_1" viewBox="0 0 512 512" xml:space="preserve">
<g>
	<g>
		<g>
			<path d="M80.844,0c-30.878,0-56,25.122-56,56s25.122,56,56,56s56-25.122,56-56S111.722,0,80.844,0z M80.844,90.667     c-19.116,0-34.667-15.551-34.667-34.667s15.551-34.667,34.667-34.667S115.51,36.884,115.51,56S99.959,90.667,80.844,90.667z" fill="#ffffff"/>
			<path d="M476.49,13.333H177.823c-5.89,0-10.667,4.777-10.667,10.667v64c0,5.89,4.776,10.667,10.667,10.667H476.49     c5.89,0,10.667-4.777,10.667-10.667V24C487.156,18.11,482.38,13.333,476.49,13.333z M465.823,77.333H188.49h0V34.667h277.333     V77.333z" fill="#ffffff"/>
			<path d="M80.844,133.333c-30.878,0-56,25.122-56,56c0,30.878,25.122,56,56,56s56-25.122,56-56     C136.844,158.456,111.722,133.333,80.844,133.333z M80.844,224c-19.116,0-34.667-15.551-34.667-34.667     c0-19.116,15.551-34.667,34.667-34.667s34.667,15.551,34.667,34.667C115.51,208.449,99.959,224,80.844,224z" fill="#ffffff"/>
			<path d="M476.49,146.667H177.823c-5.89,0-10.667,4.776-10.667,10.667v64c0,5.89,4.776,10.667,10.667,10.667H476.49     c5.89,0,10.667-4.776,10.667-10.667v-64C487.156,151.443,482.38,146.667,476.49,146.667z M465.823,210.667H188.49h0V168h277.333     V210.667z" fill="#ffffff"/>
			<path d="M80.844,266.667c-30.878,0-56,25.122-56,56s25.122,56,56,56s56-25.122,56-56S111.722,266.667,80.844,266.667z      M80.844,357.333c-19.116,0-34.667-15.551-34.667-34.667S61.728,288,80.844,288s34.667,15.551,34.667,34.667     S99.959,357.333,80.844,357.333z" fill="#ffffff"/>
			<path d="M476.49,280H177.823c-5.89,0-10.667,4.777-10.667,10.667v64c0,5.89,4.776,10.667,10.667,10.667H476.49     c5.89,0,10.667-4.777,10.667-10.667v-64C487.156,284.777,482.38,280,476.49,280z M465.823,344H188.49h0v-42.667h277.333V344z" fill="#ffffff"/>
			<path d="M80.844,400c-30.878,0-56,25.122-56,56s25.122,56,56,56s56-25.122,56-56S111.722,400,80.844,400z M80.844,490.667     c-19.116,0-34.667-15.551-34.667-34.667s15.551-34.667,34.667-34.667S115.51,436.884,115.51,456S99.959,490.667,80.844,490.667z" fill="#ffffff"/>
			<path d="M80.844,445.333c-5.884,0-10.667,4.783-10.667,10.667s4.783,10.667,10.667,10.667S91.51,461.884,91.51,456     S86.727,445.333,80.844,445.333z" fill="#ffffff"/>
			<path d="M476.49,413.333H177.823c-5.89,0-10.667,4.776-10.667,10.667v64c0,5.89,4.776,10.667,10.667,10.667H476.49     c5.89,0,10.667-4.777,10.667-10.667v-64C487.156,418.11,482.38,413.333,476.49,413.333z M465.823,477.333H188.49h0v-42.667     h277.333V477.333z" fill="#ffffff"/>
		</g>
	</g>
</g>
</svg>