<svg xmlns="http://www.w3.org/2000/svg" xmlns:xlink="http://www.w3.org/1999/xlink" fill="#ffffff" height="800px" width="800px" version="1.1" id="Layer_1" viewBox="0 0 234.687 234.687" xml:space="preserve">
<g>
	<g>
		<path d="M214.1,119.774V49.036c11.665-1.969,20.587-12.115,20.587-24.332C234.686,11.082,223.605,0,209.983,0    c-12.217,0-22.362,8.922-24.332,20.587h-70.738C112.943,8.922,102.798,0,90.581,0C76.958,0,65.877,11.082,65.877,24.704    c0,12.217,8.922,22.363,20.587,24.332v37.428H49.036c-1.97-11.665-12.115-20.587-24.332-20.587C11.081,65.877,0,76.958,0,90.581    c0,12.217,8.922,22.363,20.587,24.332v70.738C8.922,187.62,0,197.765,0,209.983c0,13.623,11.081,24.704,24.704,24.704    c12.217,0,22.362-8.922,24.332-20.587h70.738c1.969,11.665,12.115,20.587,24.332,20.587c13.623,0,24.704-11.081,24.704-24.704    c0-12.217-8.922-22.363-20.587-24.332v-37.428h37.428c1.969,11.665,12.115,20.587,24.332,20.587    c13.623,0,24.704-11.081,24.704-24.704C234.686,131.889,225.765,121.743,214.1,119.774z M209.983,8.235    c9.083,0,16.469,7.388,16.469,16.469s-7.386,16.469-16.469,16.469c-9.083,0-16.469-7.388-16.469-16.469    S200.899,8.235,209.983,8.235z M74.111,24.704c0-9.081,7.386-16.469,16.469-16.469s16.469,7.388,16.469,16.469    S99.663,41.173,90.58,41.173S74.111,33.785,74.111,24.704z M94.698,94.698h25.076c1.743,10.322,9.892,18.471,20.215,20.215v25.076    h-25.076c-1.743-10.322-9.892-18.471-20.215-20.215V94.698z M90.581,127.637c9.083,0,16.469,7.388,16.469,16.469    c0,9.081-7.386,16.469-16.469,16.469s-16.469-7.388-16.469-16.469C74.111,135.025,81.498,127.637,90.581,127.637z M8.235,90.581    c0-9.081,7.386-16.469,16.469-16.469S41.173,81.5,41.173,90.581s-7.386,16.469-16.469,16.469    C15.621,107.05,8.235,99.662,8.235,90.581z M24.704,226.452c-9.083,0-16.469-7.388-16.469-16.469s7.386-16.469,16.469-16.469    s16.469,7.388,16.469,16.469S33.787,226.452,24.704,226.452z M119.773,205.866H49.036c-1.743-10.322-9.892-18.471-20.215-20.215    v-70.738c10.322-1.743,18.472-9.892,20.215-20.215h37.428v25.076c-11.665,1.969-20.587,12.115-20.587,24.332    c0,13.623,11.081,24.704,24.704,24.704c12.217,0,22.362-8.922,24.332-20.587h25.076v37.428h-0.001    C129.666,187.394,121.516,195.543,119.773,205.866z M160.575,209.983c0,9.081-7.386,16.469-16.469,16.469    s-16.469-7.388-16.469-16.469s7.386-16.469,16.469-16.469S160.575,200.902,160.575,209.983z M144.106,107.05    c-9.083,0-16.469-7.388-16.469-16.469s7.386-16.469,16.469-16.469s16.469,7.388,16.469,16.469S153.189,107.05,144.106,107.05z     M185.651,139.989h-37.428v-25.076c11.665-1.969,20.587-12.115,20.587-24.332c0-13.623-11.081-24.704-24.704-24.704    c-12.217,0-22.362,8.922-24.332,20.587H94.698V49.036c10.322-1.743,18.472-9.892,20.215-20.215h70.738    c1.743,10.322,9.892,18.471,20.215,20.215v70.738C195.543,121.517,187.393,129.666,185.651,139.989z M209.983,160.575    c-9.083,0-16.469-7.388-16.469-16.469s7.386-16.469,16.469-16.469c9.083,0,16.469,7.388,16.469,16.469    C226.452,153.187,219.066,160.575,209.983,160.575z" fill="#ffffff"/>
	</g>
</g>
</svg>