<svg width="40" height="40" viewBox="0 0 40 40" fill="none" xmlns="http://www.w3.org/2000/svg">
<g clip-path="url(#clip0_501_921)">
<path d="M30.5465 20.6414C30.9209 21.3661 31.8872 21.5956 32.6723 21.3299C33.4936 21.0521 34.013 20.3032 33.9888 19.4456C33.9646 18.6122 33.4332 17.9117 32.6119 17.6581C31.8268 17.4165 30.8847 17.6701 30.5103 18.4069C30.2083 18.9988 29.8218 19.0833 29.2783 19.0229C29.0971 18.9988 28.9159 19.0229 28.7347 19.0229C28.1791 18.9988 27.998 18.7572 28.1188 18.2137C28.3966 16.9213 27.853 15.7014 26.6935 15.0371C26.5607 14.9525 26.4157 14.868 26.2829 14.7834C26.621 14.6626 26.923 14.6264 27.2129 14.6747C28.1188 14.8197 28.7227 14.4935 29.1575 13.6722C29.5198 12.9838 30.015 13.02 30.4015 13.6964C30.8484 14.4573 31.7422 14.8317 32.5756 14.6022C33.4453 14.3607 34.013 13.6118 34.013 12.7301C34.013 11.8484 33.4332 11.1116 32.5756 10.8701C31.7422 10.6406 30.8001 10.9908 30.4257 11.8001C30.2325 12.2228 29.9788 12.2953 29.5923 12.2591C29.2179 12.2349 28.8434 12.2349 28.6744 12.6456C28.2878 13.5998 27.5752 13.8776 26.609 13.7085C26.4761 13.6843 26.3191 13.7326 26.1862 13.6964C26.0413 13.6601 25.8601 13.6239 25.7876 13.5152C25.1958 12.718 24.4107 12.3195 23.4565 12.2349C23.215 11.3894 23.4807 10.8459 24.2054 10.5198C24.7368 10.2782 24.918 9.85548 24.8335 9.29987C24.7851 8.99792 24.8697 8.80466 25.1958 8.64765C26.0413 8.23698 26.4399 7.34319 26.2345 6.48563C25.993 5.60392 25.22 5 24.3262 5C23.4324 5 22.6594 5.61599 22.442 6.49771C22.2366 7.35527 22.6352 8.23698 23.4928 8.64765C23.8189 8.80466 23.9397 9.03415 23.831 9.2878C23.7102 9.55352 23.4928 9.81924 23.2391 9.9521C22.5627 10.3024 22.2608 10.7976 22.3936 11.5585C22.4057 11.6551 22.3816 11.7638 22.3936 11.8605C22.454 12.247 22.2849 12.4523 21.9347 12.6456C21.0046 13.1529 20.4732 13.9863 20.4732 15.0491C20.449 18.0083 20.449 20.9675 20.4732 23.9267C20.4732 24.893 20.8959 25.7384 21.7293 26.1974C22.3453 26.5356 22.4782 26.9463 22.3936 27.5381C22.297 28.2024 22.5144 28.6735 23.1304 28.9392C23.2391 28.9875 23.3358 29.0721 23.4324 29.1445C24.0484 29.5552 24.0242 30.0142 23.3841 30.3765C22.6352 30.7993 22.2366 31.6689 22.4299 32.4781C22.6352 33.3357 23.372 33.9517 24.2416 33.9879C25.1233 34.0242 25.8843 33.4806 26.1621 32.6231C26.4882 31.6206 26.0654 30.8234 24.8093 30.1108C24.7851 29.4827 24.9663 28.758 24.1329 28.444C23.3478 28.142 23.1908 27.5502 23.4082 26.8013C24.7127 26.5235 24.8455 26.439 25.7393 25.4969C25.7876 25.4365 25.848 25.3399 25.9084 25.3399C26.5365 25.3157 27.1646 25.2432 27.7685 25.3399C28.0221 25.3761 28.2637 25.7747 28.4207 26.0525C28.7227 26.596 29.1092 26.8255 29.7372 26.7651C29.9184 26.753 30.2083 26.9342 30.3049 27.1033C30.7881 27.9246 31.6215 28.3594 32.479 28.1541C33.3607 27.9367 33.9767 27.1758 33.9888 26.282C34.0009 25.3761 33.397 24.6152 32.5153 24.3857C31.6456 24.1683 30.8001 24.591 30.3049 25.4486C30.2083 25.6056 29.9426 25.7868 29.7856 25.7505C29.5561 25.7022 29.2541 25.5331 29.1575 25.3399C28.7468 24.5065 28.1308 24.1683 27.2129 24.3253C26.9109 24.3736 26.5848 24.3374 26.2708 24.3374C26.2466 24.2649 26.2104 24.1924 26.1862 24.132C26.3432 24.0354 26.4761 23.8784 26.6452 23.8542C28.0221 23.5764 28.9884 22.6222 29.1333 21.3299C29.1816 20.9071 29.1454 20.4723 29.1454 20.0375C29.7252 19.8925 30.1962 19.9409 30.5465 20.6414ZM32.0321 18.5398C32.5515 18.5277 33.0105 18.9504 33.0225 19.4698C33.0346 19.9892 32.6119 20.4481 32.0925 20.4602C31.5731 20.4723 31.1142 20.0496 31.1021 19.5302C31.0779 19.0108 31.5128 18.5519 32.0321 18.5398ZM32.0804 11.7759C32.5998 11.788 33.0346 12.2349 33.0225 12.7543C33.0105 13.2736 32.5636 13.7085 32.0442 13.6964C31.5248 13.6843 31.09 13.2374 31.1021 12.718C31.1142 12.1987 31.5611 11.7638 32.0804 11.7759ZM23.372 6.94461C23.372 6.42524 23.7947 5.97834 24.3262 5.97834C24.8455 5.97834 25.2924 6.40108 25.2924 6.93253C25.2924 7.4519 24.8697 7.89879 24.3382 7.91087C23.8189 7.89879 23.372 7.46397 23.372 6.94461ZM24.3503 31.1012C24.8697 31.1133 25.3045 31.5602 25.2924 32.0796C25.2804 32.5989 24.8335 33.0337 24.3141 33.0217C23.7947 33.0096 23.3599 32.5627 23.372 32.0433C23.3841 31.5119 23.831 31.0891 24.3503 31.1012ZM32.0684 25.3036C32.5877 25.3157 33.0225 25.7505 33.0225 26.282C33.0105 26.8013 32.5636 27.2362 32.0442 27.2241C31.5128 27.212 31.09 26.7772 31.09 26.2457C31.1021 25.7264 31.549 25.2915 32.0684 25.3036ZM26.5365 22.8638C26.1862 22.9121 26.0534 22.743 25.8963 22.4773C25.3649 21.511 24.5315 21.0037 23.3841 20.9434V21.8613C23.4928 21.8855 23.6256 21.9096 23.7585 21.9459C24.8093 22.2237 25.4495 23.1658 25.2683 24.1562C25.0992 25.1345 24.2175 25.823 23.2391 25.7626C22.2125 25.7022 21.4515 24.8688 21.4395 23.7818C21.4274 22.1512 21.4395 20.5206 21.4395 18.89C21.4395 17.7064 21.4395 16.5106 21.4395 15.3269C21.4395 14.1312 22.1521 13.2857 23.215 13.2012C24.2416 13.1166 25.1596 13.8776 25.2804 14.9042C25.4011 15.955 24.7248 16.8126 23.5411 17.0541C23.5048 17.0662 23.4565 17.0662 23.3961 17.0904V17.96C24.5677 18.0808 25.534 17.3561 26.1741 15.9188C27.0196 16.2691 27.3941 17.1145 27.1042 18.105C26.8626 18.0808 26.609 18.0566 26.307 18.0204V18.9504C27.1646 19.0833 27.853 19.494 28.1188 20.424C28.4207 21.5473 27.6598 22.6947 26.5365 22.8638Z" fill="#3C388D"/>
<path d="M18.5279 15.0853C18.5158 14.0224 18.0206 13.1769 17.0785 12.6697C16.6679 12.4402 16.5229 12.1986 16.5954 11.7759C16.7645 10.8579 16.4263 10.2298 15.5687 9.85541C15.5325 9.84333 15.4963 9.81918 15.4721 9.79502C14.9769 9.44475 15.0131 8.93746 15.5325 8.65966C16.3538 8.21276 16.7645 7.33105 16.535 6.47349C16.3055 5.5797 15.5446 4.98786 14.6387 4.99994C13.7691 5.01202 13.0202 5.60385 12.7907 6.46141C12.5612 7.31897 12.9598 8.21276 13.7932 8.6355C14.0952 8.78044 14.2401 8.93746 14.1797 9.26358C14.059 9.89165 14.3609 10.254 14.8803 10.5801C15.762 11.1116 15.762 11.184 15.5567 12.2348C14.6266 12.3073 13.8536 12.6817 13.2859 13.4427C13.2256 13.5272 13.1531 13.648 13.0927 13.6601C12.4525 13.6842 11.8003 13.7446 11.1722 13.6601C10.9548 13.6359 10.7374 13.2615 10.6166 13.0078C10.3147 12.416 9.89194 12.1141 9.21555 12.2469C8.90152 12.3073 8.78074 12.1261 8.64787 11.8604C8.22513 11.027 7.33134 10.6284 6.47378 10.8458C5.57999 11.0874 4.98815 11.8604 5.00023 12.7542C5.01231 13.6238 5.59206 14.3727 6.4617 14.6022C7.31926 14.8317 8.20098 14.4331 8.64787 13.6118C8.93775 13.0924 9.44504 13.0562 9.78323 13.5272C9.89194 13.6722 10.0006 13.8171 10.0731 13.9862C10.3268 14.5176 10.7253 14.7471 11.3293 14.6747C11.7762 14.6263 12.2351 14.6626 12.7666 14.6626C12.6579 14.7954 12.6458 14.8558 12.5975 14.88C11.0394 15.7859 10.6287 16.6193 10.9065 18.3465C10.979 18.8175 10.7133 18.9624 10.3388 19.0108C10.0852 19.047 9.81947 18.9987 9.55375 19.0228C9.09477 19.0591 8.76866 18.9987 8.51501 18.4793C8.15266 17.7305 7.23471 17.4164 6.44962 17.6218C5.60414 17.8392 5.02438 18.5639 4.98815 19.4093C4.95191 20.279 5.4592 21.0399 6.28053 21.3177C7.08977 21.6076 8.08019 21.3781 8.45462 20.6172C8.81697 19.8804 9.31218 19.9287 9.9161 20.0253C9.73492 22.3927 10.3147 23.2502 12.4888 23.8542C12.6096 23.8904 12.7062 24.0836 12.8028 24.2044C12.7545 24.2527 12.7062 24.289 12.6579 24.3373C12.3559 24.3373 12.054 24.3735 11.752 24.3252C10.8703 24.1803 10.2905 24.5185 9.8557 25.3156C9.4692 26.0283 8.99814 25.9799 8.5754 25.2794C8.14059 24.5426 7.24679 24.1803 6.43754 24.3977C5.56791 24.6272 4.98815 25.376 4.98815 26.2457C4.97607 27.1274 5.54375 27.8762 6.40131 28.1178C7.21056 28.3594 8.09227 28.0091 8.55125 27.2844C8.65995 27.1153 8.73242 26.9341 8.82905 26.753C9.08269 26.753 9.33634 26.8013 9.56582 26.7409C9.84363 26.6563 10.2422 26.5355 10.3388 26.3181C10.7616 25.4002 11.45 25.1465 12.368 25.2915C12.525 25.3156 12.6941 25.2794 12.8511 25.3036C12.9719 25.3277 13.141 25.376 13.2014 25.4606C13.7932 26.2819 14.6025 26.6805 15.5567 26.765C15.7741 27.5743 15.5687 28.142 14.8199 28.456C14.2884 28.6855 14.0831 29.0961 14.1677 29.6638C14.2039 29.9537 14.1677 30.159 13.8295 30.3281C12.9598 30.7388 12.5612 31.6205 12.7666 32.4781C12.9719 33.3598 13.7449 33.9758 14.6387 33.9878C15.5446 33.9999 16.3055 33.396 16.535 32.5143C16.7645 31.6447 16.3297 30.7992 15.4721 30.304C15.3151 30.2073 15.1339 29.9295 15.1702 29.7846C15.2185 29.5551 15.3876 29.2532 15.5808 29.1565C16.4263 28.7579 16.7645 28.1299 16.5954 27.224C16.5954 27.1998 16.5954 27.1878 16.5954 27.1636C16.5471 26.7892 16.6558 26.5597 17.0302 26.3664C17.9844 25.8592 18.5038 25.0016 18.5158 23.9146C18.54 20.9674 18.54 18.0203 18.5279 15.0853ZM14.6508 7.89873C14.1314 7.88665 13.6966 7.43975 13.7087 6.92039C13.7208 6.40102 14.1677 5.9662 14.687 5.97828C15.2064 5.99036 15.6412 6.43725 15.6291 6.95662C15.6171 7.47599 15.1702 7.91081 14.6508 7.89873ZM6.94483 13.6963C6.42547 13.6963 5.97857 13.2615 5.97857 12.7421C5.97857 12.2228 6.41339 11.7759 6.93276 11.7759C7.45212 11.7759 7.89902 12.2107 7.89902 12.73C7.89902 13.2494 7.4642 13.6963 6.94483 13.6963ZM6.9086 20.4602C6.38923 20.4481 5.95441 19.9891 5.97857 19.4697C5.99065 18.9504 6.44962 18.5156 6.96899 18.5397C7.48836 18.5518 7.92318 19.0108 7.89902 19.5301C7.88694 20.0495 7.42797 20.4722 6.9086 20.4602ZM6.9086 27.224C6.38923 27.2119 5.95441 26.753 5.97857 26.2336C5.99065 25.7142 6.44962 25.2794 6.96899 25.3036C7.48836 25.3156 7.92318 25.7746 7.89902 26.294C7.88694 26.8133 7.42797 27.2361 6.9086 27.224ZM15.6291 32.0553C15.6291 32.5747 15.1943 33.0216 14.6749 33.0216C14.1556 33.0216 13.7087 32.5868 13.7087 32.0674C13.7087 31.548 14.1435 31.1011 14.6629 31.1011C15.1822 31.0891 15.6291 31.536 15.6291 32.0553ZM17.5617 23.7334C17.5496 24.8687 16.8128 25.7021 15.762 25.7746C14.7595 25.8471 13.8536 25.1103 13.7208 24.1078C13.5758 23.1053 14.228 22.1994 15.2909 21.9337C15.3876 21.9096 15.4842 21.8975 15.605 21.8854V20.9433C14.4575 21.0037 13.6121 21.4868 13.1048 22.4652C12.8994 22.8637 12.6699 22.9121 12.2834 22.8154C11.4259 22.5859 10.822 21.8492 10.8099 20.9795C10.7857 20.122 11.3172 19.3852 12.1506 19.1074C12.3197 19.047 12.5009 19.0108 12.7062 18.9624V18.0445C12.4405 18.0687 12.1868 18.0928 11.9332 18.117C11.5467 17.2956 11.8728 16.4381 12.6941 15.9429C13.0806 16.4381 13.3826 17.0058 13.8415 17.3681C14.3005 17.7305 14.9286 17.8996 15.5808 18.2015V17.1024C15.4238 17.0662 15.2547 17.0299 15.0856 16.9695C14.1193 16.6676 13.5275 15.7375 13.7087 14.7834C13.8899 13.8171 14.7837 13.1286 15.762 13.2011C16.7403 13.2736 17.5254 14.0707 17.5375 15.0853C17.5617 17.2594 17.5496 19.4335 17.5496 21.6076C17.5617 22.3202 17.5737 23.0328 17.5617 23.7334Z" fill="#3C388D"/>
</g>
<defs>
<clipPath id="clip0_501_921">
<rect width="29" height="29" fill="white" transform="translate(5 5)"/>
</clipPath>
</defs>
</svg>
