<svg width="40" height="40" viewBox="0 0 40 40" fill="none" xmlns="http://www.w3.org/2000/svg">
<mask id="path-1-inside-1_497_109" fill="white">
<path fill-rule="evenodd" clip-rule="evenodd" d="M18.2285 8C19.3331 8 20.2285 8.89543 20.2285 10V17.0747C20.2285 18.1793 19.3331 19.0747 18.2285 19.0747H12.3089C12.2892 19.1142 12.2659 19.1529 12.2387 19.1906L10.1907 22.0279C9.80752 22.5589 8.98355 22.4297 8.78121 21.8069L7.89351 19.0747H7.0008C5.89623 19.0747 5.0008 18.1793 5.0008 17.0747V10C5.0008 8.89543 5.89623 8 7.0008 8H18.2285Z"/>
</mask>
<path d="M12.3089 19.0747L11.4138 18.6287L11.6899 18.0747H12.3089V19.0747ZM12.2387 19.1906L11.4278 18.6053L11.4278 18.6053L12.2387 19.1906ZM10.1907 22.0279L9.37989 21.4427L9.37989 21.4427L10.1907 22.0279ZM8.78121 21.8069L9.73228 21.4979L9.73228 21.4979L8.78121 21.8069ZM7.89351 19.0747V18.0747H8.62007L8.84458 18.7657L7.89351 19.0747ZM19.2285 10C19.2285 9.44772 18.7808 9 18.2285 9V7C19.8854 7 21.2285 8.34315 21.2285 10H19.2285ZM19.2285 17.0747V10H21.2285V17.0747H19.2285ZM18.2285 18.0747C18.7808 18.0747 19.2285 17.627 19.2285 17.0747H21.2285C21.2285 18.7316 19.8854 20.0747 18.2285 20.0747V18.0747ZM12.3089 18.0747H18.2285V20.0747H12.3089V18.0747ZM11.4278 18.6053C11.4235 18.6113 11.4186 18.6191 11.4138 18.6287L13.2039 19.5207C13.1598 19.6092 13.1082 19.6945 13.0495 19.7758L11.4278 18.6053ZM9.37989 21.4427L11.4278 18.6053L13.0495 19.7758L11.0016 22.6132L9.37989 21.4427ZM9.73228 21.4979C9.68169 21.3422 9.4757 21.3099 9.37989 21.4427L11.0016 22.6132C10.1393 23.8078 8.28541 23.5172 7.83015 22.1159L9.73228 21.4979ZM8.84458 18.7657L9.73228 21.4979L7.83015 22.1159L6.94245 19.3837L8.84458 18.7657ZM7.0008 18.0747H7.89351V20.0747H7.0008V18.0747ZM6.0008 17.0747C6.0008 17.627 6.44851 18.0747 7.0008 18.0747V20.0747C5.34394 20.0747 4.0008 18.7316 4.0008 17.0747H6.0008ZM6.0008 10V17.0747H4.0008V10H6.0008ZM7.0008 9C6.44851 9 6.0008 9.44772 6.0008 10H4.0008C4.0008 8.34315 5.34394 7 7.0008 7V9ZM18.2285 9H7.0008V7H18.2285V9Z" fill="#3C388D" mask="url(#path-1-inside-1_497_109)"/>
<mask id="path-3-inside-2_497_109" fill="white">
<path fill-rule="evenodd" clip-rule="evenodd" d="M16.0625 12.531C14.9579 12.531 14.0625 13.4264 14.0625 14.531V25.0308C14.0625 26.1353 14.9579 27.0308 16.0625 27.0308H24.4146L27.4907 31.2927C27.874 31.8236 28.6979 31.6944 28.9003 31.0717L30.2132 27.0308H31.9996C33.1042 27.0308 33.9996 26.1353 33.9996 25.0308V14.531C33.9996 13.4264 33.1042 12.531 31.9996 12.531H16.0625Z"/>
</mask>
<path fill-rule="evenodd" clip-rule="evenodd" d="M16.0625 12.531C14.9579 12.531 14.0625 13.4264 14.0625 14.531V25.0308C14.0625 26.1353 14.9579 27.0308 16.0625 27.0308H24.4146L27.4907 31.2927C27.874 31.8236 28.6979 31.6944 28.9003 31.0717L30.2132 27.0308H31.9996C33.1042 27.0308 33.9996 26.1353 33.9996 25.0308V14.531C33.9996 13.4264 33.1042 12.531 31.9996 12.531H16.0625Z" fill="white"/>
<path d="M24.4146 27.0308L25.2255 26.4455L24.9261 26.0308H24.4146V27.0308ZM27.4907 31.2927L28.3016 30.7074L28.3016 30.7074L27.4907 31.2927ZM28.9003 31.0717L27.9492 30.7627L27.9492 30.7627L28.9003 31.0717ZM30.2132 27.0308V26.0308H29.4866L29.2621 26.7218L30.2132 27.0308ZM15.0625 14.531C15.0625 13.9787 15.5102 13.531 16.0625 13.531V11.531C14.4056 11.531 13.0625 12.8741 13.0625 14.531H15.0625ZM15.0625 25.0308V14.531H13.0625V25.0308H15.0625ZM16.0625 26.0308C15.5102 26.0308 15.0625 25.583 15.0625 25.0308H13.0625C13.0625 26.6876 14.4056 28.0308 16.0625 28.0308V26.0308ZM24.4146 26.0308H16.0625V28.0308H24.4146V26.0308ZM28.3016 30.7074L25.2255 26.4455L23.6038 27.616L26.6799 31.8779L28.3016 30.7074ZM27.9492 30.7627C27.9998 30.607 28.2058 30.5747 28.3016 30.7074L26.6799 31.8779C27.5421 33.0726 29.3961 32.7819 29.8513 31.3807L27.9492 30.7627ZM29.2621 26.7218L27.9492 30.7627L29.8513 31.3807L31.1642 27.3397L29.2621 26.7218ZM31.9996 26.0308H30.2132V28.0308H31.9996V26.0308ZM32.9996 25.0308C32.9996 25.583 32.5519 26.0308 31.9996 26.0308V28.0308C33.6565 28.0308 34.9996 26.6876 34.9996 25.0308H32.9996ZM32.9996 14.531V25.0308H34.9996V14.531H32.9996ZM31.9996 13.531C32.5519 13.531 32.9996 13.9787 32.9996 14.531H34.9996C34.9996 12.8742 33.6565 11.531 31.9996 11.531V13.531ZM16.0625 13.531H31.9996V11.531H16.0625V13.531Z" fill="#3C388D" mask="url(#path-3-inside-2_497_109)"/>
<circle cx="20.4062" cy="19.781" r="0.906234" fill="#3C388D"/>
<circle cx="24.0312" cy="19.781" r="0.906234" fill="#3C388D"/>
<circle cx="27.6562" cy="19.781" r="0.906234" fill="#3C388D"/>
</svg>
