<svg width="40" height="40" viewBox="0 0 40 40" fill="none" xmlns="http://www.w3.org/2000/svg">
<path d="M28.6 13.3C28.6 10.4 28 5 19.7 5C11.5 5 10.9 10.4 10.9 13.3C8.2 13.5 4 15.3 4 20.7C4 25.2 6.8 27 8.5 27.6C8.6 27.6 8.7 27.6 8.7 27.6C9 27.6 9.2 27.4 9.3 27.2C9.4 26.9 9.3 26.5 8.9 26.4C7.2 25.7 5.2 24.2 5.2 20.7C5.2 15.8 9.3 14.5 11.4 14.5C11.8 14.5 12 14.2 12 13.9C12 11.1 12 6.3 19.6 6.3C27.2 6.3 27.2 11 27.2 13.9C27.2 14.3 27.5 14.5 27.9 14.5C30 14.5 34.1 15.8 34.1 20.7C34.1 24.2 32.1 25.7 30.4 26.4C30.1 26.5 29.9 26.9 30 27.2C30.1 27.5 30.5 27.7 30.8 27.6C32.5 26.9 35.3 25.2 35.3 20.7C35.5 15.3 31.3 13.5 28.6 13.3Z" fill="#3C388D"/>
<path d="M24.7992 31.1C24.4992 30.8 24.0992 30.8 23.8992 31.1L23.3992 31.6C22.4992 32.5 21.2992 33 19.9992 33C18.6992 33 17.4992 32.5 16.5992 31.6L17.5992 30.6C17.7992 30.4 17.7992 30.2 17.7992 29.9C17.6992 29.7 17.4992 29.5 17.2992 29.5L13.7992 29C13.6992 29 13.6992 29 13.5992 29H13.4992C13.3992 29 13.2992 29.1 13.2992 29.1C13.1992 29.2 13.1992 29.3 13.1992 29.3V29.4C13.1992 29.5 13.1992 29.5 13.1992 29.6L13.6992 33C13.6992 33.2 13.8992 33.4 14.0992 33.5C14.1992 33.5 14.1992 33.5 14.2992 33.5C14.4992 33.5 14.5992 33.4 14.7992 33.3L15.7992 32.3C16.9992 33.5 18.4992 34.1 20.0992 34.1C21.6992 34.1 23.2992 33.5 24.3992 32.3L24.8992 31.8C24.9992 31.8 24.9992 31.4 24.7992 31.1ZM14.5992 31.6V31.4V31.6Z" fill="#3C388D"/>
<path d="M26.2008 26.3C26.2008 26.3 26.2008 26.2 26.2008 26.3C26.2008 26.2 26.2008 26.1 26.2008 26L25.7008 22.6C25.7008 22.4 25.5008 22.2 25.3008 22.1C25.1008 22 24.8008 22.1 24.6008 22.3L23.6008 23.3C21.2008 20.9 17.3008 20.9 14.9008 23.3L14.4008 23.8C14.1008 24.1 14.1008 24.5 14.4008 24.7C14.7008 24.9 15.1008 25 15.3008 24.7L15.8008 24.2C17.7008 22.3 20.8008 22.3 22.6008 24.2L21.6008 25.2C21.4008 25.4 21.4008 25.6 21.4008 25.9C21.5008 26.1 21.7008 26.3 21.9008 26.3L25.3008 26.8H25.4008C25.5008 26.8 25.6008 26.8 25.6008 26.8C25.7008 26.8 25.8008 26.7 25.8008 26.7C26.2008 26.5 26.2008 26.4 26.2008 26.3ZM24.7008 24.1V24.3V24.1Z" fill="#3C388D"/>
</svg>
