<svg width="40" height="40" viewBox="0 0 40 40" fill="none" xmlns="http://www.w3.org/2000/svg">
<g clip-path="url(#clip0_501_812)">
<path d="M34 18.957C34 18.5478 34.0065 18.1321 33.9935 17.723C33.974 17.1059 33.7077 16.5928 33.2206 16.2226C33.0257 16.0732 32.9608 15.9174 32.9673 15.6835C32.9738 14.0078 32.9803 12.3321 32.9673 10.6629C32.9543 9.13012 31.8631 8.00649 30.3823 8C22.7832 8 15.1906 8 7.59149 8.00649C6.14961 8.00649 5.00649 9.13012 5.00649 10.5655C5 15.5861 4.99351 20.6132 5.01299 25.6338C5.01948 26.7445 5.57805 27.5563 6.60425 27.9785C6.98746 28.1344 7.4421 28.1863 7.86427 28.1863C10.6636 28.2058 13.4564 28.1928 16.2558 28.1928H16.6779C16.2947 29.219 15.931 30.1933 15.5543 31.1675C15.5283 31.2325 15.3854 31.2844 15.2945 31.2909C14.9633 31.3104 14.6255 31.2844 14.2943 31.3104C13.9111 31.3429 13.7032 31.7131 13.8591 32.0379C13.9825 32.2912 14.2034 32.3366 14.4567 32.3366C15.4179 32.3431 16.3792 32.3626 17.3404 32.3561C19.3928 32.3561 21.4452 32.3431 23.4976 32.3301C23.9198 32.3301 24.1471 32.1483 24.1601 31.8235C24.1666 31.4923 23.9263 31.2974 23.4911 31.2909C23.2833 31.2909 23.0755 31.2714 22.8741 31.2974C22.5559 31.3364 22.3935 31.226 22.2961 30.9077C22.1077 30.3037 21.8609 29.7127 21.6336 29.1151C21.5232 28.8228 21.4127 28.5371 21.2829 28.1863H23.8224C24.6732 28.1863 24.6732 28.1863 24.6797 29.0437C24.6862 30.4401 25.5241 31.2844 26.914 31.2909C28.5312 31.2974 30.155 31.2974 31.7722 31.2909C31.9865 31.2909 32.2074 31.2779 32.4152 31.226C33.3959 30.9922 33.987 30.1868 33.987 29.0891C34.0065 25.7247 34 22.3409 34 18.957ZM21.2893 31.2714H16.6649C16.6974 31.1675 16.7169 31.0766 16.7429 30.9922C17.0546 30.1543 17.3794 29.323 17.6782 28.4786C17.7561 28.2643 17.86 28.2058 18.0743 28.2123C18.6979 28.2253 19.3214 28.2123 19.9514 28.2253C20.0553 28.2253 20.2112 28.3032 20.2437 28.3877C20.6074 29.31 20.9451 30.2387 21.2893 31.1675C21.2958 31.1935 21.2893 31.226 21.2893 31.2714ZM24.6602 27.1601C24.5303 27.1601 24.4069 27.1601 24.2835 27.1601C22.8676 27.1536 21.4517 27.1342 20.0423 27.1407C15.9505 27.1471 11.8587 27.1536 7.76685 27.1601C6.86405 27.1601 6.23404 26.7055 6.07816 25.9131C6.0262 25.6663 6.04569 25.4 6.0327 25.1077H24.6667V27.1601H24.6602ZM24.6862 18.0477C24.6862 19.9377 24.6797 21.8278 24.6927 23.7178C24.6927 23.9841 24.6213 24.062 24.3485 24.062C18.3536 24.0555 12.3588 24.0555 6.36394 24.0555C6.26652 24.0555 6.17559 24.049 6.0327 24.0426V10.7928C6.0327 9.64323 6.63673 9.03919 7.79283 9.03919C15.2555 9.03919 22.7182 9.03919 30.1809 9.03919C31.3111 9.03919 31.9216 9.64972 31.9216 10.7798C31.9216 12.3256 31.9216 13.8714 31.9216 15.4108V15.7745H31.5449C30.0121 15.7745 28.4793 15.7745 26.9464 15.7745C25.5176 15.7745 24.6862 16.6058 24.6862 18.0477ZM32.9673 23.5295C32.9673 25.361 32.9673 27.1991 32.9673 29.0372C32.9673 29.888 32.5906 30.2647 31.7462 30.2712C30.1355 30.2712 28.5312 30.2712 26.9205 30.2712C26.1151 30.2712 25.7189 29.8815 25.7189 29.0891C25.7189 25.4 25.7189 21.7044 25.7189 18.0152C25.7189 17.2099 26.1021 16.8202 26.901 16.8202C28.5182 16.8202 30.142 16.8202 31.7592 16.8202C32.5776 16.8202 32.9608 17.2034 32.9608 18.0347C32.9673 19.8598 32.9673 21.6914 32.9673 23.5295Z" fill="#3C388D"/>
<path d="M30.6295 28.7125C30.623 28.9982 30.4736 29.1996 30.1878 29.2126C29.6292 29.2321 29.0707 29.2386 28.5121 29.2126C28.2198 29.1996 28.0445 28.9593 28.064 28.68C28.09 28.3942 28.2523 28.2383 28.5381 28.1994C28.5576 28.1994 28.5836 28.1929 28.603 28.1929C28.8628 28.1929 29.1161 28.1929 29.3759 28.1929V28.1994C29.6357 28.1994 29.8955 28.1864 30.1488 28.2059C30.4476 28.2318 30.636 28.4332 30.6295 28.7125Z" fill="#3C388D"/>
</g>
<defs>
<clipPath id="clip0_501_812">
<rect width="29" height="24.3626" fill="white" transform="translate(5 8)"/>
</clipPath>
</defs>
</svg>
