<svg width="40" height="40" viewBox="0 0 40 40" fill="none" xmlns="http://www.w3.org/2000/svg">
<g clip-path="url(#clip0_503_999)">
<path d="M27.3906 19.85C27.8601 19.85 28.2406 19.4694 28.2406 19C28.2406 18.5306 27.8601 18.15 27.3906 18.15L27.3906 19.85ZM13.7896 18.399C13.4576 18.7309 13.4576 19.2691 13.7896 19.601L19.199 25.0104C19.5309 25.3424 20.0691 25.3424 20.401 25.0104C20.733 24.6785 20.733 24.1403 20.401 23.8083L15.5927 19L20.401 14.1917C20.733 13.8597 20.733 13.3215 20.401 12.9896C20.0691 12.6576 19.5309 12.6576 19.199 12.9896L13.7896 18.399ZM27.3906 18.15L14.3906 18.15L14.3906 19.85L27.3906 19.85L27.3906 18.15Z" fill="#3C388D"/>
</g>
<defs>
<clipPath id="clip0_503_999">
<rect width="32.3909" height="29" fill="white" transform="translate(36.3906 34) rotate(-180)"/>
</clipPath>
</defs>
</svg>
