<svg xmlns="http://www.w3.org/2000/svg" width="40" height="40" viewBox="0 0 40 40" fill="none">
<g clip-path="url(#clip0_501_853)">
<path d="M29.3218 29.3555C29.3785 29.2309 29.4011 29.1629 29.4351 29.1063C32.4257 23.986 30.0808 17.4157 24.496 15.3086C24.3601 15.252 24.1789 15.2067 24.1109 15.0934C23.5445 14.2665 22.7515 13.7567 21.8113 13.5188C21.8679 12.8165 22.8082 12.2727 22.0605 11.5477C22.4003 10.7887 22.4117 10.8001 23.0574 10.4942C23.2273 10.4149 23.3746 10.2223 23.4652 10.0524C23.839 9.33873 24.2015 8.6024 24.5527 7.8774C24.8246 7.31099 24.7566 7.0731 24.1902 6.7899C23.114 6.24615 22.0378 5.7024 20.9503 5.16998C20.3613 4.88677 20.1347 4.96607 19.8289 5.56646C19.4777 6.25748 19.1039 6.93716 18.8093 7.63951C18.696 7.91138 18.7414 8.27388 18.8093 8.56841C18.8886 8.8856 18.5148 9.62193 18.2089 9.73521C17.9371 9.83716 17.6199 10.0071 17.4953 10.245C15.898 13.3715 14.3347 16.5094 12.7714 19.6473C12.4996 20.2024 12.5902 20.4516 13.1566 20.7348C14.1988 21.2672 15.241 21.7883 16.2945 22.3094C16.9968 22.6606 17.1894 22.5926 17.5406 21.8903C17.8917 21.1879 18.2429 20.4856 18.6167 19.7719C18.73 19.8399 18.798 19.8852 18.8546 19.9192C18.9339 19.9758 19.0019 20.0325 19.0812 20.0891C20.2593 20.8481 21.5054 20.9387 22.7289 20.2704C23.1707 20.0325 23.4425 20.1118 23.7937 20.3497C25.4929 21.5051 26.2972 23.6348 25.7421 25.6172C25.1984 27.611 23.3859 29.0723 21.3128 29.129C19.7042 29.1743 18.107 29.1403 16.4984 29.1403C16.4304 29.1403 16.3625 29.1063 16.2832 29.095V27.9622C16.8156 27.9622 17.3253 27.9622 17.8238 27.9622C18.2542 27.9622 18.6507 27.8602 18.6394 27.3278C18.6281 26.8294 18.2542 26.7387 17.8351 26.7387C15.173 26.7387 12.5109 26.7387 9.84878 26.7387C9.40699 26.7387 9.0105 26.8407 9.0105 27.3504C9.0105 27.8715 9.42964 27.9622 9.86011 27.9622C10.3585 27.9622 10.8683 27.9622 11.3668 27.9622V29.1176C11.2535 29.1516 11.1628 29.1743 11.0722 29.1969C9.75816 29.4575 9.0105 30.3524 8.99918 31.6891C8.98785 32.1083 8.99918 32.5161 8.99918 32.9352C8.99918 33.8528 9.12378 33.9887 10.0414 33.9887H26.116C27.3847 33.9887 28.6421 33.9887 29.9109 33.9887C30.5566 33.9887 30.7378 33.7848 30.7492 33.1391C30.7492 32.7653 30.7265 32.3801 30.7492 32.0063C30.8171 30.8508 30.4093 29.9446 29.3218 29.3555ZM17.7105 18.3899C17.7671 18.5258 17.7558 18.7297 17.6878 18.8657C17.3367 19.602 16.9742 20.3157 16.5777 21.086C16.1472 20.8708 15.7281 20.6668 15.3089 20.4629C14.9011 20.259 14.5046 20.0551 14.0289 19.8172C14.7199 18.4352 15.3882 17.1098 16.0453 15.7731C16.7476 14.3571 17.45 12.9411 18.175 11.5364C18.2656 11.3665 18.5148 11.2872 18.6734 11.1512C18.8773 11.004 19.1265 10.8794 19.2511 10.6754C19.557 10.1544 19.7949 9.59927 20.0667 9.06685C20.2593 8.69302 20.4746 8.33052 20.1007 7.92271C20.0554 7.86607 20.0781 7.70748 20.1121 7.61685C20.2933 7.22037 20.4972 6.84654 20.7238 6.40474C21.5621 6.82388 22.389 7.23169 23.25 7.66216C23.046 8.09263 22.8535 8.48912 22.6382 8.8856C22.5929 8.9649 22.4683 9.06685 22.389 9.06685C21.8792 9.03287 21.7093 9.38404 21.5394 9.74654C21.3128 10.2223 21.075 10.6981 20.8371 11.1626C20.6445 11.5364 20.4519 11.8876 20.7917 12.3067C20.9617 12.5106 20.4179 13.4961 20.0894 13.5754C18.2429 14.0626 16.8835 16.2602 17.7105 18.3899ZM21.075 19.4887C19.7609 19.4774 18.6621 18.3672 18.6734 17.0645C18.6847 15.7504 19.7949 14.6516 21.1089 14.6629C22.423 14.6743 23.5105 15.7844 23.4992 17.0985C23.4878 18.4126 22.389 19.5001 21.075 19.4887ZM24.2242 19.1376C24.4281 18.3559 24.632 17.5856 24.8359 16.77C25.98 17.3024 26.9656 18.118 27.7812 19.1602C29.9222 21.8903 30.1261 25.7645 28.3023 28.7098C28.0984 29.0383 27.8832 29.1856 27.498 29.1629C26.6371 29.129 25.7648 29.1516 24.7906 29.1516C28.3703 26.0137 27.532 21.1313 24.2242 19.1376ZM12.6582 27.9848H14.9804V29.1063H12.6582V27.9848ZM29.5371 32.7426H10.2453C10.2453 32.2668 10.2113 31.8251 10.2566 31.3833C10.3019 30.8395 10.755 30.443 11.3214 30.3751C11.5027 30.3524 11.6953 30.3637 11.8878 30.3637H27.7812C29.2199 30.3637 29.5371 30.6809 29.5371 32.1196V32.7426Z" fill="#ffffff"/>
</g>
<defs fill="#000000">
<clipPath id="clip0_501_853" fill="#000000">
<rect width="21.7613" height="29" fill="white" transform="translate(9 5)"/>
</clipPath>
</defs>
</svg>