<svg width="40" height="40" viewBox="0 0 40 40" fill="none" xmlns="http://www.w3.org/2000/svg">
<g clip-path="url(#clip0_172_134)">
<path d="M29.6303 27.2394C28.5644 26.5524 27.3777 26.0586 26.235 25.5004C25.5537 25.1676 24.8505 24.8563 24.1582 24.5342C23.8396 24.384 23.6967 24.1263 23.7077 23.7506C23.7407 23.085 23.6857 22.4195 23.7297 21.7646C23.7517 21.5177 23.8835 21.2171 24.0703 21.0454C25.4219 19.8109 26.18 18.3187 26.18 16.4938C26.18 15.1519 26.213 13.81 26.1581 12.4682C26.0482 9.54828 23.5978 7.07924 20.6201 6.82161C17.4665 6.55323 14.4888 8.5392 14.0053 11.4806C13.7196 13.1874 13.8515 14.9694 13.8295 16.7192C13.8185 18.0611 14.2251 19.36 15.214 20.2295C16.2249 21.1205 16.3787 22.1081 16.2688 23.2675C16.2578 23.3963 16.2468 23.5144 16.2688 23.6432C16.3348 24.0834 16.126 24.3732 15.7524 24.5557C15.0162 24.91 14.269 25.2535 13.5218 25.5755C12.1263 26.1767 10.7528 26.7993 9.61007 27.8084C8.10471 29.1503 7.50037 30.8142 7.61025 32.8001H32.3773C32.5201 30.3955 31.6191 28.5276 29.6303 27.2394ZM8.99474 31.5764C9.10462 30.4707 9.54415 29.5797 10.3243 28.8497C11.3352 27.905 12.5768 27.3361 13.8295 26.7886C14.6756 26.4129 15.5326 26.0479 16.3567 25.6292C17.1808 25.2213 17.5874 24.5557 17.5324 23.6218C17.4885 22.7844 17.5434 21.9364 17.5105 21.0991C17.4995 20.8951 17.3676 20.616 17.1918 20.4979C15.7194 19.4137 15.0052 17.9967 15.0492 16.2039C15.0711 15.0982 15.0492 13.9818 15.0492 12.8761C15.0601 10.1494 17.2138 8.03465 19.9828 8.02392C22.7628 8.01318 24.9274 10.1387 24.9494 12.8976C24.9604 14.0784 24.9494 15.2593 24.9494 16.4401C24.9494 18.0718 24.2681 19.3922 22.9496 20.3691C22.5869 20.6375 22.4441 20.9166 22.4661 21.346C22.499 22.1296 22.51 22.924 22.4661 23.7077C22.4221 24.5772 22.7957 25.2105 23.5539 25.6077C24.2901 25.9942 25.0812 26.2948 25.8284 26.6812C26.9822 27.2609 28.1579 27.8084 29.2347 28.4954C30.3225 29.1932 30.8939 30.2667 31.0148 31.5978H8.99474V31.5764Z" fill="#3C388D"/>
</g>
<defs>
<clipPath id="clip0_172_134">
<rect width="24.8" height="26" fill="white" transform="translate(7.59961 6.80005)"/>
</clipPath>
</defs>
</svg>
