<svg width="40" height="40" viewBox="0 0 40 40" fill="none" xmlns="http://www.w3.org/2000/svg">
<g clip-path="url(#clip0_172_195)">
<path d="M20.2163 6.00002C14.4054 5.98922 9.63289 10.591 9.59975 16.2406C9.58871 18.0554 10.2184 19.6974 11.0359 21.2853C13.2896 25.6927 16.3829 29.5383 19.6308 33.2759C20.0175 33.7188 20.3931 33.708 20.7797 33.2651C21.7851 32.0985 22.8014 30.9318 23.7625 29.722C25.8947 27.0322 27.9164 24.2668 29.4299 21.1881C30.1701 19.6758 30.7777 18.1094 30.7998 16.3919C30.8439 10.6882 26.0715 6.01082 20.2163 6.00002ZM28.2478 20.6264C26.5465 24.148 24.2044 27.259 21.7188 30.2729C21.2437 30.8454 20.7466 31.3963 20.1721 32.0661C19.1116 30.7698 18.0952 29.5599 17.1341 28.3177C15.0461 25.6387 13.2012 22.8193 11.7319 19.7514C9.11367 14.2854 12.9803 8.60338 18.0289 7.45834C23.5526 6.20526 28.9548 9.98608 29.4962 15.5061C29.684 17.3749 29.0322 19.0168 28.2478 20.6264Z" fill="#3C388D"/>
<path d="M20.2266 13.9073C18.8678 13.8857 17.7299 14.9875 17.7188 16.327C17.7078 17.6773 18.8015 18.7684 20.1824 18.7792C21.5744 18.79 22.6902 17.7205 22.6902 16.3702C22.7012 15.0307 21.5854 13.9289 20.2266 13.9073ZM20.2156 17.5585C19.5196 17.5693 18.9893 17.0724 18.9672 16.3918C18.9561 15.6789 19.4864 15.1496 20.2045 15.1604C20.9005 15.1604 21.4197 15.6681 21.4197 16.3594C21.4308 17.0292 20.9115 17.5477 20.2156 17.5585Z" fill="#3C388D"/>
</g>
<defs>
<clipPath id="clip0_172_195">
<rect width="21.2" height="27.6" fill="white" transform="translate(9.59961 6)"/>
</clipPath>
</defs>
</svg>
