<svg width="40" height="40" viewBox="0 0 40 40" fill="none" xmlns="http://www.w3.org/2000/svg">
<g clip-path="url(#clip0_172_141)">
<path d="M31.6597 13.9182C30.8517 13.929 30.0655 13.9398 29.2248 13.929C28.9955 13.929 28.8099 13.7454 28.8099 13.5185V6H11.5799V6.64815C11.5799 8.86265 11.558 11.0772 11.5908 13.2917C11.6017 13.8318 11.427 13.9614 10.9138 13.9398C10.0076 13.8966 9.09038 13.929 8.18412 13.929C6.72099 13.929 6.02218 14.6312 6.02218 16.0895C6.02218 19.3302 6.07677 22.571 6.00034 25.8117C5.95666 27.659 6.52445 28.7068 8.76282 28.5556C9.68 28.4907 10.6081 28.5448 11.5908 28.5448V34.0108H28.8426V28.5448C30.0219 28.5448 31.1138 28.5448 32.2056 28.5448C33.6579 28.5448 34.3894 27.8318 34.3894 26.3951C34.3894 23.1327 34.3457 19.8812 34.4113 16.6188C34.444 14.804 33.8981 13.8858 31.6597 13.9182ZM12.8246 7.45833C12.8246 7.40432 12.8465 7.35031 12.8792 7.24228H27.5324C27.5542 7.40432 27.576 7.54475 27.576 7.68519C27.576 9.59722 27.5651 11.4985 27.587 13.4105C27.587 13.7994 27.4887 13.9398 27.0738 13.9398C22.4878 13.929 17.9019 13.929 13.3269 13.9398C13.0212 13.9398 12.8137 13.9182 12.8137 13.5185C12.8246 11.4985 12.8246 9.4784 12.8246 7.45833ZM27.5542 32.7577H12.8574V23.0895H27.5542V32.7577V32.7577ZM33.1337 26.4383C33.1337 27.1404 32.97 27.3025 32.2712 27.3133C31.1465 27.3241 30.0219 27.3133 28.8208 27.3133V21.8796H11.6126V27.2377C11.427 27.2701 11.2851 27.3025 11.1541 27.3025C10.1386 27.3025 9.11222 27.3133 8.09676 27.3025C7.46347 27.2917 7.28877 27.1188 7.27785 26.4923C7.27785 22.9815 7.27785 19.4707 7.27785 15.9599C7.27785 15.3117 7.46347 15.1389 8.12952 15.1389C16.1767 15.1389 24.213 15.1389 32.2602 15.1389C32.959 15.1389 33.1228 15.3117 33.1228 16.0031C33.1337 19.4815 33.1337 22.9599 33.1337 26.4383Z" fill="#3C388D"/>
</g>
<defs>
<clipPath id="clip0_172_141">
<rect width="28.4" height="28" fill="white" transform="translate(6 6)"/>
</clipPath>
</defs>
</svg>
