<svg width="40" height="40" viewBox="0 0 40 40" fill="none" xmlns="http://www.w3.org/2000/svg">
<g clip-path="url(#clip0_172_184)">
<path d="M31.7826 25.0933C31.7286 25.0496 31.6745 25.006 31.6096 24.9623C29.761 23.7181 28.7123 21.9281 28.3556 19.7671C28.1069 18.2719 28.0204 16.733 27.934 15.2159C27.761 12.3345 26.615 10.0316 24.0961 8.54727C23.5448 8.21985 22.9286 8.01247 22.3123 7.73962C22.615 6.56088 22.3664 5.54586 21.3177 4.83643C20.4529 4.25797 19.5448 4.25797 18.6799 4.83643C17.6313 5.53494 17.3826 6.56088 17.6853 7.76145C17.6096 7.79419 17.5448 7.83785 17.4799 7.84876C14.3448 8.77647 12.0961 11.5923 12.0529 15.5324C12.0421 16.7439 11.9448 17.9663 11.7718 19.1668C11.4258 21.5571 10.4313 23.598 8.35558 24.9841C8.12855 25.1369 7.92315 25.3116 7.72855 25.4971C7.19882 26.0101 7.06909 26.5994 7.32855 27.2979C7.64206 28.1493 8.2799 28.695 9.0799 28.9678C10.215 29.3389 11.3934 29.6554 12.5718 29.8628C13.8583 30.0811 15.1772 30.1357 16.5394 30.2666C16.161 31.4563 16.2799 32.6023 17.0042 33.6282C17.7394 34.676 18.7664 35.2108 20.0529 35.2108C21.0799 35.1999 21.9556 34.807 22.6475 34.0539C23.6529 32.9624 23.8907 31.6746 23.4583 30.2339C23.6529 30.2121 23.7934 30.2011 23.934 30.1902C25.5664 30.0047 27.2096 29.9174 28.8096 29.6118C29.7934 29.4262 30.7988 29.0551 31.6637 28.5313C33.1664 27.6035 33.1556 26.1629 31.7826 25.0933ZM20.0096 5.655C20.6583 5.655 21.1988 6.20071 21.2096 6.86648C21.2204 7.56499 20.6907 8.12162 20.0096 8.12162C19.3502 8.12162 18.8204 7.58682 18.8096 6.92105C18.7988 6.21162 19.3286 5.64408 20.0096 5.655ZM21.4691 33.4754C20.6042 34.1303 19.4258 34.1303 18.5502 33.4863C17.6853 32.8424 17.3502 31.6636 17.7177 30.6595C17.815 30.3758 17.9556 30.2557 18.2691 30.2666C18.8637 30.2885 19.4583 30.2775 20.0529 30.2775C20.615 30.2775 21.1664 30.2885 21.7286 30.2666C22.0313 30.2557 22.1826 30.3649 22.2799 30.6486C22.6583 31.6527 22.3231 32.8206 21.4691 33.4754ZM30.8421 27.6145C29.7718 28.2584 28.561 28.5313 27.3502 28.6404C24.9177 28.8587 22.4745 28.9897 19.8042 29.1752C19.761 29.1752 19.7286 29.1752 19.6853 29.1752C17.2529 28.9787 14.615 28.8041 11.9988 28.5203C11.0907 28.4221 10.2042 28.0183 9.32855 27.7018C9.04747 27.5926 8.78801 27.3416 8.5826 27.1015C8.35558 26.8395 8.34477 26.523 8.69071 26.3048C12.334 23.98 13.134 20.3128 13.2961 16.34C13.3286 15.4669 13.3394 14.5829 13.5123 13.7425C14.0529 11.1558 15.6853 9.59504 18.2042 8.96201C18.3988 8.90744 18.6691 8.97293 18.8637 9.07116C19.6313 9.45315 20.3772 9.44224 21.1448 9.07116C21.3826 8.96201 21.7069 8.91836 21.9556 8.99476C24.8745 9.75875 26.6583 12.0944 26.7015 15.2268C26.734 17.0167 26.8313 18.7848 27.2637 20.5202C27.815 22.7467 28.9177 24.613 30.8313 25.9228C30.8745 25.9555 30.9177 25.9882 30.961 26.021C31.7718 26.6431 31.7502 27.0687 30.8421 27.6145Z" fill="#3C388D"/>
</g>
<defs>
<clipPath id="clip0_172_184">
<rect width="25.6" height="30.8" fill="white" transform="translate(7.19922 4.3999)"/>
</clipPath>
</defs>
</svg>
