<svg width="40" height="40" viewBox="0 0 40 40" fill="none" xmlns="http://www.w3.org/2000/svg">
<g clip-path="url(#clip0_501_748)">
<path d="M33.8964 20.1193C33.6417 19.2626 32.8429 18.6259 31.9283 18.6027C30.9906 18.5796 30.0529 18.6027 29.0573 18.6027C29.0573 17.2135 29.0457 15.9169 29.0573 14.6087C29.0573 13.8331 28.8141 13.1732 28.27 12.6291C27.6333 11.9808 26.985 11.3441 26.3483 10.7073C25.8273 10.1979 25.1906 9.95483 24.4728 9.95483C22.2385 9.95483 20.0042 9.95483 17.7583 9.95483C17.0868 9.95483 16.508 10.1864 16.0449 10.6494C15.2692 11.4251 14.482 12.1892 13.7179 12.988C12.7686 13.9257 12.7571 15.2339 13.6601 16.1137C14.5399 16.9704 15.8133 16.9357 16.7742 16.0095C17.272 15.5233 17.7467 15.0255 18.2561 14.5393C18.3834 14.4119 18.5686 14.2846 18.7307 14.273C19.3443 14.2383 19.9579 14.2614 20.7335 14.2614C20.4672 14.5508 20.3283 14.7013 20.1778 14.8403C18.9507 16.0674 17.7119 17.283 16.4964 18.5217C15.1187 19.9109 15.1303 21.7053 16.4964 23.0946C17.492 24.0902 18.4992 25.0742 19.4716 26.093C19.6453 26.2782 19.7726 26.5792 19.7842 26.8339C19.8074 28.3967 19.7842 29.9596 19.8074 31.5225C19.8305 33.0738 21.104 34.1736 22.5974 33.9884C23.8593 33.8379 24.7275 32.7728 24.7391 31.3257C24.7507 29.4734 24.7275 27.6211 24.7507 25.7688C24.7622 24.8079 24.4612 24.0091 23.7435 23.3492C23.1415 22.7936 22.5742 22.1916 22.088 21.7169C23.0026 20.8139 23.8708 19.9572 24.7507 19.089C24.7507 19.552 24.7275 20.0614 24.7507 20.5708C24.8317 21.9021 25.8157 22.8746 27.1587 22.8977C28.7215 22.9209 30.2844 22.9325 31.8473 22.8862C32.2756 22.8746 32.7618 22.6894 33.1207 22.4462C33.8732 21.9369 34.1511 20.976 33.8964 20.1193ZM31.8241 21.6474C30.2844 21.6706 28.7331 21.6706 27.1934 21.6474C26.4062 21.6243 25.9778 21.1265 25.9662 20.2582C25.9547 19.0658 25.9662 17.8618 25.9662 16.6694V16.1369L20.3399 21.7632C21.0577 22.4694 21.8912 23.3261 22.771 24.1249C23.3151 24.6227 23.5235 25.1784 23.5119 25.9077C23.4656 27.76 23.5004 29.6123 23.4888 31.4646C23.4888 32.1361 23.0952 32.6107 22.5163 32.7265C21.9259 32.8423 21.3471 32.576 21.1503 32.0203C21.0577 31.7772 21.0345 31.4993 21.0345 31.2331C21.0229 29.6355 21.0461 28.0263 21.0113 26.4287C20.9998 26.1277 20.8608 25.7572 20.6525 25.5257C19.6106 24.4375 18.5339 23.384 17.4688 22.3189C16.4501 21.3001 16.4501 20.3161 17.4573 19.3089C19.3674 17.3987 21.2776 15.4886 23.1878 13.5784C23.3383 13.4279 23.5235 13.3237 23.6972 13.1964C23.674 13.15 23.6393 13.1037 23.6161 13.0459C23.4541 13.0343 23.292 13.0111 23.1415 13.0111C21.6018 13.0111 20.0505 12.988 18.5107 13.0227C18.2213 13.0343 17.8856 13.1848 17.6772 13.3816C17.0752 13.9141 16.5311 14.5161 15.9407 15.0834C15.4545 15.5464 14.8988 15.5812 14.5167 15.1876C14.1347 14.794 14.1579 14.273 14.6209 13.7983C15.3734 13.0227 16.1259 12.247 16.9247 11.5177C17.1447 11.3209 17.5036 11.182 17.793 11.1704C20.0273 11.1472 22.2732 11.1357 24.5076 11.1704C24.8433 11.1704 25.2369 11.3325 25.4916 11.5524C26.1746 12.1544 26.8229 12.7912 27.4133 13.4742C27.6449 13.752 27.7954 14.192 27.807 14.5624C27.8533 16.0674 27.8301 17.5724 27.8301 19.0774V19.7836H28.8489C29.8329 19.7836 30.8169 19.772 31.801 19.7952C32.3914 19.8067 32.785 20.2003 32.7734 20.7213C32.7503 21.2423 32.3798 21.6359 31.8241 21.6474Z" fill="#3C388D"/>
<path d="M17.4222 25.5141C16.4498 26.5329 15.5236 27.5864 14.4933 28.5357C13.6598 29.2998 12.3053 29.2766 11.4717 28.4894C10.0825 27.1812 8.72803 25.8383 7.43143 24.4375C6.55159 23.4882 6.66735 22.0527 7.58193 21.1381C8.48492 20.2351 9.8973 20.1772 10.8929 20.9992C11.2749 21.3233 11.6222 21.6822 11.9696 22.0411C12.3053 22.3884 12.6179 22.7473 12.9999 23.164C13.4051 22.701 13.7524 22.3074 14.0881 21.9253C14.4238 22.2726 14.6785 22.5389 14.8869 22.7589C14.2733 23.3724 13.6135 24.0323 12.9189 24.7269C12.1895 23.9976 11.3791 23.1756 10.5572 22.3652C10.3951 22.2032 10.233 22.0295 10.0478 21.8906C9.53841 21.5086 8.8438 21.578 8.41546 22.0179C8.01027 22.4463 7.92923 23.164 8.346 23.604C9.63103 24.9353 10.9276 26.2435 12.2705 27.5285C12.7568 27.9916 13.4282 27.8758 13.9839 27.3317C14.4238 26.9034 14.8638 26.4635 15.2921 26.0235C15.7205 25.5836 16.1488 25.1437 16.6119 24.669C16.9244 25.0279 17.2023 25.2942 17.4222 25.5141Z" fill="#3C388D"/>
<path d="M30.9097 5C28.8606 5 27.1936 6.65549 27.2051 8.70459C27.2051 10.7537 28.8838 12.4092 30.9329 12.386C32.9936 12.3629 34.6259 10.7074 34.6143 8.64671C34.6027 6.63234 32.9473 5 30.9097 5ZM30.8982 11.1705C29.5552 11.1589 28.4554 10.0475 28.4554 8.69302C28.4554 7.33852 29.5668 6.22715 30.9213 6.23872C32.2642 6.23872 33.364 7.3501 33.364 8.70459C33.364 10.0591 32.2411 11.1705 30.8982 11.1705Z" fill="#3C388D"/>
<path d="M12.9527 9.96655H6.86328V11.1474H12.9527V9.96655Z" fill="#3C388D"/>
<path d="M10.5106 14.2847H5V15.4424H10.5106V14.2847Z" fill="#3C388D"/>
</g>
<defs>
<clipPath id="clip0_501_748">
<rect width="29.6136" height="29" fill="white" transform="translate(5 5)"/>
</clipPath>
</defs>
</svg>
