<svg width="40" height="40" viewBox="0 0 40 40" fill="none" xmlns="http://www.w3.org/2000/svg">
<g clip-path="url(#clip0_501_756)">
<path d="M35.098 23.4545C34.1147 23.4682 33.2269 23.7686 32.3938 24.274C30.9188 25.1754 29.4437 25.1617 27.955 24.2603C27.518 23.9872 26.999 23.8506 26.5346 23.6184C26.2069 23.4545 25.8381 23.2633 25.6469 22.9902C23.8714 20.4498 22.1369 17.8958 20.3887 15.3418C20.2658 15.1643 20.1428 14.9731 20.0063 14.7546C20.2931 14.6043 20.5253 14.4814 20.7574 14.3585C22.9973 13.2386 25.2235 12.1186 27.4634 11.0123C28.2419 10.6299 28.8018 10.07 29.0067 9.20953C29.2389 8.1852 28.9794 7.29745 28.1736 6.62822C27.2722 5.89071 26.2752 5.84973 25.2372 6.34141C21.8501 7.95302 18.4629 9.55097 15.0758 11.1626C13.0955 12.0776 12.5628 13.7849 13.6418 15.7106C14.0515 16.4345 14.4612 17.172 14.8846 17.9231C14.6388 18.0734 14.4476 18.1963 14.2564 18.3056C11.5385 19.9035 8.82061 21.5151 6.08907 23.0994C5.73397 23.3043 5.29692 23.3862 4.88719 23.4272C4.43648 23.4682 4.05407 23.5638 4.01309 24.0828C3.97212 24.6291 4.31356 24.7793 4.80524 24.8886C5.50178 25.0388 6.2393 25.189 6.8539 25.5305C8.86158 26.6504 10.8146 26.6777 12.795 25.4759C14.2154 24.6291 15.6358 24.6427 17.0562 25.4895C19.0366 26.6777 21.0169 26.6504 22.9836 25.4759C24.404 24.6291 25.8244 24.6427 27.2448 25.4895C29.1979 26.6641 31.1373 26.6504 33.1177 25.5441C33.7323 25.2027 34.4698 25.0251 35.1663 24.8886C35.6443 24.793 36.0268 24.6837 36.0131 24.1237C35.9721 23.5774 35.5897 23.4409 35.098 23.4545ZM21.6179 24.5744C20.375 25.1208 19.1185 25.0661 17.9576 24.3559C15.909 23.0994 13.9013 23.1131 11.8526 24.3423C10.3503 25.2437 8.86158 25.0798 7.34557 24.1101C7.59141 23.9462 7.78262 23.8096 7.98749 23.6867C10.4322 22.2526 12.8769 20.8186 15.3353 19.3709C16.4416 18.7153 16.6328 18.0051 15.9909 16.8715C15.5948 16.175 15.1988 15.4921 14.8163 14.7955C14.2973 13.8395 14.5568 13.0064 15.5539 12.542C18.9819 10.9031 22.41 9.29147 25.8381 7.66621C26.6029 7.29745 27.2312 7.475 27.5317 8.10325C27.8321 8.71785 27.5726 9.30513 26.8078 9.68755C24.4314 10.8758 22.0549 12.064 19.6785 13.2522C18.3947 13.8941 18.1761 14.6999 18.9819 15.8881C20.5662 18.1963 22.1505 20.5044 23.7348 22.7989C23.8714 23.0038 24.008 23.195 24.1036 23.3589C23.2431 23.7823 22.451 24.2193 21.6179 24.5744Z" fill="#3C388D"/>
<path d="M35.1672 29.382C34.4707 29.5322 33.7468 29.7098 33.1186 30.0376C32.1625 30.5156 31.2065 30.8707 30.1412 30.8707C30.1139 30.9253 30.1002 30.9799 30.0729 31.0482C29.1715 30.7204 28.2018 30.5019 27.3687 30.0512C25.7981 29.1908 24.3367 29.1771 22.7934 30.0922C20.9359 31.1985 19.0238 31.1985 17.1664 30.0785C15.6231 29.1498 14.148 29.1635 12.6047 30.0785C10.7473 31.1848 8.87617 31.1302 6.96409 30.1058C6.2812 29.7507 5.48906 29.5732 4.73788 29.382C4.30084 29.2727 4.00037 29.1225 3.98671 28.6581C3.97305 28.1391 4.32815 27.8387 4.7652 27.9343C5.68026 28.1255 6.66362 28.2757 7.46942 28.7264C9.06737 29.6005 10.5424 29.6278 12.0994 28.6991C13.9295 27.6065 15.8279 27.6065 17.6581 28.6991C19.2287 29.6415 20.7174 29.6278 22.2744 28.6991C24.0772 27.6338 25.962 27.6065 27.7784 28.6718C29.4174 29.6278 30.9607 29.6005 32.5996 28.6445C33.3235 28.2347 34.2112 28.0982 35.0443 27.9343C35.5087 27.8387 35.9321 28.0572 35.9457 28.6035C36.014 29.1498 35.6589 29.2864 35.1672 29.382Z" fill="#3C388D"/>
<path d="M30.0591 12.2551C27.1774 12.2551 24.8692 14.5769 24.8829 17.4724C24.8965 20.3541 27.232 22.676 30.1001 22.6623C32.9546 22.6486 35.3037 20.2995 35.29 17.4314C35.2764 14.5633 32.9409 12.2551 30.0591 12.2551ZM30.0865 21.1736C28.0241 21.1736 26.3306 19.521 26.3169 17.4724C26.3033 15.4101 28.0241 13.6755 30.0865 13.6892C32.1351 13.7028 33.8013 15.3827 33.8013 17.4451C33.8013 19.521 32.1624 21.1736 30.0865 21.1736Z" fill="#3C388D"/>
</g>
<defs>
<clipPath id="clip0_501_756">
<rect width="32" height="25.0346" fill="white" transform="translate(4 6)"/>
</clipPath>
</defs>
</svg>
