<svg width="40" height="40" viewBox="0 0 40 40" fill="none" xmlns="http://www.w3.org/2000/svg">
<g clip-path="url(#clip0_501_907)">
<path d="M34.7613 26.2605C34.0598 25.5024 33.313 24.7783 32.5775 24.0428C32.2946 23.7486 32.0231 23.7826 31.7515 24.0655C31.5479 24.2691 31.3329 24.4728 31.0726 24.733C30.7106 24.337 30.439 23.9636 30.0882 23.6921C29.2057 23.0019 28.7418 22.1193 28.7191 20.9878C28.7191 20.6484 28.6286 20.3089 28.5494 19.9808C28.5042 19.7884 28.4136 19.5848 28.2779 19.449C26.4448 17.6047 24.6118 15.7603 22.7562 13.9273C22.2131 13.3955 21.3984 13.305 20.8327 13.6897C20.5724 13.8595 20.3461 14.0744 20.0972 14.2781C19.2033 13.5426 18.4905 13.6445 17.5966 14.7081C16.3972 14.165 15.6957 14.4478 15.1979 15.6698C15.1526 15.783 15.0281 15.8961 14.9037 15.9414C13.5685 16.4392 13.297 17.6047 14.304 18.623C15.1979 19.5169 16.0917 20.4108 16.9856 21.3046C17.0988 21.4178 17.1893 21.5422 17.2911 21.6667C16.8498 21.8138 16.4765 21.9383 16.1031 22.074C15.2658 22.3795 15.1074 23.0358 15.741 23.6694C16.8272 24.767 17.9248 25.8532 19.0223 26.9507C19.4862 27.426 20.0406 27.6296 20.6969 27.6409C21.6587 27.6523 22.6204 27.6975 23.5822 27.7315C23.7406 27.7428 23.9556 27.7428 24.0574 27.8333C24.725 28.4556 25.3586 29.1119 26.0715 29.8247C25.7094 30.1528 25.4152 30.4244 25.121 30.6846C24.7363 31.0128 24.7363 31.3183 25.1097 31.6804C25.7886 32.3253 26.4449 33.0042 27.1124 33.6718C27.35 33.9094 27.6103 34.147 27.9271 33.8189C28.2439 33.4907 27.9724 33.2418 27.7347 33.0042C27.1351 32.4158 26.5241 31.8161 25.9583 31.2617C28.0742 29.1458 30.1448 27.0639 32.272 24.948C32.8717 25.5703 33.494 26.2379 34.1503 26.8489C34.2861 26.9734 34.6029 26.9055 34.8292 26.9281C34.8065 26.7131 34.8857 26.3963 34.7613 26.2605ZM26.6033 29.1119C25.9809 28.4896 25.3586 27.822 24.6797 27.1884C24.4761 27.0073 24.1706 26.8715 23.899 26.8489C22.8241 26.781 21.7492 26.781 20.6743 26.7131C20.3688 26.6905 20.0067 26.6113 19.803 26.4076C18.6489 25.2988 17.5287 24.1447 16.3972 23.0132C17.2685 22.3909 18.1058 22.4361 18.8299 23.1376C19.0902 23.3866 19.3278 23.6581 19.5994 23.8957C19.8709 24.1447 20.1312 24.6425 20.5611 24.2012C20.9571 23.7939 20.5045 23.5337 20.2556 23.2847C18.5584 21.5649 16.8385 19.8676 15.1413 18.1591C15.0508 18.0686 14.9489 17.9667 14.8584 17.8762C14.5869 17.5934 14.4964 17.2765 14.8019 16.9824C15.1074 16.6769 15.4242 16.7787 15.6957 17.0502C16.6009 17.9554 17.5061 18.8606 18.4226 19.7658C18.5923 19.9355 18.7394 20.1618 18.9544 20.275C19.1468 20.3768 19.4749 20.456 19.6333 20.3542C19.9388 20.1618 19.803 19.8676 19.5767 19.6413C18.5923 18.657 17.5966 17.6726 16.6122 16.6769C16.5104 16.5637 16.3972 16.4619 16.2954 16.3487C16.0465 16.0658 16.0125 15.7603 16.2841 15.5001C16.5557 15.2286 16.8725 15.2625 17.1327 15.5227C17.6079 15.9866 18.0718 16.4506 18.5358 16.9258C19.1468 17.5368 19.7578 18.1591 20.3688 18.7701C20.5837 18.9851 20.8214 19.1548 21.1042 18.8946C21.4097 18.6117 21.24 18.3515 21.0024 18.1252C20.2669 17.3897 19.5428 16.6542 18.796 15.9301C18.4905 15.6246 18.2416 15.2964 18.6036 14.9117C18.977 14.527 19.3165 14.7533 19.622 15.0701C20.3461 15.8056 21.0929 16.5411 21.8171 17.2765C22.0434 17.5028 22.2923 17.7065 22.5865 17.4123C22.8807 17.1181 22.6883 16.8692 22.4507 16.6429C22.0886 16.2808 21.7379 15.9188 21.3645 15.568C21.0477 15.2512 20.8666 14.8891 21.2287 14.5383C21.5681 14.2102 21.9189 14.3799 22.2131 14.6741C23.9443 16.4053 25.6868 18.1365 27.4066 19.8903C27.5537 20.0374 27.6329 20.2637 27.6895 20.4786C27.7687 20.7728 27.8139 21.067 27.8253 21.3725C27.8592 22.5379 28.3344 23.4545 29.2509 24.1673C29.6809 24.4954 30.0543 24.9028 30.4277 25.2648C29.1604 26.566 27.9045 27.8107 26.6033 29.1119Z" fill="#3C388D"/>
<path d="M34.1515 12.8524C33.4839 13.5199 32.805 14.1762 32.1601 14.8551C31.8206 15.2172 31.5151 15.2624 31.1644 14.8664C30.8928 14.5609 30.5873 14.2667 30.2592 13.9273C29.5916 14.6062 28.9466 15.2398 28.3356 15.8961C28.2225 16.0092 28.2112 16.2355 28.1999 16.4165C28.1659 16.8691 28.2112 17.3217 28.132 17.763C28.098 17.9327 27.8152 18.0572 27.6454 18.2043C27.521 18.0459 27.2834 17.8875 27.272 17.7291C27.2381 17.1068 27.2494 16.4844 27.306 15.8621C27.3173 15.6698 27.487 15.4548 27.6341 15.2964C28.2791 14.6401 28.9466 14.0065 29.5803 13.3842C28.2678 12.0829 27.0118 10.8383 25.6993 9.5371C25.0996 10.1594 24.4773 10.8383 23.8097 11.4719C23.5834 11.6869 23.2553 11.834 22.9384 11.9132C22.4519 12.0377 21.9427 12.1169 21.4336 12.1622C20.8113 12.2074 20.3247 12.445 19.974 12.9768C19.8608 13.1465 19.725 13.3389 19.544 13.4181C19.3856 13.486 19.1027 13.4973 18.9896 13.3955C18.8877 13.305 18.8312 12.9542 18.9104 12.8637C19.4874 12.2074 19.8947 11.2909 20.9923 11.3249C21.2186 11.3362 21.4336 11.2343 21.6599 11.223C22.5877 11.1891 23.3458 10.827 23.9342 10.0915C24.2849 9.66157 24.7375 9.31081 25.2693 8.80164C24.9638 8.56402 24.7149 8.3943 24.4886 8.19063C24.217 7.94171 24.2283 7.65883 24.4886 7.39859C25.2241 6.66313 25.9369 5.91634 26.7063 5.21482C26.8421 5.09036 27.1589 5.16956 27.3852 5.14693C27.3626 5.38455 27.4305 5.69005 27.306 5.82583C26.695 6.48209 26.0274 7.09309 25.4277 7.69278C27.5549 9.81997 29.6142 11.8906 31.7188 13.9952C32.2732 13.4294 32.8842 12.8184 33.4952 12.2074C33.7328 11.9698 33.9931 11.7322 34.3099 12.0603C34.5815 12.3658 34.3778 12.6261 34.1515 12.8524Z" fill="#3C388D"/>
<path d="M18.6713 27.8332C17.7548 27.8898 17.3588 28.6479 16.793 29.157C16.4649 29.4399 16.1594 29.7454 15.6389 30.2433C15.9557 30.4469 16.216 30.5827 16.4536 30.7751C16.7591 31.024 16.7591 31.3182 16.4762 31.601C15.752 32.3252 15.0392 33.038 14.3151 33.7622C14.0888 33.9885 13.7946 34.1243 13.6022 33.8188C13.5004 33.6603 13.5796 33.2643 13.7154 33.1059C14.3037 32.4723 14.9487 31.8839 15.5031 31.3408C13.3872 29.2249 11.3166 27.1543 9.21206 25.0497C8.70289 25.5589 8.09189 26.1699 7.4922 26.7809C7.25459 27.0185 6.99434 27.2561 6.67753 26.928C6.40597 26.6338 6.59832 26.3849 6.83594 26.1473C7.51483 25.4684 8.20503 24.8008 8.87261 24.1106C9.21206 23.7598 9.50624 23.7825 9.82306 24.1332C10.1059 24.4387 10.4001 24.7329 10.7282 25.0724C11.3958 24.3935 12.0408 23.7712 12.6518 23.1149C12.7649 23.0018 12.7876 22.7755 12.7876 22.5944C12.8328 21.5761 12.8441 20.5577 12.9007 19.5394C12.912 19.2452 12.9912 18.9397 13.127 18.6795C13.1949 18.555 13.4891 18.4305 13.6249 18.4758C13.7606 18.5211 13.9304 18.77 13.919 18.9284C13.8625 20.2749 13.7833 21.6327 13.6814 22.9791C13.6588 23.228 13.5117 23.5222 13.3307 23.7033C12.7084 24.3595 12.0521 24.9705 11.4524 25.5589C12.7423 26.8488 13.9869 28.0934 15.2995 29.3946C15.8313 28.8629 16.4875 28.2518 17.0872 27.5843C17.4719 27.1543 17.9358 27.0412 18.445 27.0298C18.6034 27.0185 18.8523 27.2222 18.9202 27.3806C18.9542 27.4711 18.7731 27.8332 18.6713 27.8332Z" fill="#3C388D"/>
<path d="M18.593 12.2188C17.586 12.1848 16.5111 12.3659 15.7756 11.3475C15.3796 10.7931 14.8365 10.3292 14.3839 9.84265C13.0714 11.1665 11.8267 12.4224 10.5368 13.7123C11.1818 14.346 11.8494 15.0135 12.5169 15.6698C13.1279 16.2808 12.9695 17.1068 13.0827 17.8423C13.094 17.9441 12.8451 18.1591 12.7093 18.1704C12.5735 18.1817 12.4038 18.012 12.2567 17.9215C12.2341 17.9102 12.2227 17.8536 12.2227 17.8196C12.2793 16.0998 10.8084 15.4209 9.89188 14.312C9.76742 14.4025 9.72216 14.4252 9.6769 14.4591C8.68119 15.5227 8.71513 15.2512 7.88915 14.4365C7.34603 13.9047 6.80292 13.3503 6.24849 12.8071C6.03351 12.5922 5.86379 12.3546 6.12403 12.0717C6.41821 11.7775 6.67846 11.9472 6.90475 12.1848C7.51576 12.8071 8.11544 13.4182 8.68119 13.9952C10.7858 11.8906 12.8677 9.82002 15.0062 7.68151C14.4518 7.1384 13.8295 6.55003 13.2071 5.95034C12.9582 5.71273 12.7432 5.45249 13.0714 5.13567C13.3769 4.8528 13.6145 5.07909 13.8408 5.30539C14.5197 5.98428 15.1986 6.67449 15.8888 7.34207C16.2169 7.65888 16.2282 7.94176 15.9001 8.24726C15.5833 8.54144 15.2778 8.84694 14.9157 9.18639C15.6059 9.86528 16.2169 10.4989 16.8618 11.1099C16.9637 11.2118 17.1673 11.2457 17.3257 11.2683C17.7331 11.3136 18.163 11.291 18.5591 11.3702C18.7401 11.4154 18.9551 11.6417 18.989 11.8228C19.023 11.9133 18.7401 12.2188 18.593 12.2188Z" fill="#3C388D"/>
</g>
<defs>
<clipPath id="clip0_501_907">
<rect width="28.8416" height="29" fill="white" transform="translate(6 5)"/>
</clipPath>
</defs>
</svg>
