<svg width="40" height="40" viewBox="0 0 40 40" fill="none" xmlns="http://www.w3.org/2000/svg">
<g clip-path="url(#clip0_503_1003)">
<path d="M19.8453 26.6956C19.8453 27.165 20.2259 27.5456 20.6953 27.5456C21.1648 27.5456 21.5453 27.165 21.5453 26.6956L19.8453 26.6956ZM21.2964 13.0945C20.9644 12.7626 20.4262 12.7626 20.0943 13.0945L14.6849 18.5039C14.353 18.8358 14.353 19.374 14.6849 19.706C15.0169 20.0379 15.555 20.0379 15.887 19.706L20.6953 14.8976L25.5036 19.706C25.8356 20.0379 26.3738 20.0379 26.7057 19.706C27.0377 19.374 27.0377 18.8358 26.7057 18.5039L21.2964 13.0945ZM21.5453 26.6956L21.5453 13.6956L19.8453 13.6956L19.8453 26.6956L21.5453 26.6956Z" fill="#3C388D"/>
</g>
<defs>
<clipPath id="clip0_503_1003">
<rect width="32.3909" height="29" fill="white" transform="translate(5.69531 35.6956) rotate(-90)"/>
</clipPath>
</defs>
</svg>
