<svg width="40" height="40" viewBox="0 0 40 40" fill="none" xmlns="http://www.w3.org/2000/svg">
<g clip-path="url(#clip0_497_90)">
<path d="M33.2074 18.3033C33.1605 16.7534 32.3033 15.7084 30.8356 15.3561C30.4247 15.2622 30.3777 15.0626 30.3425 14.7221C30.2485 13.9706 30.1898 13.1957 29.9785 12.4794C28.8278 8.67513 26.3151 6.19763 22.4638 5.29352C18.6595 4.4129 15.3366 5.46965 12.636 8.28765C10.9335 10.0606 10.0294 12.2329 9.91194 14.7104C9.88845 15.0861 9.80626 15.274 9.38356 15.3796C7.92759 15.7436 7.07045 16.8004 7.03523 18.3503C6.98826 20.3229 6.98826 22.2955 7.03523 24.2563C7.08219 25.9706 8.08023 27.0861 9.74755 27.3327C10.5108 27.4383 11.3092 27.3914 12.0841 27.3796C12.5068 27.3796 12.6477 27.0861 12.6477 26.7103C12.6477 23.1174 12.6477 19.5244 12.6477 15.9432C12.6477 15.4501 12.3894 15.2387 11.9315 15.227C11.6262 15.227 11.3327 15.227 10.9922 15.227C11.2153 11.5166 12.7886 8.73384 16.0411 7.12523C19.4814 5.42268 22.8395 5.81016 25.8571 8.18198C28.0881 9.94323 29.1566 12.3385 29.227 15.227C28.9687 15.227 28.7926 15.227 28.6164 15.227C27.6888 15.2387 27.5832 15.3444 27.5832 16.2837C27.5832 18.0332 27.5832 19.7945 27.5832 21.5557C27.5832 23.2348 27.5949 24.9139 27.5832 26.5929C27.5832 27.1096 27.7593 27.4148 28.3229 27.4031C28.6047 27.3914 28.8982 27.4031 29.18 27.4031C29.1683 31.0783 27.2309 32.3229 23.4853 32.3464C23.2857 31.09 23.0509 30.8904 21.7945 30.8904C20.7965 30.8904 19.8102 30.8786 18.8121 30.8904C18.0372 30.9021 17.6027 31.3131 17.5675 32.0646C17.544 32.6516 17.544 33.2387 17.5675 33.8141C17.6027 34.5186 18.0254 34.9765 18.6947 34.9882C19.9041 35.0117 21.1135 35 22.3229 34.9882C22.816 34.9765 23.3209 34.7064 23.3914 34.2485C23.544 33.3914 23.544 33.4148 24.4129 33.4501C24.7417 33.4618 25.0704 33.3914 25.3992 33.3444C27.2309 33.0509 28.863 32.3816 29.6497 30.5616C30.0137 29.7162 30.1194 28.7651 30.3072 27.861C30.3659 27.544 30.4129 27.3561 30.7886 27.2622C32.2681 26.91 33.1487 25.9002 33.1957 24.3503C33.2661 22.3307 33.2661 20.3111 33.2074 18.3033ZM11.4853 16.3777V26.1937C10.9217 26.1937 10.3933 26.2407 9.87671 26.182C8.90215 26.0646 8.20939 25.3718 8.18591 24.3855C8.13894 22.319 8.13894 20.2524 8.18591 18.1859C8.20939 17.1996 8.90215 16.5068 9.87671 16.3894C10.3933 16.3307 10.9217 16.3777 11.4853 16.3777ZM22.3229 33.8258H18.7652V32.0176C19.8689 32.0176 20.9609 32.0058 22.0646 32.0293C22.1585 32.0293 22.3112 32.2172 22.3112 32.3229C22.3346 32.7925 22.3229 33.2739 22.3229 33.8258ZM32.0333 24.4442C32.0098 25.4305 31.2818 26.0998 30.3072 26.2055C29.8141 26.2642 29.2975 26.2172 28.7573 26.2172V16.3307C29.4031 16.3894 30.0254 16.3777 30.6008 16.4951C31.4579 16.6712 32.0333 17.3053 32.045 18.1859C32.092 20.2642 32.092 22.3542 32.0333 24.4442Z" fill="#3C388D"/>
</g>
<defs>
<clipPath id="clip0_497_90">
<rect width="26.2427" height="30" fill="white" transform="translate(7 5)"/>
</clipPath>
</defs>
</svg>
