<svg width="40" height="40" viewBox="0 0 40 40" fill="none" xmlns="http://www.w3.org/2000/svg">
<g clip-path="url(#clip0_497_214)">
<path d="M26.556 10.9661C26.5041 7.77558 23.774 5.08439 20.59 5.00657C16.991 4.91578 14.1506 7.6783 14.1376 11.2774C14.1376 12.4122 14.1376 13.5406 14.1376 14.6754C14.1376 15.8102 14.1312 16.9386 14.1376 18.0734C14.1506 21.3742 16.5759 24.02 19.8572 24.3053C23.3461 24.6101 26.4912 21.8346 26.5495 18.3458C26.5949 15.8881 26.5949 13.4238 26.556 10.9661ZM25.1877 14.6689H25.1488C25.1488 15.9853 25.2202 17.3082 25.1359 18.6117C24.9802 20.9008 23.0218 22.7944 20.7846 22.9305C18.2879 23.0862 16.135 21.5233 15.6356 19.1823C15.5578 18.8127 15.5124 18.4366 15.5124 18.0605C15.4995 15.7973 15.4995 13.5276 15.5124 11.2644C15.5254 8.9169 17.1207 6.93255 19.3385 6.4851C22.3928 5.86905 25.1488 8.09982 25.1812 11.232C25.2007 12.3798 25.1877 13.5211 25.1877 14.6689Z" fill="#3C388D"/>
<path d="M22.8075 28.1637C22.2433 28.2934 21.6661 28.3712 21.0501 28.4815C21.0501 29.7849 21.0501 31.0884 21.0501 32.3918C21.0501 32.4567 21.0631 32.515 21.076 32.6253H25.6024C25.7127 32.6253 25.8164 32.6253 25.9267 32.6317C26.2898 32.6642 26.5557 32.9301 26.5686 33.2802C26.5816 33.6369 26.3222 33.9482 25.9526 33.9936C25.8877 34 25.8229 34 25.758 34C22.1525 34 18.5534 34 14.9479 34C14.5069 34 14.2216 33.799 14.1503 33.4423C14.0919 33.144 14.2475 32.8133 14.5329 32.6966C14.6755 32.6382 14.8506 32.6253 15.0063 32.6253C16.4199 32.6188 17.8336 32.6188 19.2473 32.6188H19.6299V28.4685C19.0787 28.3712 18.5145 28.2999 17.9633 28.1702C13.6509 27.1716 10.441 23.4752 10.0454 19.0591C10.0195 18.7608 10 18.456 10 18.1577C10 17.7427 10.2853 17.4444 10.6679 17.4314C11.057 17.4249 11.3553 17.7038 11.3683 18.1253C11.4007 19.5714 11.712 20.9397 12.3734 22.2301C14.1373 25.6541 17.9114 27.5801 21.7051 26.9965C25.4727 26.4193 28.4752 23.5206 29.1626 19.7594C29.2534 19.2536 29.2858 18.7348 29.3247 18.2161C29.3636 17.7232 29.623 17.4184 30.0315 17.4249C30.4466 17.4379 30.7059 17.7556 30.7059 18.2485C30.6865 22.8981 27.3403 27.1002 22.8075 28.1637Z" fill="#3C388D"/>
</g>
<defs>
<clipPath id="clip0_497_214">
<rect width="20.7059" height="29" fill="white" transform="translate(10 5)"/>
</clipPath>
</defs>
</svg>
