<svg width="40" height="40" viewBox="0 0 40 40" fill="none" xmlns="http://www.w3.org/2000/svg">
<g clip-path="url(#clip0_172_126)">
<path d="M21.4349 11.1115C21.4349 10.1389 21.4568 9.16636 21.424 8.19378C21.3585 6.69168 19.9724 5.93523 18.6627 6.70248C18.4008 6.85378 18.1607 7.0591 17.9424 7.27523C15.705 9.49055 13.4675 11.7059 11.241 13.9212C10.9791 14.1914 10.7062 14.2886 10.3352 14.2886C9.13459 14.267 7.93402 14.267 6.73345 14.2886C5.58746 14.2994 4.82346 15.0775 4.82346 16.2014C4.82346 18.5572 4.86712 20.9238 4.80163 23.2796C4.76889 24.4143 5.68569 25.376 6.88625 25.322C8.04316 25.2788 9.21099 25.322 10.3788 25.3004C10.739 25.2896 10.9791 25.4085 11.2301 25.657C13.4348 27.8507 15.6504 30.0336 17.8878 32.2057C18.2152 32.5299 18.6082 32.8217 19.0229 33.0162C19.9069 33.4268 20.8237 33.081 21.1839 32.1733C21.3585 31.741 21.424 31.2331 21.424 30.7576C21.4459 27.0835 21.4349 23.4093 21.4349 19.7351C21.4349 16.8714 21.4349 13.986 21.4349 11.1115ZM9.76761 24.0036C8.70893 24.0036 7.61751 24.036 6.537 23.9712C6.37328 23.9604 6.08951 23.5714 6.0786 23.3552C6.04586 20.9778 6.05677 18.6004 6.06768 16.223C6.06768 15.8664 6.2314 15.5746 6.64614 15.5746C7.68299 15.5638 8.71985 15.5746 9.76761 15.5746V24.0036ZM20.2016 30.7036C20.2016 30.9738 20.1907 31.2439 20.1143 31.5033C19.9724 32.022 19.6668 32.1193 19.2194 31.8167C19.0447 31.6978 18.8919 31.5357 18.7391 31.3844C16.3052 28.9746 13.8823 26.5755 11.4484 24.1765C11.1101 23.8415 10.9573 23.4849 10.9573 23.0202C10.9573 20.8805 10.9573 18.7301 10.9573 16.5904C10.9573 16.1149 11.1101 15.7367 11.4593 15.3909C13.915 12.981 16.3598 10.5604 18.8046 8.15055C18.8592 8.09652 18.9028 8.03168 18.9683 7.99926C19.2739 7.88039 19.6014 7.64265 19.8742 7.69668C20.0379 7.7291 20.2016 8.21539 20.2016 8.50716C20.2235 12.257 20.2125 15.996 20.2125 19.7459C20.2125 23.3985 20.2125 27.051 20.2016 30.7036Z" fill="#3C388D"/>
<path d="M35.5803 19.8216C35.4711 24.5332 33.3974 28.1102 29.3046 30.5308C29.1518 30.6281 28.9881 30.7037 28.8243 30.7902C28.4423 30.9847 28.0931 30.9523 27.8966 30.5524C27.722 30.185 27.8966 29.904 28.2459 29.7095C28.737 29.4394 29.2282 29.1692 29.6866 28.845C36.4097 24.101 35.8095 14.0077 28.5733 10.0634C27.8966 9.69596 27.722 9.40419 27.9512 9.01516C28.1695 8.64774 28.5406 8.63693 29.1954 9.00435C32.8844 11.1224 35.0018 14.2887 35.5584 18.4708C35.6348 18.9139 35.5803 19.3677 35.5803 19.8216Z" fill="#3C388D"/>
<path d="M31.2905 19.8C31.2796 22.7718 29.6534 25.6895 27.0995 27.2673C26.8921 27.3969 26.6738 27.5158 26.4337 27.5374C26.1936 27.559 25.9207 27.4618 25.8225 27.2456C25.7243 27.0403 25.8007 26.781 25.9535 26.6081C26.1063 26.4352 26.3027 26.3163 26.4992 26.1974C28.6711 24.8358 30.0572 22.3287 30.0463 19.7892C30.0463 17.2497 28.6493 14.7534 26.4773 13.3918C26.1718 13.1972 25.7461 12.9487 25.7461 12.5381C25.7461 11.9437 26.4664 11.9437 26.8375 12.149C27.3396 12.43 27.8089 12.7866 28.2455 13.1648C29.1186 13.9321 29.828 14.8722 30.341 15.8989C30.9085 17.0227 31.236 18.2655 31.2796 19.519C31.2905 19.6163 31.2905 19.7135 31.2905 19.8Z" fill="#3C388D"/>
<path d="M26.9895 19.7674C27.0004 21.5721 25.8217 23.1606 24.0972 23.7226C23.6825 23.8631 23.3223 23.8523 23.1586 23.3984C22.9949 22.9337 23.2787 22.7176 23.6934 22.5663C24.9922 22.1016 25.778 21.021 25.7671 19.7674C25.7562 18.5139 24.9704 17.4656 23.6934 17.0226C23.2896 16.8821 22.9949 16.6876 23.115 16.2121C23.2241 15.8231 23.5843 15.715 24.0972 15.8771C25.8108 16.4174 26.9786 17.9952 26.9895 19.7674Z" fill="#3C388D"/>
</g>
<defs>
<clipPath id="clip0_172_126">
<rect width="30.8" height="26.8" fill="white" transform="translate(4.80078 6.3999)"/>
</clipPath>
</defs>
</svg>
