<svg width="40" height="40" viewBox="0 0 40 40" fill="none" xmlns="http://www.w3.org/2000/svg">
<g clip-path="url(#clip0_172_125)">
<path d="M33.9635 15.5146C33.8159 15.9481 33.2932 16.0335 32.9119 15.6977C32.3462 15.1971 31.8051 14.672 31.2086 14.2141C27.7711 11.5582 23.8602 10.27 19.3282 10.2089C14.378 10.2944 9.91977 12.0467 6.20561 15.6C6.01498 15.7771 5.8182 15.9908 5.54763 15.9053C5.357 15.8443 5.15408 15.6855 5.05569 15.5085C4.92656 15.2826 5.01879 15.0322 5.22172 14.8491C5.84895 14.2935 6.45158 13.7135 7.10955 13.2006C10.0612 10.9172 13.4003 9.52511 17.1083 9.13436C23.5158 8.45665 29.0686 10.3432 33.7298 14.7819C33.945 14.9895 34.068 15.2154 33.9635 15.5146Z" fill="#3C388D"/>
<path d="M30.508 18.7992C30.4957 18.9824 30.3174 19.2022 30.1452 19.2999C29.9115 19.4403 29.6656 19.3304 29.4503 19.1472C28.7985 18.5977 28.1651 18.0116 27.4641 17.5293C25.4164 16.1128 23.135 15.3069 20.6446 15.1298C16.4139 14.8307 12.7674 16.1494 9.68042 19.0312C9.55129 19.1533 9.39755 19.2815 9.23152 19.3304C8.96095 19.4098 8.72728 19.306 8.57355 19.0617C8.41982 18.8175 8.43827 18.5245 8.67809 18.3108C9.33606 17.7369 9.98173 17.1324 10.6951 16.6257C13.2654 14.8001 16.3524 13.8477 20.1465 13.8538C23.67 13.9148 27.2612 15.3374 30.2436 18.2192C30.385 18.3657 30.5265 18.6099 30.508 18.7992Z" fill="#3C388D"/>
<path d="M27.0205 22.4077C26.8607 22.8351 26.381 22.9083 25.9875 22.603C25.311 22.078 24.6654 21.498 23.9274 21.0889C20.4593 19.1474 16.0933 19.7213 13.197 22.4443C13.1539 22.487 13.1047 22.5298 13.0617 22.5664C12.7235 22.8717 12.3791 22.8839 12.1147 22.603C11.8687 22.3405 11.8933 21.9681 12.2131 21.6933C12.7296 21.2537 13.2462 20.7958 13.8119 20.4234C15.5337 19.2878 17.4461 18.7505 19.6476 18.7261C22.3102 18.7688 24.733 19.7335 26.7684 21.6506C26.9959 21.8643 27.1374 22.0963 27.0205 22.4077Z" fill="#3C388D"/>
<path d="M23.5964 25.8633C23.3812 26.2174 22.9446 26.2602 22.6002 25.9427C21.9238 25.3138 21.149 24.8986 20.2328 24.7582C18.8738 24.5506 17.6624 24.8864 16.6108 25.7656C16.5309 25.8328 16.4633 25.9061 16.3833 25.9732C16.082 26.2357 15.7254 26.2296 15.4855 25.961C15.258 25.7107 15.2703 25.3566 15.547 25.0879C16.3956 24.2637 17.4103 23.7508 18.5786 23.5554C18.8799 23.5066 19.1874 23.4944 19.3534 23.4761C21.0076 23.4944 22.3235 24.0134 23.4243 25.0513C23.7071 25.3077 23.7625 25.6008 23.5964 25.8633Z" fill="#3C388D"/>
<circle cx="19.5" cy="28.5" r="1.5" fill="#3C388D"/>
</g>
<defs>
<clipPath id="clip0_172_125">
<rect width="29" height="21.9186" fill="white" transform="translate(5 9)"/>
</clipPath>
</defs>
</svg>
