<svg xmlns="http://www.w3.org/2000/svg" xmlns:xlink="http://www.w3.org/1999/xlink" fill="#652580" version="1.1" id="Layer_1" viewBox="0 0 512 512" xml:space="preserve">
<g>
	<g>
		
			<rect x="250.627" y="208.56" transform="matrix(0.7071 -0.7071 0.7071 0.7071 -77.4162 246.3898)" width="16.168" height="16.168" fill="#652580"/>
	</g>
</g>
<g>
	<g>
		
			<rect x="273.494" y="185.687" transform="matrix(0.7071 -0.7071 0.7071 0.7071 -54.5449 255.8601)" width="16.168" height="16.168" fill="#652580"/>
	</g>
</g>
<g>
	<g>
		
			<rect x="227.769" y="231.419" transform="matrix(0.7071 -0.7071 0.7071 0.7071 -100.2747 236.923)" width="16.168" height="16.168" fill="#652580"/>
	</g>
</g>
<g>
	<g>
		
			<rect x="287.282" y="247.353" transform="matrix(0.7071 -0.7071 0.7071 0.7071 -94.1106 283.6709)" width="16.168" height="16.168" fill="#652580"/>
	</g>
</g>
<g>
	<g>
		
			<rect x="264.409" y="270.226" transform="matrix(0.7071 -0.7071 0.7071 0.7071 -116.9833 274.1961)" width="16.168" height="16.168" fill="#652580"/>
	</g>
</g>
<g>
	<g>
		
			<rect x="310.141" y="224.497" transform="matrix(0.7071 -0.7071 0.7071 0.7071 -71.2538 293.1403)" width="16.168" height="16.168" fill="#652580"/>
	</g>
</g>
<g>
	<g>
		<path d="M240.276,0.484C177.911,4.297,119.208,30.753,74.981,74.98C26.628,123.332,0,187.62,0,256s26.628,132.667,74.981,181.019    l5.716,5.716l39.346-39.346c11.814,9.304,26.299,14.368,41.569,14.368c17.994,0,34.913-7.007,47.636-19.732l40.015-40.015    l-22.865-22.865l24.539-24.539l-11.432-11.432l-24.539,24.539l-26.677-26.677l24.539-24.539l-11.432-11.432l-24.539,24.539    l-22.865-22.865l-40.015,40.015c-12.725,12.725-19.732,29.642-19.732,47.636c0,15.271,5.063,29.754,14.367,41.569l-27.819,27.816    c-87.853-93.9-85.977-241.763,5.62-333.362c84.91-84.91,220.591-93.805,315.61-20.691l9.859-12.814    C363.038,15.323,302.093-3.299,240.276,0.484z M125.408,314.184l28.583-28.583l72.408,72.408l-28.583,28.583    c-9.671,9.671-22.528,14.997-36.204,14.997s-26.533-5.326-36.203-14.997s-14.997-22.528-14.997-36.203    C110.412,336.712,115.738,323.854,125.408,314.184z" fill="#652580"/>
	</g>
</g>
<g>
	<g>
		<path d="M437.019,74.98l-5.716-5.716l-3.167,3.167l-26.947,26.947l-1.223,1.223c-26.414-20.746-64.871-18.971-89.201,5.361    l-24.771,24.771l95.273,95.273l24.771-24.771c24.331-24.331,26.107-62.787,5.361-89.201l1.223-1.223l18.586-18.586    c87.853,93.9,85.977,241.763-5.621,333.362c-84.911,84.909-220.592,93.804-315.61,20.691l-9.859,12.814    c44.698,34.395,99.524,52.905,155.884,52.905c5.229,0,10.475-0.16,15.723-0.481c62.365-3.814,121.068-30.269,165.295-74.497    C485.372,388.667,512,324.38,512,256S485.372,123.332,437.019,74.98z M394.604,189.804l-13.339,13.339l-72.408-72.408    l13.339-13.339c19.964-19.963,52.444-19.963,72.408,0C414.567,137.359,414.567,169.841,394.604,189.804z" fill="#652580"/>
	</g>
</g>
</svg>