<?xml version="1.0" encoding="UTF-8"?>
<!DOCTYPE svg PUBLIC "-//W3C//DTD SVG 1.1//EN" "http://www.w3.org/Graphics/SVG/1.1/DTD/svg11.dtd">
<svg xmlns="http://www.w3.org/2000/svg" version="1.1" width="400px" height="400px" style="shape-rendering:geometricPrecision; text-rendering:geometricPrecision; image-rendering:optimizeQuality; fill-rule:evenodd; clip-rule:evenodd" xmlns:xlink="http://www.w3.org/1999/xlink">
<g><path style="opacity:0.997" fill="#64247f" d="M 175.5,-0.5 C 191.5,-0.5 207.5,-0.5 223.5,-0.5C 297.594,11.7861 350.761,51.7861 383,119.5C 391.828,141.143 397.328,163.476 399.5,186.5C 399.5,195.833 399.5,205.167 399.5,214.5C 390.221,293.243 349.888,349.743 278.5,384C 259.635,391.381 240.302,396.548 220.5,399.5C 206.167,399.5 191.833,399.5 177.5,399.5C 102.59,388.422 48.7567,348.755 16,280.5C 7.81792,260.762 2.31792,240.429 -0.5,219.5C -0.5,205.5 -0.5,191.5 -0.5,177.5C 10.829,100.674 51.829,46.1739 122.5,14C 139.74,7.10962 157.407,2.27628 175.5,-0.5 Z M 184.5,40.5 C 256.581,37.9402 309.415,68.2736 343,131.5C 369.472,195.2 360.806,253.533 317,306.5C 271.352,352.874 216.852,368.041 153.5,352C 86.7467,328.232 49.2467,281.065 41,210.5C 39.2802,143.42 67.1136,92.9197 124.5,59C 143.591,49.4666 163.591,43.3 184.5,40.5 Z"/></g>
<g><path style="opacity:0.999" fill="#64247f" d="M 184.5,99.5 C 234.167,95.9059 270,116.239 292,160.5C 306.908,202.294 299.408,239.461 269.5,272C 233.639,302.706 194.306,308.039 151.5,288C 110.497,262.818 93.6636,226.318 101,178.5C 112.528,134.802 140.362,108.469 184.5,99.5 Z"/></g>
</svg>
